<svg width="53" height="53" viewBox="0 0 53 53" fill="none" xmlns="http://www.w3.org/2000/svg">
<rect width="53" height="53" rx="26.5" fill="url(#paint0_radial_4639_41383)" fill-opacity="0.21"/>
<g clip-path="url(#clip0_4639_41383)">
<path fill-rule="evenodd" clip-rule="evenodd" d="M14.0439 35.0015H36.0817C36.2431 35.0015 36.3747 35.1331 36.3747 35.2945V36.0243C36.3747 36.1857 36.2431 36.3173 36.0817 36.3173H12.7283C12.5669 36.3173 12.4353 36.1857 12.4353 36.0243V14.6787C12.4353 14.5173 12.5669 14.3857 12.7283 14.3857H13.458C13.6194 14.3857 13.751 14.5173 13.751 14.6787V34.7086C13.751 34.8699 13.8826 35.0015 14.0439 35.0015Z" fill="#837683"/>
<path fill-rule="evenodd" clip-rule="evenodd" d="M32.6775 18.8359H34.9873C35.1486 18.8359 35.2802 18.9675 35.2802 19.1289V32.7821C35.2802 32.9434 35.1486 33.075 34.9873 33.075H32.6775C32.5161 33.075 32.3845 32.9434 32.3845 32.7821V19.1288C32.3846 18.9675 32.5161 18.8359 32.6775 18.8359Z" fill="#8AC9FE"/>
<path fill-rule="evenodd" clip-rule="evenodd" d="M34.4014 18.8359H34.9873C35.1487 18.8359 35.2803 18.9675 35.2803 19.1289V32.7821C35.2803 32.9434 35.1487 33.075 34.9873 33.075H34.4014C34.5627 33.075 34.6943 32.9434 34.6943 32.7821V19.1288C34.6943 18.9675 34.5627 18.8359 34.4014 18.8359Z" fill="#60B7FF"/>
<path fill-rule="evenodd" clip-rule="evenodd" d="M29.6105 21.5693H27.3008C27.1394 21.5693 27.0078 21.7009 27.0078 21.8623V32.7814C27.0078 32.9428 27.1394 33.0744 27.3008 33.0744H29.6105C29.7719 33.0744 29.9035 32.9428 29.9035 32.7814V21.8622C29.9035 21.7009 29.7719 21.5693 29.6105 21.5693Z" fill="#6CF5C2"/>
<path fill-rule="evenodd" clip-rule="evenodd" d="M29.6106 21.5693H29.0247C29.186 21.5693 29.3176 21.7009 29.3176 21.8623V32.7814C29.3176 32.9428 29.186 33.0744 29.0247 33.0744H29.6106C29.772 33.0744 29.9036 32.9428 29.9036 32.7814V21.8622C29.9036 21.7009 29.772 21.5693 29.6106 21.5693Z" fill="#00E499"/>
<path fill-rule="evenodd" clip-rule="evenodd" d="M24.2339 24.6084C23.464 24.6084 22.6941 24.6084 21.9241 24.6084C21.7627 24.6084 21.6311 24.74 21.6311 24.9014V32.7813C21.6311 32.9427 21.7627 33.0743 21.9241 33.0743H24.2339C24.3953 33.0743 24.5269 32.9427 24.5269 32.7813C24.5269 29.9806 24.5269 27.7021 24.5269 24.9014C24.5269 24.74 24.3953 24.6084 24.2339 24.6084Z" fill="#FFE177"/>
<path fill-rule="evenodd" clip-rule="evenodd" d="M24.2339 24.6084H23.6479C23.8093 24.6084 23.9409 24.74 23.9409 24.9014V32.7813C23.9409 32.9427 23.8093 33.0743 23.6479 33.0743H24.2339C24.3953 33.0743 24.5269 32.9427 24.5269 32.7813C24.5269 29.9806 24.5269 27.7021 24.5269 24.9014C24.5269 24.74 24.3953 24.6084 24.2339 24.6084Z" fill="#FFD064"/>
<path fill-rule="evenodd" clip-rule="evenodd" d="M16.5474 27.5195H18.8571C19.0185 27.5195 19.1501 27.6511 19.1501 27.8125V32.7818C19.1501 32.9431 19.0185 33.0747 18.8571 33.0747H16.5474C16.386 33.0747 16.2544 32.9431 16.2544 32.7818V27.8125C16.2544 27.6511 16.386 27.5195 16.5474 27.5195Z" fill="#FE646F"/>
<path fill-rule="evenodd" clip-rule="evenodd" d="M18.271 27.5195H18.8569C19.0183 27.5195 19.1499 27.6511 19.1499 27.8125V32.7818C19.1499 32.9431 19.0183 33.0747 18.8569 33.0747H18.271C18.4324 33.0747 18.564 32.9431 18.564 32.7818V27.8125C18.564 27.6511 18.4324 27.5195 18.271 27.5195Z" fill="#FD4755"/>
<path fill-rule="evenodd" clip-rule="evenodd" d="M33.5219 13.9706L30.2913 13.7085C30.1616 13.698 30.0794 13.8437 30.1553 13.9493L30.9962 15.1198L24.4554 19.9379L23.6601 17.7786C23.5031 17.3518 22.9963 17.1649 22.5994 17.3948L15.8198 21.3305L16.4714 22.6556L22.5795 19.1097L23.4101 21.3668C23.5854 21.845 24.1776 22.0011 24.5665 21.6859L31.8558 16.3163L32.6032 17.3567C32.6791 17.4623 32.8434 17.4308 32.8748 17.3045L33.6573 14.1593C33.6801 14.068 33.6156 13.9782 33.5219 13.9706Z" fill="#8AC9FE"/>
<path d="M34.1071 37.0877C36.4523 37.0877 38.3535 35.1864 38.3535 32.8412C38.3535 30.4959 36.4523 28.5947 34.1071 28.5947C31.7618 28.5947 29.8606 30.4959 29.8606 32.8412C29.8606 35.1864 31.7618 37.0877 34.1071 37.0877Z" fill="#FFE177"/>
<path fill-rule="evenodd" clip-rule="evenodd" d="M34.1072 28.5947C36.4524 28.5947 38.3536 30.496 38.3536 32.8412C38.3536 35.1864 36.4524 37.0877 34.1072 37.0877C34.0087 37.0877 33.911 37.084 33.8142 37.0774C36.0227 36.9269 37.7677 35.0879 37.7677 32.8412C37.7677 30.5945 36.0227 28.7556 33.8142 28.605C33.911 28.5984 34.0087 28.5947 34.1072 28.5947Z" fill="#FFD064"/>
<path fill-rule="evenodd" clip-rule="evenodd" d="M28.5277 30.6724C28.5933 30.7113 28.67 30.7339 28.7522 30.7364C29.01 30.7433 29.2254 30.5384 29.2326 30.2794L29.2602 29.1859C29.2649 29.019 29.1794 28.8618 29.0362 28.7747C28.8934 28.6873 28.7147 28.6826 28.5677 28.7626L27.6071 29.2849C27.3798 29.4087 27.2954 29.6934 27.419 29.9209C27.4854 30.0428 27.5985 30.1236 27.7237 30.1534C27.3583 31.0246 27.1746 31.9681 27.1876 32.9337C27.2063 34.3181 27.6278 35.6447 28.4058 36.7716C28.4973 36.9035 28.6432 36.9738 28.7921 36.9738C28.884 36.9738 28.9766 36.9468 29.058 36.8905C29.2712 36.7435 29.3247 36.4517 29.1774 36.2385C28.0497 34.6058 27.8294 32.4919 28.5277 30.6724ZM33.9793 25.9189C32.6083 25.9446 31.2933 26.366 30.1772 27.1371C29.9646 27.2841 29.9105 27.5759 30.0578 27.7884C30.2054 28.0019 30.4971 28.0552 30.7098 27.9081C32.3444 26.779 34.4721 26.5603 36.2954 27.2658C36.2421 27.3434 36.211 27.4371 36.2119 27.5384C36.2146 27.7956 36.424 28.0025 36.6804 28.0025H36.6851L37.7792 27.9912C37.9466 27.9896 38.1002 27.8988 38.1829 27.7529C38.2649 27.607 38.2632 27.4283 38.178 27.2841L37.6214 26.3425C37.4895 26.12 37.2024 26.0455 36.9793 26.1773C36.8743 26.2394 36.8028 26.3362 36.7694 26.4441C35.8942 26.0805 34.9473 25.9013 33.9793 25.9189ZM40.5032 35.5046C40.8722 34.6177 41.052 33.6574 41.0294 32.6778C40.9971 31.3184 40.5763 30.0145 39.8118 28.9082C39.6648 28.6951 39.3728 28.6418 39.1595 28.7888C38.9469 28.9358 38.8934 29.2276 39.0406 29.4411C40.1854 31.0992 40.4069 33.1944 39.6874 35.0251C39.6113 34.9729 39.5216 34.9429 39.4196 34.9429C39.1615 34.9434 38.9522 35.1544 38.9533 35.4134L38.9574 36.5069C38.958 36.6743 39.0482 36.829 39.1935 36.9123C39.2658 36.9531 39.346 36.9738 39.4263 36.9738C39.5077 36.9738 39.589 36.9526 39.6624 36.9098L40.6076 36.3596C40.8307 36.2292 40.9065 35.9421 40.7763 35.7187C40.7134 35.6108 40.6138 35.5372 40.5032 35.5046ZM37.5078 37.7711C35.8735 38.9005 33.7573 39.1195 31.9362 38.4187C31.979 38.3489 32.0046 38.267 32.006 38.179C32.0093 37.9201 31.8024 37.7074 31.5435 37.7038L30.4503 37.6881C30.4478 37.6881 30.4456 37.6881 30.4439 37.6881C30.2785 37.6881 30.1257 37.7747 30.0413 37.9171C29.9553 38.0607 29.9528 38.2395 30.0341 38.3859L30.568 39.3404C30.6941 39.5666 30.9793 39.6474 31.2054 39.5208C31.322 39.456 31.4001 39.3487 31.431 39.2285C32.2713 39.5796 33.1773 39.7618 34.1059 39.7618C34.1398 39.7618 34.1732 39.7618 34.2071 39.761C35.5899 39.7412 36.9154 39.32 38.0409 38.5429C38.2538 38.3958 38.307 38.1035 38.16 37.8909C38.0131 37.6776 37.721 37.6241 37.5078 37.7711ZM35.9192 32.3813L34.5775 32.3735V30.8015C34.5775 30.5425 34.3679 30.3326 34.1089 30.3326C33.8505 30.3326 33.6401 30.5425 33.6401 30.8015V32.8393C33.6401 33.0977 33.8485 33.3068 34.1064 33.3082L35.914 33.3187H35.917C36.1744 33.3187 36.3839 33.1107 36.3859 32.8523C36.387 32.5939 36.1785 32.3824 35.9192 32.3813ZM37.8868 32.8393C37.8868 34.923 36.1923 36.6175 34.1089 36.6175C32.0259 36.6175 30.3311 34.923 30.3311 32.8393C30.3311 30.7563 32.0259 29.0618 34.1089 29.0618C36.1923 29.0618 37.8868 30.7563 37.8868 32.8393ZM38.8244 32.8393C38.8244 35.4398 36.7091 37.5548 34.1089 37.5548C31.509 37.5548 29.3937 35.4398 29.3937 32.8393C29.3937 30.2394 31.509 28.1244 34.1089 28.1244C36.7091 28.1244 38.8244 30.2395 38.8244 32.8393ZM16.4358 21.515L16.6724 21.9965L22.3461 18.703C22.4663 18.634 22.6103 18.6205 22.7404 18.6679C22.8712 18.7148 22.9738 18.8166 23.0218 18.9467L23.8519 21.2038C23.8936 21.3169 23.9826 21.356 24.0326 21.3701C24.0728 21.3814 24.1771 21.3988 24.2733 21.3204C24.2791 21.3155 24.2849 21.3117 24.2907 21.3075L31.58 15.9381C31.6806 15.8636 31.8072 15.8324 31.9308 15.8518C32.0546 15.8716 32.1652 15.9397 32.2386 16.0415L32.5872 16.5269L33.1145 14.4063L30.9371 14.2301L31.3789 14.8451C31.5289 15.0538 31.4832 15.3437 31.2763 15.4962L24.7356 20.3143C24.6167 20.4015 24.4642 20.4279 24.3233 20.3858C24.1821 20.3436 24.0687 20.2368 24.018 20.0987L23.2226 17.9395C23.1851 17.8374 23.1048 17.7952 23.061 17.7795C23.0171 17.7635 22.9296 17.7456 22.8365 17.7994L16.4358 21.515ZM15.4011 21.536C15.2927 21.3151 15.3735 21.0473 15.5867 20.9237L22.3663 16.9887C22.6749 16.8094 23.0441 16.7766 23.3792 16.8979C23.7155 17.019 23.9791 17.281 24.1021 17.6155L24.6818 19.1895L30.3471 15.0156L29.7765 14.2219C29.6358 14.0255 29.6218 13.7635 29.7401 13.5534C29.859 13.3435 30.0904 13.2205 30.3312 13.2404L33.5621 13.5023C33.7444 13.517 33.9096 13.6107 34.0163 13.7589C34.1228 13.9072 34.1586 14.0942 34.1142 14.2716L33.3318 17.4165C33.2733 17.6506 33.0827 17.8313 32.8461 17.877C32.6095 17.922 32.3651 17.8249 32.2245 17.629L31.754 16.974L24.8547 22.0563C24.5541 22.2949 24.1545 22.3763 23.783 22.2737C23.4033 22.1689 23.1079 21.8969 22.9719 21.5273L22.3345 19.794L16.7089 23.0594C16.6369 23.1016 16.5552 23.1234 16.4733 23.1234C16.4281 23.1234 16.3823 23.1162 16.3379 23.1027C16.2133 23.0655 16.1101 22.9781 16.0533 22.8614L15.4011 21.536ZM18.6835 27.9873H16.7251V32.6049H18.6835L18.6835 27.9873ZM19.1521 27.0496C19.4111 27.0496 19.621 27.2595 19.621 27.5185V33.0738C19.621 33.3322 19.4111 33.5427 19.1521 33.5427H16.2565C15.9975 33.5427 15.7877 33.3323 15.7877 33.0738V27.5185C15.7877 27.2595 15.9975 27.0496 16.2565 27.0496H19.1521ZM31.918 18.8343C31.918 18.5753 32.1276 18.3657 32.3869 18.3657H35.2825C35.5415 18.3657 35.7514 18.5753 35.7514 18.8343V25.1858C35.7514 25.4447 35.5415 25.6546 35.2825 25.6546C35.0235 25.6546 34.8139 25.4447 34.8139 25.1858V19.3031H32.8555V25.2901C32.8555 25.549 32.6459 25.7589 32.3869 25.7589C32.1277 25.7589 31.918 25.549 31.918 25.2901V18.8343ZM24.0602 25.0763H22.1017V32.6049H24.0602V25.0763ZM24.5287 24.1389C24.7877 24.1389 24.9975 24.3485 24.9975 24.6075V33.0738C24.9975 33.3322 24.7877 33.5427 24.5287 33.5427H21.6331C21.3741 33.5427 21.1642 33.3323 21.1642 33.0738V24.6074C21.1642 24.3485 21.3741 24.1389 21.6331 24.1389L24.5287 24.1389ZM29.9058 26.8006C29.6469 26.8006 29.4372 26.591 29.4372 26.332V22.0371H27.4788V28.6763C27.4788 28.9347 27.2692 29.1452 27.0102 29.1452C26.7513 29.1452 26.5414 28.9347 26.5414 28.6763V21.5683C26.5414 21.3093 26.7513 21.0997 27.0102 21.0997H29.9058C30.1642 21.0997 30.3747 21.3093 30.3747 21.5683V26.3321C30.3747 26.591 30.1643 26.8006 29.9058 26.8006ZM27.6548 36.3163C27.6548 36.5753 27.4449 36.7852 27.186 36.7852H12.4373C12.1783 36.7852 11.9688 36.5753 11.9688 36.3163V14.3852C11.9688 14.1262 12.1783 13.9166 12.4373 13.9166H13.7529C14.0119 13.9166 14.2214 14.1262 14.2214 14.3852V34.5322H26.6721C26.9311 34.5322 27.1407 34.7418 27.1407 35.0007C27.1407 35.26 26.9311 35.4696 26.6721 35.4696H13.7529C13.4945 35.4696 13.284 35.26 13.284 35.0007V14.854H12.9062V35.8475H27.186C27.4449 35.8474 27.6548 36.0573 27.6548 36.3163Z" fill="#242222"/>
</g>
<defs>
<radialGradient id="paint0_radial_4639_41383" cx="0" cy="0" r="1" gradientUnits="userSpaceOnUse" gradientTransform="translate(26.5 26.5) rotate(90) scale(26.5)">
<stop stop-color="white"/>
<stop offset="1" stop-color="#FFC700"/>
</radialGradient>
<clipPath id="clip0_4639_41383">
<rect width="30" height="30" fill="white" transform="translate(11.5 11.5)"/>
</clipPath>
</defs>
</svg>
