<svg width="53" height="53" viewBox="0 0 53 53" fill="none" xmlns="http://www.w3.org/2000/svg">
<rect width="53" height="53" rx="26.5" fill="url(#paint0_radial_1780_13886)" fill-opacity="0.21"/>
<g clip-path="url(#clip0_1780_13886)">
<path d="M26.4991 11.9688C19.6442 11.9688 14.0674 17.5396 14.0674 24.387C14.0674 27.0795 14.9151 29.6407 16.5188 31.7939C17.7269 33.4157 19.2976 34.6548 20.9605 35.9667C22.7318 37.3641 24.5634 38.809 26.1758 40.8736C26.2535 40.9731 26.3728 41.0312 26.4991 41.0312C26.6254 41.0312 26.7446 40.9731 26.8224 40.8736C28.4349 38.809 30.2669 37.3641 32.0386 35.9668C33.7019 34.6548 35.273 33.4157 36.4812 31.7937C38.0849 29.6382 38.9325 27.077 38.9325 24.387C38.9325 17.5396 33.3549 11.9688 26.499 11.9688H26.4991Z" fill="#FF637B"/>
<path d="M26.4991 33.4058C31.4735 33.4058 35.5312 29.355 35.5312 24.3869C35.5312 19.4188 31.4735 15.3662 26.4991 15.3662C21.5247 15.3662 17.4688 19.4187 17.4688 24.3869C17.4688 29.3551 21.5264 33.4058 26.4991 33.4058Z" fill="#EBF0F2"/>
<path d="M22.3685 35.5565C20.7056 34.2447 19.1349 33.0055 17.9268 31.3838C16.3219 29.2291 15.4736 26.6678 15.4736 23.9768C15.4736 18.5912 18.9243 13.9962 23.7331 12.2793C18.205 13.5392 14.0674 18.4894 14.0674 24.387C14.0674 27.078 14.9157 29.6392 16.5206 31.7939C17.7287 33.4157 19.2993 34.6548 20.9623 35.9667C22.7336 37.3641 24.5652 38.809 26.1776 40.8736C26.2553 40.9731 26.3745 41.0312 26.5009 41.0312C26.6272 41.0312 26.7464 40.9731 26.8241 40.8736C27.0051 40.6419 27.1889 40.4184 27.375 40.2015C25.8142 38.2754 24.0638 36.894 22.3685 35.5566V35.5565Z" fill="#FF7D96"/>
<path d="M28.6414 28.7818C26.9421 29.6062 24.9635 29.3953 23.4781 28.2315C22.45 27.4258 21.7975 26.2684 21.6408 24.9724C21.5575 24.2831 21.6211 23.5988 21.819 22.9543C21.9695 23.2549 22.2768 23.4393 22.6039 23.4393C22.6983 23.4393 22.7944 23.424 22.8888 23.3917C23.348 23.2344 23.5928 22.7347 23.4355 22.2754L22.7819 20.3668C22.6247 19.9079 22.1255 19.6631 21.6663 19.8199L19.7553 20.4727C19.296 20.6296 19.0508 21.1292 19.2077 21.5885C19.3538 22.0161 19.7967 22.2577 20.2279 22.1625C19.8874 23.1183 19.7704 24.147 19.8957 25.1835C20.1089 26.9458 20.9961 28.5197 22.394 29.6151C23.3937 30.3984 24.588 30.8773 25.8476 31.0001C26.0643 31.0212 26.2811 31.0317 26.4975 31.0317C27.5041 31.0317 28.4994 30.8046 29.4087 30.3634C29.8454 30.1515 30.0277 29.6258 29.8159 29.1891C29.6041 28.7523 29.0782 28.57 28.6416 28.7818H28.6414Z" fill="#2DE6A8"/>
<path d="M33.7941 27.1846C33.6479 26.7562 33.2037 26.5145 32.772 26.6107C33.1125 25.6549 33.2296 24.6261 33.1042 23.5894C32.8911 21.827 32.004 20.2532 30.606 19.1578C29.6063 18.3745 28.412 17.8955 27.1525 17.7728C25.9275 17.6535 24.6962 17.8736 23.5914 18.4095C23.1546 18.6213 22.9723 19.1471 23.1841 19.5838C23.3959 20.0205 23.9218 20.2029 24.3585 19.991C26.0579 19.1667 28.0365 19.3776 29.5218 20.5414C30.5499 21.347 31.2024 22.5045 31.3591 23.8004C31.4425 24.49 31.3788 25.1743 31.1807 25.819C30.9869 25.4315 30.5322 25.2369 30.1111 25.3812C29.6519 25.5384 29.4071 26.0382 29.5643 26.4974L30.218 28.406C30.3429 28.7709 30.6841 29.0004 31.0493 29.0004C31.1435 29.0004 31.2392 28.9852 31.3334 28.953L33.2461 28.3003C33.7055 28.1435 33.9507 27.6439 33.794 27.1846H33.7941Z" fill="#2DE6A8"/>
</g>
<defs>
<radialGradient id="paint0_radial_1780_13886" cx="0" cy="0" r="1" gradientUnits="userSpaceOnUse" gradientTransform="translate(26.5 26.5) rotate(-90) scale(26.5)">
<stop stop-color="white"/>
<stop offset="1" stop-color="#70C582"/>
</radialGradient>
<clipPath id="clip0_1780_13886">
<rect width="30" height="30" fill="white" transform="translate(11.5 11.5)"/>
</clipPath>
</defs>
</svg>
