<svg width="53" height="53" viewBox="0 0 53 53" fill="none" xmlns="http://www.w3.org/2000/svg">
<rect width="53" height="53" rx="26.5" fill="url(#paint0_radial_1790_12193)" fill-opacity="0.21"/>
<path fill-rule="evenodd" clip-rule="evenodd" d="M19.9296 13.3076H14.1805C13.8273 13.3076 13.541 13.6282 13.541 14.0236V40.255C13.541 40.6505 13.8273 40.9711 14.1805 40.9711H32.3263C32.6796 40.9711 32.9659 40.6505 32.9659 40.255V36.3474H16.8824C15.7441 36.3474 14.82 35.4251 14.82 34.289V14.7397H19.9296V13.3076Z" fill="#B45B51"/>
<path fill-rule="evenodd" clip-rule="evenodd" d="M16.8824 36.3475H33.7494C34.8877 36.3475 35.8118 35.4251 35.8118 34.2891H18.9449C18.9449 34.6674 18.8425 35.022 18.6637 35.3268C18.3056 35.9372 17.6417 36.3475 16.8824 36.3475Z" fill="#AABBC2"/>
<path fill-rule="evenodd" clip-rule="evenodd" d="M19.4482 34.2883H18.9449C18.9449 34.6667 18.8424 35.0213 18.6637 35.326H16.7203V32.6035H19.4482V34.2883Z" fill="#21BBAE"/>
<path fill-rule="evenodd" clip-rule="evenodd" d="M32.9659 34.289V14.0236C32.9659 13.6282 32.6796 13.3076 32.3264 13.3076H26.5773V14.7397H31.6869V34.289H32.9659Z" fill="#B45B51"/>
<path fill-rule="evenodd" clip-rule="evenodd" d="M16.8824 36.347C15.7441 36.347 14.8199 35.4246 14.8199 34.2886V14.7393H19.9296V14.9245C19.9296 14.9306 19.9297 14.9366 19.9298 14.9426C19.9403 15.3057 20.2652 15.597 20.6646 15.597H25.8422C26.2415 15.597 26.5664 15.3057 26.577 14.9426C26.5771 14.9366 26.5772 14.9306 26.5772 14.9245V14.7393H31.6868V34.2886H19.4482V32.6038H16.7203V35.3263H18.6636C18.3056 35.9367 17.6416 36.347 16.8824 36.347ZM18.5745 19.5859H17.543L17.094 19.7598C16.5781 19.9597 16.2382 20.4553 16.2382 21.0077V22.1977H19.8793V21.0077C19.8793 20.4553 19.5394 19.9597 19.0235 19.7598L18.5745 19.5859ZM19.4482 23.8809V26.6035H16.7203V23.8809H19.4482ZM18.0587 16.084C18.6745 16.084 19.1744 16.5829 19.1744 17.1975C19.1744 17.812 18.6745 18.5312 18.0587 18.5312C17.443 18.5312 16.9431 17.812 16.9431 17.1975C16.9431 16.5829 17.443 16.084 18.0587 16.084ZM19.4482 28.2423V30.9649H16.7203V28.2423H19.4482Z" fill="#DFDBEE"/>
<path fill-rule="evenodd" clip-rule="evenodd" d="M18.5745 19.5859H17.5431L17.0941 19.7599C16.5782 19.9598 16.2383 20.4554 16.2383 21.0077V22.1977H19.8794V21.0077C19.8794 20.4554 19.5395 19.9598 19.0235 19.7599L18.5745 19.5859Z" fill="#F5AF1A"/>
<path fill-rule="evenodd" clip-rule="evenodd" d="M16.7203 23.8809H19.4482V26.6034H16.7203V23.8809Z" fill="#21BBAE"/>
<path fill-rule="evenodd" clip-rule="evenodd" d="M18.0587 16.084C18.6745 16.084 19.1744 16.5829 19.1744 17.1975C19.1744 17.812 18.6745 18.5312 18.0587 18.5312C17.443 18.5312 16.9431 17.812 16.9431 17.1975C16.9431 16.5829 17.443 16.084 18.0587 16.084Z" fill="#F7987A"/>
<path fill-rule="evenodd" clip-rule="evenodd" d="M16.7203 28.2422H19.4482V30.9648H16.7203V28.2422Z" fill="#21BBAE"/>
<path fill-rule="evenodd" clip-rule="evenodd" d="M26.5772 14.9247V13.122C26.5772 13.1164 26.5771 13.1107 26.577 13.1051C26.5672 12.7415 26.242 12.4495 25.8422 12.4495H24.6764C24.6764 11.6657 24.0387 11.0293 23.2534 11.0293C22.468 11.0293 21.8305 11.6657 21.8305 12.4495H20.6646C20.2648 12.4495 19.9396 12.7415 19.9298 13.1051C19.9297 13.1107 19.9296 13.1164 19.9296 13.122V14.9247C19.9296 14.9308 19.9297 14.9368 19.9299 14.9428C19.9403 15.3058 20.2652 15.5972 20.6646 15.5972H25.8422C26.2415 15.5972 26.5664 15.3058 26.577 14.9428C26.5771 14.9368 26.5772 14.9308 26.5772 14.9247Z" fill="#0D4573"/>
<path fill-rule="evenodd" clip-rule="evenodd" d="M37.2954 20.3721V19.2862C37.2954 18.9454 37.4094 18.6185 37.6122 18.3774C37.815 18.1364 38.0902 18.001 38.377 18.001H38.3773C38.6642 18.001 38.9393 18.1364 39.1421 18.3774C39.345 18.6185 39.4589 18.9454 39.4589 19.2862V20.3721H37.2954Z" fill="#F7DADC"/>
<path fill-rule="evenodd" clip-rule="evenodd" d="M37.2954 36.6855L38.3772 40.3168L39.4589 36.6855H37.2954Z" fill="#F3A380"/>
<path fill-rule="evenodd" clip-rule="evenodd" d="M37.2954 20.3721H39.4589V32.8301H37.2954V20.3721Z" fill="#21BBAE"/>
<path fill-rule="evenodd" clip-rule="evenodd" d="M37.2954 34.1631H39.4589V36.686H37.2954V34.1631Z" fill="#21BBAE"/>
<path fill-rule="evenodd" clip-rule="evenodd" d="M37.2954 32.8301H39.4589V34.1628H37.2954V32.8301Z" fill="#F7DADC"/>
<path fill-rule="evenodd" clip-rule="evenodd" d="M26.0062 15.3351C26.012 15.3102 26.0154 15.2844 26.0162 15.2579C26.0163 15.2541 26.0163 15.2504 26.0163 15.2467V13.4439C26.0163 13.4404 26.0163 13.4369 26.0162 13.4334C26.0097 13.1922 25.7846 13.0091 25.5195 13.0091H24.3536C24.2222 13.0091 24.1155 12.9026 24.1155 12.7714C24.1155 12.1188 23.5846 11.5889 22.9306 11.5889C22.6861 11.5889 22.4588 11.663 22.27 11.7898C22.4829 11.4743 22.8441 11.2666 23.2535 11.2666C23.9074 11.2666 24.4383 11.7965 24.4383 12.4492C24.4383 12.5803 24.545 12.6868 24.6765 12.6868H25.8423C26.1076 12.6868 26.3326 12.8699 26.3391 13.1112C26.3392 13.1147 26.3392 13.1182 26.3392 13.1217V14.9244C26.3392 14.9282 26.3392 14.9319 26.3391 14.9357C26.3336 15.1246 26.194 15.2778 26.0062 15.3351Z" fill="#0D7CB4"/>
<path fill-rule="evenodd" clip-rule="evenodd" d="M21.7487 12.6875C21.7467 12.7154 21.7457 12.7436 21.7457 12.7721C21.7457 12.9032 21.639 13.0097 21.5076 13.0097H20.3417C20.2847 13.0097 20.2294 13.0182 20.1779 13.0339C20.2247 12.8322 20.4288 12.6875 20.6646 12.6875H21.7487Z" fill="#0D7CB4"/>
<path fill-rule="evenodd" clip-rule="evenodd" d="M38.3842 20.1351C38.3943 18.874 38.0812 18.5488 37.832 18.4888C37.9823 18.3304 38.175 18.2393 38.377 18.2393H38.3773C38.5965 18.2393 38.8047 18.3467 38.9598 18.5309C39.1284 18.7312 39.2208 19.0036 39.2208 19.2869V20.1351H38.3842Z" fill="#FEF1F4"/>
<path fill-rule="evenodd" clip-rule="evenodd" d="M38.3844 32.5931V21.1892C38.285 20.7549 37.5334 20.6104 37.5334 20.6104H39.2208V32.5931H38.3844Z" fill="#96CD7D"/>
<path fill-rule="evenodd" clip-rule="evenodd" d="M38.3844 34.4004H39.2208V36.448H38.3844V34.4004Z" fill="#96CD7D"/>
<path fill-rule="evenodd" clip-rule="evenodd" d="M38.3844 33.0684H39.2208V33.9258H38.3844V33.0684Z" fill="#FEF1F4"/>
<path fill-rule="evenodd" clip-rule="evenodd" d="M38.3772 39.4837L38.3808 36.9238H39.1398L38.3772 39.4837Z" fill="#FBBFA4"/>
<path fill-rule="evenodd" clip-rule="evenodd" d="M32.3622 34.0511V14.6259C32.3622 14.2305 32.0759 13.9099 31.7227 13.9099H26.8154V13.5449H32.3264C32.5562 13.5449 32.7278 13.7661 32.7278 14.0233V34.0511H32.3622Z" fill="#F3A369"/>
<path fill-rule="evenodd" clip-rule="evenodd" d="M19.6915 13.9099H14.1698C14.1698 13.9099 13.9874 13.9229 13.7791 14.0364V14.0233C13.7791 13.7661 13.9507 13.5449 14.1805 13.5449H19.6915V13.9099Z" fill="#F3A369"/>
<path fill-rule="evenodd" clip-rule="evenodd" d="M15.174 35.8253C14.1196 35.1691 14.2511 34.0507 14.2511 34.0507V15.4797L14.582 15.2734V34.2883C14.582 34.8792 14.806 35.4182 15.174 35.8253Z" fill="#F3A369"/>
<path fill-rule="evenodd" clip-rule="evenodd" d="M19.1467 21.9334C19.1938 20.8185 19.0637 20.6353 18.9869 20.5394C18.0909 19.7521 16.7203 20.3597 16.7203 20.3597C16.8383 20.2038 16.9991 20.0796 17.1898 20.0057L17.5926 19.8496H18.5249L18.9277 20.0057C19.3419 20.1662 19.6148 20.564 19.6148 21.0074V21.9334H19.1467Z" fill="#EDDF53"/>
<path fill-rule="evenodd" clip-rule="evenodd" d="M18.3845 18.1972C17.7727 18.1905 17.2775 17.4752 17.2775 16.8635C17.2775 16.8402 17.2782 16.8171 17.2796 16.7942C17.4258 16.5133 17.72 16.3213 18.0588 16.3213C18.5431 16.3213 18.9364 16.7137 18.9364 17.1972C18.9364 17.5056 18.7841 17.8446 18.5524 18.0672C18.5004 18.1172 18.4442 18.1614 18.3845 18.1972Z" fill="#FBBD9C"/>
<path fill-rule="evenodd" clip-rule="evenodd" d="M21.904 34.0506C20.8723 33.2502 19.9959 32.2785 19.2514 31.2022H19.4482C19.5797 31.2022 19.6863 31.0958 19.6863 30.9646V29.4786C20.0857 29.1051 20.4338 28.7575 20.3974 28.7123C20.3644 28.6713 20.0505 28.8608 19.6863 29.1025V28.242C19.6863 28.1108 19.5797 28.0044 19.4482 28.0044H17.5076C17.3426 27.6201 17.1886 27.2315 17.0451 26.8408H19.4482C19.5797 26.8408 19.6863 26.7344 19.6863 26.6032V25.1148C20.0857 24.7413 20.4338 24.3937 20.3974 24.3485C20.3644 24.3075 20.0505 24.497 19.6863 24.7387V23.8806C19.6863 23.7494 19.5797 23.643 19.4482 23.643H16.7204C16.5889 23.643 16.4823 23.7494 16.4823 23.8806V25.1298C15.2062 20.7772 15.0696 16.5398 15.0581 15.3232V14.9766H19.6931C19.722 15.4494 20.1409 15.8344 20.6646 15.8344H25.8422C26.3659 15.8344 26.7849 15.4494 26.8137 14.9766H31.4488V34.0506H21.904ZM21.6243 25.4795H30.1865C30.3179 25.4795 30.4246 25.3731 30.4246 25.2419C30.4246 25.1107 30.3179 25.0042 30.1865 25.0042H21.6243C21.4929 25.0042 21.3862 25.1107 21.3862 25.2419C21.3862 25.3731 21.4929 25.4795 21.6243 25.4795ZM18.0587 15.846C17.3116 15.846 16.705 16.4515 16.705 17.1972C16.705 17.6263 16.9126 18.1 17.2349 18.4096C17.4651 18.6308 17.7517 18.7686 18.0587 18.7686C18.3658 18.7686 18.6524 18.6308 18.8826 18.4096C19.2049 18.1 19.4126 17.6263 19.4126 17.1972C19.4126 16.4515 18.8059 15.846 18.0587 15.846ZM21.6243 18.7686H26.5769C26.7083 18.7686 26.815 18.6621 26.815 18.5309C26.815 18.3997 26.7083 18.2933 26.5769 18.2933H21.6243C21.4929 18.2933 21.3862 18.3997 21.3862 18.5309C21.3862 18.6621 21.4929 18.7686 21.6243 18.7686ZM21.6243 29.806H30.1865C30.3179 29.806 30.4246 29.6995 30.4246 29.5684C30.4246 29.4373 30.3179 29.3308 30.1865 29.3308H21.6243C21.4929 29.3308 21.3862 29.4373 21.3862 29.5684C21.3862 29.6995 21.4929 29.806 21.6243 29.806ZM21.6243 20.9319H29.0532C29.1846 20.9319 29.2913 20.8255 29.2913 20.6943C29.2913 20.5632 29.1846 20.4567 29.0532 20.4567H21.6243C21.4929 20.4567 21.3862 20.5632 21.3862 20.6943C21.3862 20.8255 21.4929 20.9319 21.6243 20.9319ZM19.8793 22.4614C20.0254 22.4614 20.1439 22.3432 20.1439 22.1974V21.0074C20.1439 20.3461 19.7369 19.7527 19.1192 19.5134L18.6702 19.3394C18.6397 19.3276 18.6072 19.3215 18.5745 19.3215H17.5431C17.5103 19.3215 17.4779 19.3276 17.4473 19.3394L16.9983 19.5134C16.3806 19.7527 15.9737 20.3461 15.9737 21.0074V22.1974C15.9737 22.3432 16.0921 22.4614 16.2382 22.4614H19.8793Z" fill="#F3F2F9"/>
<path fill-rule="evenodd" clip-rule="evenodd" d="M18.3246 26.1152H17.5071C17.441 26.1152 17.3777 26.089 17.331 26.0424C17.2843 25.9957 17.258 25.9325 17.258 25.8666V24.4181L16.9585 24.1191H19.2101V25.064C18.8205 25.3348 18.4857 25.5785 18.4857 25.5785L17.9523 24.9152C17.87 24.8129 17.72 24.7966 17.6176 24.8787C17.5151 24.9607 17.4987 25.1104 17.5809 25.2127L18.2636 26.0614C18.2808 26.0829 18.3015 26.101 18.3246 26.1152Z" fill="#96CD7D"/>
<path fill-rule="evenodd" clip-rule="evenodd" d="M19.2102 26.3614C19.191 26.3596 19.1798 26.358 19.1798 26.358L18.9364 26.1151H18.574C18.5824 26.1099 18.5906 26.1041 18.5985 26.0979C18.5985 26.0979 18.8743 25.8564 19.2102 25.5527V26.3614Z" fill="#96CD7D"/>
<path fill-rule="evenodd" clip-rule="evenodd" d="M18.2746 30.438H17.5641C17.4026 30.438 17.2717 30.3074 17.2717 30.1463V28.7931L16.9585 28.4805H19.2101V29.4277C18.8205 29.6985 18.4857 29.9422 18.4857 29.9422L17.9523 29.2789C17.87 29.1767 17.72 29.1603 17.6176 29.2424C17.5151 29.3245 17.4987 29.4742 17.5809 29.5764L18.2636 30.4252C18.2671 30.4296 18.2708 30.4339 18.2746 30.438Z" fill="#96CD7D"/>
<path fill-rule="evenodd" clip-rule="evenodd" d="M19.2101 30.7272L18.9531 30.4375H18.6254C18.7025 30.3697 18.9364 30.1635 19.2101 29.916V30.7272Z" fill="#96CD7D"/>
<path fill-rule="evenodd" clip-rule="evenodd" d="M18.6264 34.8251H17.5575C17.3961 34.8251 17.2652 34.6944 17.2652 34.5333V33.1479L16.9585 32.8418H19.2101V34.0513H18.9449C18.8135 34.0513 18.7068 34.1578 18.7068 34.289C18.7068 34.4755 18.6787 34.6555 18.6264 34.8251Z" fill="#96CD7D"/>
<path fill-rule="evenodd" clip-rule="evenodd" d="M19.1638 40.7333C26.3724 39.5508 32.7277 36.585 32.7277 36.585V40.2549C32.7277 40.5122 32.5561 40.7333 32.3263 40.7333H19.1638Z" fill="#F3A369"/>
<path fill-rule="evenodd" clip-rule="evenodd" d="M31.1714 40.2646C31.0346 40.2646 30.9234 40.1537 30.9234 40.017C30.9234 39.8804 31.0346 39.7695 31.1714 39.7695H31.3029C31.4398 39.7695 31.5509 39.8804 31.5509 40.017C31.5509 40.1537 31.4398 40.2646 31.3029 40.2646H31.1714ZM27.5565 40.2646C27.4196 40.2646 27.3085 40.1537 27.3085 40.017C27.3085 39.8804 27.4196 39.7695 27.5565 39.7695H30.2075C30.3443 39.7695 30.4555 39.8804 30.4555 40.017C30.4555 40.1537 30.3443 40.2646 30.2075 40.2646H27.5565Z" fill="white"/>
<path fill-rule="evenodd" clip-rule="evenodd" d="M38.6981 24.4806C38.6981 24.4123 38.7537 24.3568 38.8222 24.3568C38.8906 24.3568 38.9461 24.4123 38.9461 24.4806V27.5538C38.9461 27.6221 38.8906 27.6776 38.8222 27.6776C38.7537 27.6776 38.6981 27.6221 38.6981 27.5538V24.4806ZM38.6981 23.3044C38.6981 23.2361 38.7537 23.1807 38.8222 23.1807C38.8906 23.1807 38.9461 23.2361 38.9461 23.3044V23.4556C38.9461 23.5239 38.8906 23.5794 38.8222 23.5794C38.7537 23.5794 38.6981 23.5239 38.6981 23.4556V23.3044Z" fill="white"/>
<path fill-rule="evenodd" clip-rule="evenodd" d="M21.6243 18.7692C21.4929 18.7692 21.3862 18.6627 21.3862 18.5315C21.3862 18.4004 21.4929 18.2939 21.6243 18.2939H26.5769C26.7083 18.2939 26.815 18.4004 26.815 18.5315C26.815 18.6627 26.7083 18.7692 26.5769 18.7692H21.6243Z" fill="#0D4573"/>
<path fill-rule="evenodd" clip-rule="evenodd" d="M21.6243 20.9323C21.4929 20.9323 21.3862 20.8258 21.3862 20.6947C21.3862 20.5635 21.4929 20.457 21.6243 20.457H29.0532C29.1846 20.457 29.2913 20.5635 29.2913 20.6947C29.2913 20.8258 29.1846 20.9323 29.0532 20.9323H21.6243Z" fill="#0D4573"/>
<path fill-rule="evenodd" clip-rule="evenodd" d="M21.6243 25.4801C21.4929 25.4801 21.3862 25.3737 21.3862 25.2425C21.3862 25.1114 21.4929 25.0049 21.6243 25.0049H30.1865C30.3179 25.0049 30.4246 25.1114 30.4246 25.2425C30.4246 25.3737 30.3179 25.4801 30.1865 25.4801H21.6243Z" fill="#0D4573"/>
<path fill-rule="evenodd" clip-rule="evenodd" d="M21.6243 29.8063C21.4929 29.8063 21.3862 29.6998 21.3862 29.5687C21.3862 29.4375 21.4929 29.3311 21.6243 29.3311H30.1865C30.3179 29.3311 30.4246 29.4375 30.4246 29.5687C30.4246 29.6998 30.3179 29.8063 30.1865 29.8063H21.6243Z" fill="#0D4573"/>
<path fill-rule="evenodd" clip-rule="evenodd" d="M17.581 25.2127C17.4987 25.1104 17.5151 24.9607 17.6176 24.8786C17.7201 24.7965 17.8701 24.8129 17.9523 24.9152L18.4858 25.5785C18.4858 25.5785 20.3151 24.2471 20.3974 24.3493C20.4798 24.4516 18.5984 26.0979 18.5984 26.0979C18.5492 26.1374 18.4862 26.1557 18.4234 26.1489C18.3607 26.142 18.3031 26.1106 18.2636 26.0614L17.581 25.2127Z" fill="#0D4573"/>
<path fill-rule="evenodd" clip-rule="evenodd" d="M17.581 29.576C17.4987 29.4737 17.5151 29.324 17.6176 29.2419C17.7201 29.1598 17.8701 29.1762 17.9523 29.2785L18.4858 29.9418C18.4858 29.9418 20.3151 28.6104 20.3974 28.7126C20.4798 28.8149 18.5984 30.4612 18.5984 30.4612C18.5492 30.5006 18.4862 30.519 18.4234 30.5122C18.3607 30.5054 18.3031 30.4739 18.2636 30.4247L17.581 29.576Z" fill="#0D4573"/>
<defs>
<radialGradient id="paint0_radial_1790_12193" cx="0" cy="0" r="1" gradientUnits="userSpaceOnUse" gradientTransform="translate(26.5 26.5) rotate(90) scale(26.5)">
<stop stop-color="white"/>
<stop offset="1" stop-color="#FA989E"/>
</radialGradient>
</defs>
</svg>
