<svg width="53" height="53" viewBox="0 0 53 53" fill="none" xmlns="http://www.w3.org/2000/svg">
<rect width="53" height="53" rx="26.5" fill="url(#paint0_radial_1780_12422)" fill-opacity="0.21"/>
<g clip-path="url(#clip0_1780_12422)">
<path d="M36.7447 30.0312H19.6346C19.1166 30.0312 18.6968 29.6114 18.6968 29.0935V22.5635H37.6826V29.0934C37.6826 29.6114 37.2627 30.0312 36.7447 30.0312Z" fill="#0A81F9"/>
<path d="M20.3674 15.0498C18.5016 15.0498 16.9891 17.062 16.9891 19.5443C16.9891 22.0265 18.5016 24.0388 20.3674 24.0388H37.6826V15.0498H20.3674Z" fill="#62B4FD"/>
<path d="M32.4251 15.0498C31.7978 16.3458 31.4332 17.8881 31.4332 19.5443V19.5621C31.4346 20.5028 30.6812 21.2697 29.7404 21.2697H17.5983C17.4772 21.2697 17.3578 21.2609 17.24 21.2443C17.744 22.8835 18.954 24.0388 20.3674 24.0388H37.6826V15.0498H32.4251Z" fill="#27A2FB"/>
<path d="M37.6825 24.0387C39.5483 24.0387 41.0608 22.0264 41.0608 19.5442C41.0608 17.062 39.5483 15.0498 37.6825 15.0498C35.8168 15.0498 34.3043 17.062 34.3043 19.5442C34.3043 22.0264 35.8168 24.0387 37.6825 24.0387Z" fill="#89C6FC"/>
<path d="M31.6948 36.9501H14.5846C14.0667 36.9501 13.6469 36.5303 13.6469 36.0123V29.4824H32.6326V36.0123C32.6326 36.5303 32.2127 36.9501 31.6948 36.9501Z" fill="#FA4954"/>
<path d="M30.0612 29.4824V33.4412C30.0612 33.959 29.6415 34.3787 29.1237 34.3787H13.6469V36.0127C13.6469 36.5304 14.0666 36.9501 14.5843 36.9501H31.6952C32.2129 36.9501 32.6326 36.5304 32.6326 36.0127V29.4824H30.0612Z" fill="#FA2A3B"/>
<path d="M15.3174 21.9688C13.4517 21.9688 11.9392 23.981 11.9392 26.4632C11.9392 28.9454 13.4517 30.9577 15.3174 30.9577H32.6326V21.9688H15.3174Z" fill="#FA989E"/>
<path d="M27.3753 21.9688C26.7479 23.2647 26.3833 24.8071 26.3833 26.4632V26.481C26.3848 27.4218 25.6314 28.1887 24.6906 28.1887H12.5484C12.4273 28.1887 12.3078 28.1798 12.1901 28.1633C12.694 29.8024 13.904 30.9577 15.3174 30.9577H32.6327V21.9688H27.3753Z" fill="#FB636F"/>
<path d="M32.6326 30.9576C34.4984 30.9576 36.0108 28.9454 36.0108 26.4632C36.0108 23.981 34.4984 21.9688 32.6326 21.9688C30.7669 21.9688 29.2544 23.981 29.2544 26.4632C29.2544 28.9454 30.7669 30.9576 32.6326 30.9576Z" fill="#FFC3C6"/>
<path d="M38.6744 15.2471C39.0239 15.9548 39.2279 16.8013 39.2279 17.7115C39.2279 20.1937 37.7155 22.206 35.8497 22.206C35.5046 22.206 35.1716 22.1367 34.8579 22.0087C35.4617 23.2311 36.5009 24.0388 37.6825 24.0388C39.5483 24.0388 41.0608 22.0265 41.0608 19.5443C41.0608 17.5213 40.0561 15.8109 38.6744 15.2471Z" fill="#62B4FD"/>
<path d="M37.6825 22.075C38.733 22.075 39.5847 20.942 39.5847 19.5443C39.5847 18.1467 38.733 17.0137 37.6825 17.0137C36.632 17.0137 35.7804 18.1467 35.7804 19.5443C35.7804 20.942 36.632 22.075 37.6825 22.075Z" fill="#62B4FD"/>
<path d="M39.2174 18.0498C39.1175 19.8309 38.2384 21.3227 37.0314 21.9224C37.2345 22.0209 37.4538 22.0747 37.6826 22.0747C38.7331 22.0747 39.5847 20.9417 39.5847 19.5441C39.5847 18.9851 39.4481 18.4686 39.2174 18.0498Z" fill="#0A81F9"/>
<path d="M33.6244 22.166C33.974 22.8738 34.178 23.7202 34.178 24.6304C34.178 27.1126 32.6655 29.1249 30.7998 29.1249C30.4546 29.1249 30.1216 29.0556 29.808 28.9277C30.4117 30.1501 31.451 30.9577 32.6326 30.9577C34.4984 30.9577 36.0108 28.9455 36.0108 26.4632C36.0108 24.4402 35.0061 22.7298 33.6244 22.166Z" fill="#FA989E"/>
<path d="M32.6326 28.9939C33.6831 28.9939 34.5347 27.8609 34.5347 26.4633C34.5347 25.0656 33.6831 23.9326 32.6326 23.9326C31.5821 23.9326 30.7305 25.0656 30.7305 26.4633C30.7305 27.8609 31.5821 28.9939 32.6326 28.9939Z" fill="#FA989E"/>
<path d="M34.1675 24.9688C34.0676 26.7498 33.1885 28.2416 31.9814 28.8414C32.1846 28.9399 32.4039 28.9937 32.6327 28.9937C33.6832 28.9937 34.5348 27.8606 34.5348 26.4631C34.5347 25.904 34.3982 25.3875 34.1675 24.9688Z" fill="#FB636F"/>
<path d="M40.4225 16.1021C39.6994 15.1402 38.7263 14.6104 37.6826 14.6104H20.3673C19.3236 14.6104 18.3505 15.1401 17.6274 16.1021C16.9325 17.0266 16.5498 18.249 16.5498 19.5441C16.5498 20.2325 16.6596 20.9074 16.87 21.5291H15.3175C14.2737 21.5291 13.3006 22.0588 12.5776 23.0208C11.8827 23.9454 11.5 25.1678 11.5 26.4629C11.5 27.758 11.8827 28.9804 12.5776 29.9048C12.7707 30.1618 12.9822 30.3868 13.2076 30.5803V36.0122C13.2076 36.7714 13.8252 37.389 14.5843 37.389H31.6952C32.4544 37.389 33.072 36.7714 33.072 36.0122V35.7051C33.072 35.4625 32.8754 35.2658 32.6327 35.2658C32.3901 35.2658 32.1934 35.4625 32.1934 35.7051V36.0122C32.1934 36.287 31.97 36.5105 31.6952 36.5105H14.5843C14.3096 36.5105 14.0862 36.287 14.0862 36.0122V31.1365C14.4768 31.3068 14.891 31.3966 15.3175 31.3966H32.1934V33.8356C32.1934 34.0782 32.3901 34.2749 32.6327 34.2749C32.8754 34.2749 33.072 34.0782 33.072 33.8356V31.3637C33.7249 31.2687 34.338 30.9623 34.8651 30.4703H36.7451C37.5043 30.4703 38.1219 29.8526 38.1219 29.0935V24.445C38.9973 24.3176 39.8021 23.8116 40.4225 22.9862C41.1174 22.0617 41.5001 20.8392 41.5001 19.5442C41.5 18.249 41.1173 17.0266 40.4225 16.1021ZM32.6327 30.518H15.3175C13.697 30.518 12.3786 28.6989 12.3786 26.4629C12.3786 24.2268 13.697 22.4077 15.3175 22.4077H19.5121C19.7547 22.4077 19.9514 22.2111 19.9514 21.9684C19.9514 21.7258 19.7547 21.5292 19.5121 21.5292H17.8072C17.5589 20.9244 17.4285 20.244 17.4285 19.5442C17.4285 17.3081 18.7468 15.489 20.3673 15.489H35.5014C35.3027 15.6681 35.1153 15.8724 34.9427 16.1022C34.2477 17.0267 33.8651 18.2491 33.8651 19.5442C33.8651 20.4553 34.0552 21.3298 34.4095 22.0905C33.8694 21.7243 33.2642 21.5292 32.6327 21.5292H21.3571C21.1145 21.5292 20.9178 21.7258 20.9178 21.9684C20.9178 22.2111 21.1145 22.4077 21.3571 22.4077H30.4516C30.2528 22.5868 30.0655 22.7912 29.8928 23.0209C29.1979 23.9454 28.8152 25.1678 28.8152 26.4629C28.8152 27.5244 29.0704 28.535 29.5531 29.3855C29.6728 29.5965 29.9409 29.6705 30.152 29.5507C30.363 29.431 30.4369 29.1629 30.3171 28.9518C29.9094 28.2333 29.6938 27.3727 29.6938 26.4629C29.6938 24.2268 31.0122 22.4077 32.6328 22.4077C34.2533 22.4077 35.5717 24.2268 35.5717 26.4629C35.5717 28.6989 34.2532 30.518 32.6327 30.518ZM36.7451 29.5917H35.5878C36.1455 28.7125 36.4501 27.6168 36.4501 26.4629C36.4501 25.5518 36.26 24.6772 35.9057 23.9164C36.3191 24.1968 36.7707 24.3762 37.2432 24.445V29.0935C37.2433 29.3682 37.0198 29.5917 36.7451 29.5917ZM37.6826 23.5993C36.062 23.5993 34.7436 21.7802 34.7436 19.5442C34.7436 17.3081 36.062 15.489 37.6826 15.489C39.3031 15.489 40.6214 17.3081 40.6214 19.5442C40.6214 21.7802 39.3031 23.5993 37.6826 23.5993Z" fill="black"/>
<path d="M37.6826 16.5742C36.3915 16.5742 35.3412 17.9065 35.3412 19.5442C35.3412 21.1817 36.3915 22.514 37.6826 22.514C38.9736 22.514 40.024 21.1817 40.024 19.5442C40.024 17.9065 38.9736 16.5742 37.6826 16.5742ZM37.6826 21.6355C36.8896 21.6355 36.2197 20.6778 36.2197 19.5442C36.2197 18.4105 36.8896 17.4528 37.6826 17.4528C38.4755 17.4528 39.1454 18.4105 39.1454 19.5442C39.1454 20.6778 38.4755 21.6355 37.6826 21.6355Z" fill="black"/>
<path d="M37.6825 18.8584C37.3979 18.8584 37.1671 19.1654 37.1671 19.5441C37.1671 19.9228 37.3979 20.2297 37.6825 20.2297C37.9672 20.2297 38.1979 19.9228 38.1979 19.5441C38.1979 19.1654 37.9672 18.8584 37.6825 18.8584Z" fill="black"/>
<path d="M32.6327 23.4932C31.3416 23.4932 30.2913 24.8255 30.2913 26.463C30.2913 28.1007 31.3416 29.433 32.6327 29.433C33.9237 29.433 34.9741 28.1007 34.9741 26.463C34.9741 24.8255 33.9238 23.4932 32.6327 23.4932ZM32.6327 28.5544C31.8397 28.5544 31.1698 27.5967 31.1698 26.463C31.1698 25.3294 31.8397 24.3717 32.6327 24.3717C33.4256 24.3717 34.0955 25.3294 34.0955 26.463C34.0955 27.5967 33.4256 28.5544 32.6327 28.5544Z" fill="black"/>
<path d="M32.6327 25.7773C32.3481 25.7773 32.1173 26.0843 32.1173 26.463C32.1173 26.8417 32.3481 27.1487 32.6327 27.1487C32.9173 27.1487 33.1481 26.8417 33.1481 26.463C33.1481 26.0843 32.9173 25.7773 32.6327 25.7773Z" fill="black"/>
</g>
<defs>
<radialGradient id="paint0_radial_1780_12422" cx="0" cy="0" r="1" gradientUnits="userSpaceOnUse" gradientTransform="translate(26.5 26.5) rotate(90) scale(26.5)">
<stop stop-color="white"/>
<stop offset="1" stop-color="#FA989E"/>
</radialGradient>
<clipPath id="clip0_1780_12422">
<rect width="30" height="30" fill="white" transform="translate(11.5 11)"/>
</clipPath>
</defs>
</svg>
