<svg width="53" height="53" viewBox="0 0 53 53" fill="none" xmlns="http://www.w3.org/2000/svg">
<rect width="53" height="53" rx="26.5" fill="url(#paint0_radial_1790_12902)" fill-opacity="0.5"/>
<g clip-path="url(#clip0_1790_12902)">
<path d="M24 11.75L36.5 16.75L24 21.75L11.5 16.75L24 11.75Z" fill="#4CAF50"/>
<path d="M11.5 16.75L24 21.75V36.75L11.5 31.75V16.75Z" fill="#81C784"/>
<path d="M24 36.75L36.5 31.75V16.75L24 21.75V36.75Z" fill="#66BB6A"/>
<path d="M24 11.75L11.5 16.75L24 21.75V11.75Z" fill="#429846"/>
<path d="M11.5 16.75V31.75L24 36.75V21.75L11.5 16.75Z" fill="#70AD73"/>
<path d="M33.375 25.5C28.895 25.5 25.25 29.145 25.25 33.625C25.25 38.105 28.895 41.75 33.375 41.75C37.855 41.75 41.5 38.105 41.5 33.625C41.5 29.145 37.855 25.5 33.375 25.5Z" fill="#2196F3"/>
<path d="M36.885 35.815L34.0725 38.94C33.8938 39.1375 33.6413 39.25 33.375 39.25C33.1088 39.25 32.8563 39.1375 32.6775 38.94L29.865 35.815C29.3238 35.2138 29.7525 34.25 30.5625 34.25H32.125V29.25C32.125 28.5588 32.6838 28 33.375 28C34.0663 28 34.625 28.5588 34.625 29.25V34.25H36.1875C36.9975 34.25 37.4263 35.2138 36.885 35.815Z" fill="white"/>
<path d="M33.375 25.5C28.895 25.5 25.25 29.145 25.25 33.625C25.25 38.105 28.895 41.75 33.375 41.75V39.25C33.1087 39.25 32.8562 39.1375 32.6775 38.94L29.865 35.815C29.3238 35.2138 29.7525 34.25 30.5625 34.25H32.125V29.25C32.125 28.5588 32.6838 28 33.375 28V25.5Z" fill="#1D83D4"/>
<path d="M33.375 28C32.6838 28 32.125 28.5588 32.125 29.25V34.25H30.5625C29.7525 34.25 29.3238 35.2138 29.865 35.815L32.6775 38.94C32.8563 39.1375 33.1088 39.25 33.375 39.25V28Z" fill="#DEDEDE"/>
</g>
<g clip-path="url(#clip1_1790_12902)">
<path d="M20.25 15.3125H29.1875V23.4375H20.25V15.3125Z" fill="#E678A5"/>
<path d="M20.25 12.0625C19.6035 12.0625 18.9835 12.3193 18.5264 12.7764C18.0693 13.2335 17.8125 13.8535 17.8125 14.5V21H22.6875V14.5C22.6875 13.8535 22.4307 13.2335 21.9736 12.7764C21.5165 12.3193 20.8965 12.0625 20.25 12.0625Z" fill="#EFA9C5"/>
<path d="M20.25 23.4375C21.5962 23.4375 22.6875 22.3462 22.6875 21C22.6875 19.6538 21.5962 18.5625 20.25 18.5625C18.9038 18.5625 17.8125 19.6538 17.8125 21C17.8125 22.3462 18.9038 23.4375 20.25 23.4375Z" fill="#F093BE"/>
<path d="M20.25 22.625C21.1475 22.625 21.875 21.8975 21.875 21C21.875 20.1025 21.1475 19.375 20.25 19.375C19.3525 19.375 18.625 20.1025 18.625 21C18.625 21.8975 19.3525 22.625 20.25 22.625Z" fill="#EFA9C5"/>
<path d="M20.25 21.8125C20.6987 21.8125 21.0625 21.4487 21.0625 21C21.0625 20.5513 20.6987 20.1875 20.25 20.1875C19.8013 20.1875 19.4375 20.5513 19.4375 21C19.4375 21.4487 19.8013 21.8125 20.25 21.8125Z" fill="#F093BE"/>
<path d="M29.1875 15.1094H22.8906V14.5C22.8906 13.7997 22.6124 13.128 22.1172 12.6328C21.622 12.1376 20.9503 11.8594 20.25 11.8594C19.5497 11.8594 18.878 12.1376 18.3828 12.6328C17.8876 13.128 17.6094 13.7997 17.6094 14.5V21C17.6102 21.7001 17.8886 22.3713 18.3837 22.8663C18.8787 23.3614 19.5499 23.6398 20.25 23.6406H29.1875C29.2414 23.6406 29.293 23.6192 29.3311 23.5811C29.3692 23.543 29.3906 23.4914 29.3906 23.4375V15.3125C29.3906 15.2586 29.3692 15.207 29.3311 15.1689C29.293 15.1308 29.2414 15.1094 29.1875 15.1094ZM18.0156 14.5C18.0156 13.9074 18.251 13.3391 18.6701 12.9201C19.0891 12.501 19.6574 12.2656 20.25 12.2656C20.8426 12.2656 21.4109 12.501 21.8299 12.9201C22.249 13.3391 22.4844 13.9074 22.4844 14.5V19.5992C22.2478 19.2199 21.9186 18.907 21.5276 18.6901C21.1367 18.4732 20.6971 18.3594 20.25 18.3594C19.8029 18.3594 19.3633 18.4732 18.9724 18.6901C18.5814 18.907 18.2522 19.2199 18.0156 19.5992V14.5ZM18.0156 21C18.0156 20.5581 18.1467 20.1261 18.3922 19.7586C18.6377 19.3912 18.9867 19.1048 19.3949 18.9357C19.8032 18.7666 20.2525 18.7223 20.6859 18.8086C21.1193 18.8948 21.5175 19.1076 21.8299 19.4201C22.1424 19.7325 22.3552 20.1307 22.4414 20.5641C22.5277 20.9975 22.4834 21.4468 22.3143 21.8551C22.1452 22.2633 21.8588 22.6123 21.4914 22.8578C21.1239 23.1033 20.6919 23.2344 20.25 23.2344C19.6576 23.2337 19.0897 22.9981 18.6708 22.5792C18.2519 22.1603 18.0163 21.5924 18.0156 21ZM28.9844 23.2344H21.656C22.0338 22.9966 22.3453 22.667 22.5612 22.2762C22.7771 21.8855 22.8904 21.4464 22.8906 21V15.5156H28.9844V23.2344Z" fill="black"/>
<path d="M20.25 19.1719C19.8884 19.1719 19.535 19.2791 19.2343 19.48C18.9337 19.6808 18.6994 19.9664 18.561 20.3004C18.4227 20.6345 18.3865 21.002 18.457 21.3566C18.5275 21.7113 18.7017 22.037 18.9573 22.2927C19.213 22.5483 19.5387 22.7225 19.8934 22.793C20.248 22.8635 20.6155 22.8273 20.9496 22.689C21.2836 22.5506 21.5692 22.3163 21.77 22.0157C21.9709 21.715 22.0781 21.3616 22.0781 21C22.0776 20.5153 21.8848 20.0506 21.5421 19.7079C21.1994 19.3652 20.7347 19.1724 20.25 19.1719ZM20.25 22.4219C19.9688 22.4219 19.6939 22.3385 19.46 22.1822C19.2262 22.026 19.044 21.8039 18.9364 21.5441C18.8287 21.2843 18.8006 20.9984 18.8554 20.7226C18.9103 20.4468 19.0457 20.1934 19.2446 19.9946C19.4434 19.7957 19.6968 19.6603 19.9726 19.6054C20.2484 19.5506 20.5343 19.5787 20.7941 19.6864C21.0539 19.794 21.276 19.9762 21.4322 20.21C21.5885 20.4439 21.6719 20.7188 21.6719 21C21.6714 21.377 21.5215 21.7384 21.2549 22.0049C20.9884 22.2715 20.627 22.4214 20.25 22.4219Z" fill="black"/>
<path d="M20.25 19.9844C20.0491 19.9844 19.8528 20.0439 19.6857 20.1555C19.5187 20.2671 19.3886 20.4258 19.3117 20.6113C19.2348 20.7969 19.2147 21.0011 19.2539 21.1981C19.2931 21.3952 19.3898 21.5761 19.5318 21.7182C19.6739 21.8602 19.8549 21.9569 20.0519 21.9961C20.2489 22.0353 20.4531 22.0152 20.6387 21.9383C20.8242 21.8614 20.9829 21.7313 21.0945 21.5643C21.2061 21.3972 21.2656 21.2009 21.2656 21C21.2653 20.7307 21.1582 20.4726 20.9678 20.2822C20.7774 20.0918 20.5193 19.9847 20.25 19.9844ZM20.25 21.6094C20.1295 21.6094 20.0117 21.5736 19.9114 21.5067C19.8112 21.4397 19.7331 21.3445 19.687 21.2332C19.6409 21.1218 19.6288 20.9993 19.6523 20.8811C19.6758 20.7629 19.7339 20.6543 19.8191 20.5691C19.9043 20.4839 20.0129 20.4258 20.1311 20.4023C20.2493 20.3788 20.3718 20.3909 20.4832 20.437C20.5945 20.4831 20.6897 20.5612 20.7567 20.6614C20.8236 20.7617 20.8594 20.8795 20.8594 21C20.8592 21.1616 20.7949 21.3165 20.6807 21.4307C20.5665 21.5449 20.4116 21.6092 20.25 21.6094Z" fill="black"/>
</g>
<defs>
<radialGradient id="paint0_radial_1790_12902" cx="0" cy="0" r="1" gradientUnits="userSpaceOnUse" gradientTransform="translate(26.5 26.5) rotate(90) scale(26.5)">
<stop stop-color="white"/>
<stop offset="1" stop-color="#A6F1AA"/>
</radialGradient>
<clipPath id="clip0_1790_12902">
<rect width="30" height="30" fill="white" transform="translate(11.5 11.75)"/>
</clipPath>
<clipPath id="clip1_1790_12902">
<rect width="13" height="13" fill="white" transform="translate(17 11.25)"/>
</clipPath>
</defs>
</svg>
