<svg width="53" height="53" viewBox="0 0 53 53" fill="none" xmlns="http://www.w3.org/2000/svg">
<rect width="53" height="53" rx="26.5" fill="url(#paint0_radial_1680_9800)" fill-opacity="0.21"/>
<path fill-rule="evenodd" clip-rule="evenodd" d="M33.7838 33.0249H32.1472V18.5321H14.0741V33.0249H12.4375V16.916L23.1106 12.6846L33.7838 16.916V33.0249Z" fill="#837683"/>
<path fill-rule="evenodd" clip-rule="evenodd" d="M33.7838 33.0249H33.0287V17.1029L22.4975 12.9277L23.1107 12.6846L33.7838 16.916V33.0249ZM14.0742 18.5321V33.0249H13.3191V18.5321H14.0742Z" fill="#685E68"/>
<path fill-rule="evenodd" clip-rule="evenodd" d="M20.871 15.874H25.3502C25.5298 15.874 25.6768 16.021 25.6768 16.2006V16.8746C25.6768 17.0543 25.5298 17.2012 25.3502 17.2012H20.871C20.6914 17.2012 20.5444 17.0543 20.5444 16.8746V16.2006C20.5444 16.021 20.6914 15.874 20.871 15.874Z" fill="#6CF5C2"/>
<path fill-rule="evenodd" clip-rule="evenodd" d="M20.8711 15.874H21.0889V16.3302C21.0889 16.5099 21.2358 16.6568 21.4155 16.6568H25.6768V16.8746C25.6768 17.0543 25.5299 17.2012 25.3502 17.2012H20.871C20.6914 17.2012 20.5444 17.0543 20.5444 16.8746V16.2006C20.5445 16.021 20.6914 15.874 20.8711 15.874Z" fill="#00E499"/>
<path fill-rule="evenodd" clip-rule="evenodd" d="M24.1087 24.252H20.1697C20.0465 24.252 19.946 24.3524 19.946 24.4756V28.3458C19.946 28.5069 20.0774 28.6382 20.2385 28.6382H24.04C24.2011 28.6382 24.3324 28.5069 24.3324 28.3458V24.4756C24.3324 24.3524 24.2319 24.252 24.1087 24.252Z" fill="#E3A76F"/>
<path fill-rule="evenodd" clip-rule="evenodd" d="M24.1087 24.252H23.5541C23.6773 24.252 23.7778 24.3524 23.7778 24.4756V28.3458C23.7778 28.5069 23.6464 28.6382 23.4854 28.6382H24.0399C24.201 28.6382 24.3324 28.5069 24.3324 28.3458V24.4756C24.3324 24.3524 24.2319 24.252 24.1087 24.252Z" fill="#C48958"/>
<path fill-rule="evenodd" clip-rule="evenodd" d="M22.8735 24.252H21.4049V25.7433C21.4049 25.9076 21.5389 26.0416 21.7031 26.0416H22.5753C22.7396 26.0416 22.8735 25.9076 22.8735 25.7433V24.252Z" fill="#F2D1A5"/>
<path fill-rule="evenodd" clip-rule="evenodd" d="M22.8735 24.252H22.5439V25.7433C22.5439 25.9076 22.41 26.0416 22.2457 26.0416H22.5753C22.7396 26.0416 22.8735 25.9076 22.8735 25.7433V24.252Z" fill="#ECBA78"/>
<path fill-rule="evenodd" clip-rule="evenodd" d="M24.1087 29.2246H20.1697C20.0465 29.2246 19.946 29.3251 19.946 29.4483V33.3185C19.946 33.4796 20.0774 33.6109 20.2385 33.6109H24.04C24.2011 33.6109 24.3324 33.4795 24.3324 33.3185V29.4483C24.3324 29.325 24.2319 29.2246 24.1087 29.2246Z" fill="#E3A76F"/>
<path fill-rule="evenodd" clip-rule="evenodd" d="M24.1087 29.2246H23.5541C23.6773 29.2246 23.7778 29.3251 23.7778 29.4483V33.3185C23.7778 33.4796 23.6464 33.6109 23.4854 33.6109H24.0399C24.201 33.6109 24.3324 33.4795 24.3324 33.3185V29.4483C24.3324 29.325 24.2319 29.2246 24.1087 29.2246Z" fill="#C48958"/>
<path fill-rule="evenodd" clip-rule="evenodd" d="M22.8735 29.2246H21.4049V30.716C21.4049 30.8802 21.5389 31.0142 21.7031 31.0142H22.5753C22.7396 31.0142 22.8735 30.8803 22.8735 30.716V29.2246Z" fill="#F2D1A5"/>
<path fill-rule="evenodd" clip-rule="evenodd" d="M22.8735 29.2246H22.5439V30.716C22.5439 30.8802 22.41 31.0142 22.2457 31.0142H22.5753C22.7396 31.0142 22.8735 30.8803 22.8735 30.716V29.2246Z" fill="#ECBA78"/>
<path fill-rule="evenodd" clip-rule="evenodd" d="M19.1363 19.2803H15.1973C15.0741 19.2803 14.9736 19.3808 14.9736 19.5039V23.3742C14.9736 23.5352 15.105 23.6665 15.2661 23.6665H19.0675C19.2286 23.6665 19.36 23.5352 19.36 23.3742V19.5039C19.36 19.3808 19.2595 19.2803 19.1363 19.2803Z" fill="#E3A76F"/>
<path fill-rule="evenodd" clip-rule="evenodd" d="M19.1363 19.2803H18.5817C18.7049 19.2803 18.8054 19.3808 18.8054 19.5039V23.3742C18.8054 23.5352 18.674 23.6665 18.5129 23.6665H19.0675C19.2286 23.6665 19.36 23.5352 19.36 23.3742V19.5039C19.36 19.3808 19.2595 19.2803 19.1363 19.2803Z" fill="#C48958"/>
<path fill-rule="evenodd" clip-rule="evenodd" d="M17.9011 19.2803H16.4325V20.7717C16.4325 20.9359 16.5664 21.0699 16.7307 21.0699H17.6029C17.7671 21.0699 17.9011 20.936 17.9011 20.7717V19.2803Z" fill="#F2D1A5"/>
<path fill-rule="evenodd" clip-rule="evenodd" d="M17.9011 19.2803H17.5715V20.7717C17.5715 20.9359 17.4376 21.0699 17.2733 21.0699H17.6029C17.7671 21.0699 17.9011 20.936 17.9011 20.7717V19.2803Z" fill="#ECBA78"/>
<path fill-rule="evenodd" clip-rule="evenodd" d="M19.1363 24.252H15.1973C15.0741 24.252 14.9736 24.3524 14.9736 24.4756V28.3458C14.9736 28.5069 15.105 28.6382 15.2661 28.6382H19.0675C19.2286 28.6382 19.36 28.5069 19.36 28.3458V24.4756C19.36 24.3524 19.2595 24.252 19.1363 24.252Z" fill="#E3A76F"/>
<path fill-rule="evenodd" clip-rule="evenodd" d="M19.1363 24.252H18.5817C18.7049 24.252 18.8054 24.3524 18.8054 24.4756V28.3458C18.8054 28.5069 18.674 28.6382 18.5129 28.6382H19.0675C19.2286 28.6382 19.36 28.5069 19.36 28.3458V24.4756C19.36 24.3524 19.2595 24.252 19.1363 24.252Z" fill="#C48958"/>
<path fill-rule="evenodd" clip-rule="evenodd" d="M17.9011 24.252H16.4325V25.7433C16.4325 25.9076 16.5664 26.0416 16.7307 26.0416H17.6029C17.7671 26.0416 17.9011 25.9076 17.9011 25.7433V24.252Z" fill="#F2D1A5"/>
<path fill-rule="evenodd" clip-rule="evenodd" d="M17.9011 24.252H17.5715V25.7433C17.5715 25.9076 17.4376 26.0416 17.2733 26.0416H17.6029C17.7671 26.0416 17.9011 25.9076 17.9011 25.7433V24.252Z" fill="#ECBA78"/>
<path fill-rule="evenodd" clip-rule="evenodd" d="M19.1363 29.2246H15.1973C15.0741 29.2246 14.9736 29.3251 14.9736 29.4483V33.3185C14.9736 33.4796 15.105 33.6109 15.2661 33.6109H19.0675C19.2286 33.6109 19.36 33.4795 19.36 33.3185V29.4483C19.36 29.325 19.2595 29.2246 19.1363 29.2246Z" fill="#E3A76F"/>
<path fill-rule="evenodd" clip-rule="evenodd" d="M19.1363 29.2246H18.5817C18.7049 29.2246 18.8054 29.3251 18.8054 29.4483V33.3185C18.8054 33.4796 18.674 33.6109 18.5129 33.6109H19.0675C19.2286 33.6109 19.36 33.4795 19.36 33.3185V29.4483C19.36 29.325 19.2595 29.2246 19.1363 29.2246Z" fill="#C48958"/>
<path fill-rule="evenodd" clip-rule="evenodd" d="M17.9011 29.2246H16.4325V30.716C16.4325 30.8802 16.5664 31.0142 16.7307 31.0142H17.6029C17.7671 31.0142 17.9011 30.8803 17.9011 30.716V29.2246Z" fill="#F2D1A5"/>
<path fill-rule="evenodd" clip-rule="evenodd" d="M17.9011 29.2246H17.5715V30.716C17.5715 30.8802 17.4376 31.0142 17.2733 31.0142H17.6029C17.7671 31.0142 17.9011 30.8803 17.9011 30.716V29.2246Z" fill="#ECBA78"/>
<path fill-rule="evenodd" clip-rule="evenodd" d="M35.6727 21.6982C36.1519 21.6982 36.5427 22.0891 36.5427 22.5682V38.576C36.5427 39.0552 36.1519 39.446 35.6727 39.446H22.275C21.7958 39.446 21.405 39.0552 21.405 38.576V22.5682C21.405 22.0891 21.7958 21.6982 22.275 21.6982H35.6727Z" fill="#9FACBA"/>
<path fill-rule="evenodd" clip-rule="evenodd" d="M34.55 39.4459H35.6728C36.152 39.4459 36.5428 39.0551 36.5428 38.5759V22.5682C36.5428 22.0891 36.152 21.6982 35.6728 21.6982H34.55V39.4459Z" fill="#8D9CA8"/>
<path fill-rule="evenodd" clip-rule="evenodd" d="M34.9412 22.9082H23.0065C22.791 22.9082 22.6152 23.0839 22.6152 23.2994V37.8442C22.6152 38.0596 22.791 38.2354 23.0065 38.2354H34.9412C35.1567 38.2354 35.3325 38.0597 35.3325 37.8442V23.2994C35.3324 23.0839 35.1567 22.9082 34.9412 22.9082Z" fill="#ECEFF1"/>
<path fill-rule="evenodd" clip-rule="evenodd" d="M34.55 38.2354H34.9413C34.9536 38.2354 34.9658 38.2348 34.9778 38.2337C35.1762 38.2152 35.3325 38.0474 35.3325 37.8442V23.2994C35.3325 23.0963 35.1762 22.9285 34.9778 22.9099C34.9658 22.9088 34.9536 22.9082 34.9413 22.9082H34.55V38.2354Z" fill="#D1D1D6"/>
<path fill-rule="evenodd" clip-rule="evenodd" d="M26.0156 21.172H27.2556C27.4153 21.172 27.5518 21.0822 27.6149 20.9355C27.8415 20.4094 28.3646 20.041 28.9738 20.041C29.583 20.041 30.1061 20.4094 30.3326 20.9355C30.3958 21.0822 30.5323 21.172 30.6919 21.172H31.9319C32.1474 21.172 32.3232 21.3477 32.3232 21.5632V23.0428C32.3232 23.2582 32.1475 23.434 31.9319 23.434H26.0156C25.8002 23.434 25.6244 23.2583 25.6244 23.0428V21.5632C25.6244 21.3477 25.8001 21.172 26.0156 21.172Z" fill="#E3A76F"/>
<path fill-rule="evenodd" clip-rule="evenodd" d="M31.5408 23.0426L25.6244 23.0427C25.6244 23.2581 25.8001 23.4339 26.0156 23.4339H31.9321C32.1475 23.4339 32.3233 23.2582 32.3233 23.0427V22.908V21.6978V21.5631C32.3233 21.3477 32.1476 21.1719 31.9321 21.1719V21.6978V22.6514C31.9321 22.7495 31.8957 22.8392 31.8358 22.908C31.7639 22.9904 31.6583 23.0426 31.5408 23.0426Z" fill="#C48958"/>
<path fill-rule="evenodd" clip-rule="evenodd" d="M28.9739 21.7035C29.2217 21.7035 29.4238 21.5014 29.4238 21.2536C29.4238 21.0058 29.2217 20.8037 28.9739 20.8037C28.7261 20.8037 28.524 21.0058 28.524 21.2536C28.524 21.5014 28.7261 21.7035 28.9739 21.7035Z" fill="#ECEFF1"/>
<path fill-rule="evenodd" clip-rule="evenodd" d="M29.1965 26.3184C28.9377 26.3184 28.7278 26.1085 28.7278 25.8496C28.7278 25.5907 28.9377 25.3809 29.1965 25.3809H33.2845C33.5434 25.3809 33.7533 25.5907 33.7533 25.8496C33.7533 26.1085 33.5434 26.3184 33.2845 26.3184H29.1965ZM29.1965 34.5482C28.9377 34.5482 28.7278 34.3383 28.7278 34.0795C28.7278 33.8206 28.9377 33.6107 29.1965 33.6107H33.2845C33.5434 33.6107 33.7533 33.8206 33.7533 34.0795C33.7533 34.3383 33.5434 34.5482 33.2845 34.5482H29.1965ZM29.1965 36.288C28.9377 36.288 28.7278 36.0781 28.7278 35.8192C28.7278 35.5604 28.9377 35.3505 29.1965 35.3505H33.2845C33.5434 35.3505 33.7533 35.5604 33.7533 35.8192C33.7533 36.0781 33.5434 36.288 33.2845 36.288H29.1965ZM29.1965 30.4333C28.9377 30.4333 28.7278 30.2234 28.7278 29.9645C28.7278 29.7057 28.9377 29.4958 29.1965 29.4958H33.2845C33.5434 29.4958 33.7533 29.7057 33.7533 29.9645C33.7533 30.2234 33.5434 30.4333 33.2845 30.4333H29.1965ZM29.1965 32.173C28.9377 32.173 28.7278 31.9632 28.7278 31.7043C28.7278 31.4454 28.9377 31.2355 29.1965 31.2355H33.2845C33.5434 31.2355 33.7533 31.4454 33.7533 31.7043C33.7533 31.9632 33.5434 32.173 33.2845 32.173H29.1965ZM29.1965 28.0581C28.9377 28.0581 28.7278 27.8482 28.7278 27.5894C28.7278 27.3305 28.9377 27.1206 29.1965 27.1206H33.2845C33.5434 27.1206 33.7533 27.3305 33.7533 27.5894C33.7533 27.8482 33.5434 28.0581 33.2845 28.0581H29.1965Z" fill="#A79BA7"/>
<path fill-rule="evenodd" clip-rule="evenodd" d="M25.1473 33.7314H26.6143C26.8806 33.7314 27.0984 33.9493 27.0984 34.2155V35.6826C27.0984 35.9488 26.8806 36.1667 26.6143 36.1667H25.1473C24.8811 36.1667 24.6632 35.9488 24.6632 35.6826V34.2155C24.6633 33.9493 24.8811 33.7314 25.1473 33.7314Z" fill="#FFE177"/>
<path fill-rule="evenodd" clip-rule="evenodd" d="M26.0931 33.7314H26.6143C26.8806 33.7314 27.0984 33.9493 27.0984 34.2155V35.6826C27.0984 35.9489 26.8805 36.1667 26.6143 36.1667H26.0931C26.3594 36.1667 26.5772 35.9488 26.5772 35.6826V34.2155C26.5772 33.9493 26.3594 33.7314 26.0931 33.7314Z" fill="#FFD064"/>
<path fill-rule="evenodd" clip-rule="evenodd" d="M25.1473 29.6162H26.6143C26.8806 29.6162 27.0984 29.8341 27.0984 30.1003V31.5673C27.0984 31.8336 26.8806 32.0514 26.6143 32.0514H25.1473C24.8811 32.0514 24.6632 31.8336 24.6632 31.5673V30.1003C24.6633 29.8341 24.8811 29.6162 25.1473 29.6162Z" fill="#6CF5C2"/>
<path fill-rule="evenodd" clip-rule="evenodd" d="M26.0931 29.6162H26.6143C26.8806 29.6162 27.0984 29.8341 27.0984 30.1003V31.5673C27.0984 31.8336 26.8805 32.0514 26.6143 32.0514H26.0931C26.3594 32.0514 26.5772 31.8336 26.5772 31.5673V30.1003C26.5772 29.8341 26.3594 29.6162 26.0931 29.6162Z" fill="#00E499"/>
<path fill-rule="evenodd" clip-rule="evenodd" d="M25.1473 25.502H26.6143C26.8806 25.502 27.0984 25.7198 27.0984 25.9861V27.4531C27.0984 27.7193 26.8806 27.9372 26.6143 27.9372H25.1473C24.8811 27.9372 24.6632 27.7193 24.6632 27.4531V25.9861C24.6633 25.7197 24.8811 25.502 25.1473 25.502Z" fill="#8AC9FE"/>
<path fill-rule="evenodd" clip-rule="evenodd" d="M26.0931 25.502H26.6143C26.8806 25.502 27.0984 25.7198 27.0984 25.9861V27.4531C27.0984 27.7194 26.8805 27.9372 26.6143 27.9372H26.0931C26.3594 27.9372 26.5772 27.7194 26.5772 27.4531V25.9861C26.5772 25.7197 26.3594 25.502 26.0931 25.502Z" fill="#60B7FF"/>
<path fill-rule="evenodd" clip-rule="evenodd" d="M35.3565 34.3818C35.1269 34.7094 34.8567 35.0066 34.5533 35.2661L36.7374 37.407L37.5689 36.5502L35.3565 34.3818Z" fill="#A79BA7"/>
<path fill-rule="evenodd" clip-rule="evenodd" d="M35.3714 34.3672C35.3284 34.508 35.2484 34.6151 35.1337 34.686L37.3033 36.8414L37.569 36.5502L35.3714 34.3672Z" fill="#837683"/>
<path fill-rule="evenodd" clip-rule="evenodd" d="M39.5031 40.1853L40.4415 39.2182C40.6063 39.0483 40.6021 38.7746 40.4323 38.6098L37.8333 36.0878C37.6635 35.9229 37.3896 35.9271 37.2248 36.0969L36.2865 37.064C36.1217 37.2338 36.1258 37.5077 36.2956 37.6724L38.8947 40.1945C39.0645 40.3592 39.3383 40.3551 39.5031 40.1853Z" fill="#F1BA84"/>
<path fill-rule="evenodd" clip-rule="evenodd" d="M37.4488 36.0877L40.0479 38.6098C40.2177 38.7746 40.2218 39.0483 40.057 39.2181L39.1186 40.1852C39.0839 40.221 39.0445 40.2494 39.0021 40.2704C39.1653 40.3515 39.3698 40.3226 39.5031 40.1853L40.4415 39.2182C40.6063 39.0483 40.6021 38.7746 40.4324 38.6098L37.8333 36.0878C37.6993 35.9576 37.5003 35.9328 37.3414 36.0117C37.38 36.0309 37.4163 36.0562 37.4488 36.0877Z" fill="#E3A76F"/>
<path d="M35.1517 35.3452C36.9997 33.4971 36.9997 30.5009 35.1517 28.6529C33.3036 26.8049 30.3074 26.8049 28.4594 28.6529C26.6114 30.5009 26.6114 33.4971 28.4594 35.3451C30.3074 37.1932 33.3036 37.1932 35.1517 35.3452Z" fill="#8AC9FE"/>
<path fill-rule="evenodd" clip-rule="evenodd" d="M31.8099 27.2656C34.4238 27.2656 36.5428 29.3846 36.5428 31.9985C36.5428 34.6123 34.4238 36.7313 31.8099 36.7313C31.7329 36.7313 31.6563 36.7293 31.5802 36.7257C34.0874 36.6058 36.0833 34.5353 36.0833 31.9985C36.0833 29.4616 34.0874 27.3911 31.5802 27.2712C31.6564 27.2676 31.733 27.2656 31.8099 27.2656Z" fill="#60B7FF"/>
<path d="M35.0647 32.9903C35.609 31.1941 34.5942 29.2967 32.798 28.7524C31.0018 28.2081 29.1044 29.223 28.5601 31.0192C28.0158 32.8154 29.0307 34.7127 30.8269 35.257C32.6231 35.8013 34.5204 34.7865 35.0647 32.9903Z" fill="#ECEFF1"/>
<path fill-rule="evenodd" clip-rule="evenodd" d="M31.8099 28.6006C31.8871 28.6006 31.9637 28.6034 32.0396 28.6085C30.2699 28.7267 28.8709 30.1994 28.8709 31.9991C28.8709 33.7988 30.2699 35.2715 32.0396 35.3896C31.9637 35.3946 31.8871 35.3975 31.8099 35.3975C29.9329 35.3975 28.4114 33.876 28.4114 31.9991C28.4114 30.1221 29.9329 28.6006 31.8099 28.6006Z" fill="#D1D1D6"/>
<defs>
<radialGradient id="paint0_radial_1680_9800" cx="0" cy="0" r="1" gradientUnits="userSpaceOnUse" gradientTransform="translate(26.5 26.5) rotate(90) scale(26.5)">
<stop stop-color="white"/>
<stop offset="1" stop-color="#00ACFF"/>
</radialGradient>
</defs>
</svg>
