<svg width="53" height="53" viewBox="0 0 53 53" fill="none" xmlns="http://www.w3.org/2000/svg">
<rect width="53" height="53" rx="26.5" fill="url(#paint0_radial_1780_12664)" fill-opacity="0.21"/>
<path d="M31.8329 15.6712V30.6712C31.833 31.4373 31.6822 32.1959 31.3891 32.9037C31.096 33.6114 30.6663 34.2545 30.1246 34.7962C29.5829 35.3379 28.9398 35.7676 28.232 36.0607C27.5242 36.3538 26.7657 36.5047 25.9996 36.5046L24.7496 32.7546L23.4996 36.5046C21.9878 36.5047 20.535 35.9177 19.4475 34.8675C18.3601 33.8172 17.7229 32.3858 17.6704 30.8749C17.6673 30.8072 17.6663 30.7395 17.6663 30.6712V15.6712L20.9996 14.4212L21.8329 12.3379H27.6663L28.4996 14.4212L31.6772 15.6129L31.8329 15.6712Z" fill="#3086CD"/>
<path d="M31.8329 15.6716V30.6716C31.833 31.4377 31.6822 32.1963 31.3891 32.9041C31.0959 33.6118 30.6663 34.2549 30.1246 34.7966C29.5829 35.3383 28.9398 35.768 28.232 36.0611C27.5242 36.3542 26.7656 36.505 25.9996 36.5049L24.7496 32.7549L23.4996 36.5049C21.9878 36.5051 20.535 35.9181 19.4475 34.8679C18.3601 33.8176 17.7229 32.3862 17.6704 30.8753C22.9605 28.5326 28.2256 23.8685 31.6772 15.6133L31.8329 15.6716Z" fill="#2D7DBF"/>
<path d="M27.6663 12.3379L24.7497 16.5046L21.833 12.3379H27.6663Z" fill="#3086CD"/>
<path d="M26.2079 14.4209L24.7496 16.5042L23.2913 14.4209H26.2079Z" fill="#2D7DBF"/>
<path d="M20.9996 14.4212L21.833 12.3379L24.7496 16.5046L22.6663 18.1712L20.9996 14.4212Z" fill="#348FD9"/>
<path d="M28.4996 14.4212L27.6663 12.3379L24.7496 16.5046L26.833 18.1712L28.4996 14.4212Z" fill="#348FD9"/>
<path d="M17.6663 15.6709L15.4147 16.7967C15.2534 16.8773 15.1227 17.0081 15.042 17.1693L12.7542 21.745C12.6964 21.8607 12.6662 21.9883 12.6663 22.1176V28.8075C12.6662 28.9369 12.6964 29.0645 12.7542 29.1802L16.4163 36.5042L18.9163 34.8376L17.6663 29.4209V15.6709Z" fill="#2D7DBF"/>
<path d="M31.833 15.6709L34.3033 16.7296C34.4388 16.7877 34.5565 16.8806 34.6443 16.999C34.7322 17.1174 34.787 17.257 34.8033 17.4036L36.833 35.6709L33.9163 36.5042L31.833 26.5042V15.6709Z" fill="#2D7DBF"/>
<path d="M30.1663 24.4206L28.4997 25.2539L26.833 24.4206V21.5039H30.1663V24.4206Z" fill="#348FD9"/>
<path d="M37.2471 35.6249L35.2173 17.3576C35.1927 17.1378 35.1103 16.9286 34.9786 16.751C34.8469 16.5734 34.6705 16.4339 34.4673 16.3466L31.9971 15.2879C31.9911 15.2854 31.985 15.2837 31.9789 15.2815L31.9793 15.2807L28.8182 14.0954L28.0532 12.1828C28.0253 12.1131 27.979 12.0522 27.9194 12.0065C27.8597 11.9609 27.7888 11.9323 27.7142 11.9237C27.6983 11.922 27.6823 11.9212 27.6663 11.9214V11.9209H21.833V11.9214C21.817 11.9212 21.801 11.922 21.7851 11.9237C21.7105 11.9323 21.6396 11.9609 21.5799 12.0065C21.5202 12.0522 21.474 12.1131 21.4461 12.1828L20.6128 14.2662C20.5921 14.3178 20.582 14.3731 20.583 14.4288C20.5841 14.4844 20.5962 14.5393 20.6188 14.5901L22.2855 18.3401C22.3114 18.3984 22.3503 18.4499 22.3992 18.4908C22.4481 18.5316 22.5057 18.5607 22.5677 18.5758C22.6296 18.5909 22.6941 18.5916 22.7564 18.5778C22.8186 18.564 22.8768 18.5362 22.9266 18.4964L24.3329 17.3714V32.6865L23.2019 36.0793C22.3986 36.0342 21.6154 35.8111 20.9088 35.4261C20.2023 35.0412 19.5902 34.5041 19.1167 33.8536L18.083 29.3735V15.9596L20.0348 15.2277L19.7422 14.4474L17.52 15.2807C17.5065 15.2862 17.4933 15.2924 17.4804 15.2992L17.4799 15.2982L15.2284 16.424C14.9868 16.5454 14.7908 16.7415 14.6694 16.983L12.3816 21.5585C12.295 21.7322 12.2499 21.9236 12.2496 22.1176V28.8075C12.2499 29.0015 12.295 29.1929 12.3816 29.3665L16.0436 36.6906C16.0701 36.7434 16.1074 36.79 16.1532 36.8273C16.1991 36.8646 16.2523 36.8918 16.3094 36.9069C16.3665 36.9221 16.4262 36.9249 16.4844 36.9153C16.5427 36.9056 16.5983 36.8837 16.6474 36.8509L19.1474 35.1842C19.1534 35.1803 19.1584 35.1754 19.1641 35.1712C20.3291 36.2924 21.8827 36.9194 23.4996 36.9209C23.5871 36.9209 23.6723 36.8934 23.7433 36.8423C23.8142 36.7911 23.8673 36.719 23.8949 36.636L24.7496 34.0719L25.6043 36.6361C25.632 36.7191 25.6851 36.7912 25.756 36.8423C25.827 36.8934 25.9122 36.9209 25.9996 36.9209C26.8204 36.921 27.6332 36.7594 28.3915 36.4453C29.1498 36.1313 29.8389 35.6709 30.4192 35.0905C30.9996 34.5101 31.46 33.8211 31.7741 33.0628C32.0881 32.3045 32.2497 31.4917 32.2496 30.6709V30.5473L33.5084 36.5892C33.5201 36.6453 33.5432 36.6984 33.5763 36.7451C33.6094 36.7918 33.6518 36.8312 33.7008 36.8609C33.7498 36.8905 33.8044 36.9097 33.8612 36.9172C33.918 36.9248 33.9757 36.9206 34.0308 36.9049L36.9474 36.0715C37.0421 36.0445 37.1241 35.9848 37.179 35.903C37.2338 35.8213 37.2579 35.7228 37.2471 35.6249ZM16.5778 35.8957L13.1269 28.9938C13.0981 28.9359 13.083 28.8722 13.083 28.8075V22.1176C13.083 22.0529 13.0981 21.9892 13.127 21.9313L15.4148 17.3556C15.4553 17.2751 15.5206 17.2098 15.6011 17.1693L17.2496 16.3451V26.6501L16.3979 23.8817L15.6014 24.1268L17.2637 29.5294L17.9693 32.5867L16.202 33.6469L16.6307 34.3615L18.1663 33.4402L18.4456 34.6506L16.5778 35.8957ZM28.0474 14.4124L26.6715 17.5081L25.315 16.423L27.5657 13.2079L28.0474 14.4124ZM24.7496 15.7777L24.0916 14.8376H25.4077L24.7496 15.7777ZM25.991 14.0042H23.5082L22.6332 12.7542H26.866L25.991 14.0042ZM22.8278 17.5081L21.4518 14.4124L21.9336 13.2079L24.1842 16.423L22.8278 17.5081ZM31.4163 30.6709C31.4165 32.056 30.8859 33.3886 29.9338 34.3946C28.9817 35.4006 27.6803 36.0036 26.2973 36.0796L25.1663 32.6865V17.3712L26.5725 18.4962C26.6223 18.536 26.6806 18.5639 26.7428 18.5777C26.805 18.5914 26.8696 18.5908 26.9315 18.5757C26.9934 18.5606 27.0511 18.5315 27.1 18.4906C27.1489 18.4498 27.1878 18.3982 27.2136 18.34L28.7208 14.9487L31.4163 15.9596V30.6709ZM34.2328 35.9805L32.2496 26.4613V16.3028L34.1392 17.1126C34.2069 17.1417 34.2657 17.1882 34.3096 17.2473C34.3535 17.3065 34.381 17.3763 34.3892 17.4495L36.1872 33.6318L34.6486 34.0165L34.8507 34.825L36.2801 34.4676L36.38 35.3668L34.2328 35.9805Z" fill="black"/>
<path d="M30.1663 21.0879H26.8329C26.7224 21.0879 26.6164 21.1318 26.5383 21.2099C26.4602 21.2881 26.4163 21.3941 26.4163 21.5046V24.4212C26.4163 24.4986 26.4378 24.5744 26.4785 24.6403C26.5192 24.7061 26.5774 24.7593 26.6466 24.7939L28.3132 25.6272C28.3711 25.6561 28.4349 25.6712 28.4996 25.6712C28.5643 25.6712 28.6281 25.6561 28.6859 25.6272L30.3526 24.7939C30.4218 24.7593 30.48 24.7061 30.5207 24.6403C30.5614 24.5744 30.5829 24.4986 30.5829 24.4212V21.5046C30.5829 21.3941 30.539 21.2881 30.4609 21.2099C30.3827 21.1318 30.2768 21.0879 30.1663 21.0879ZM29.7496 24.1637L28.4996 24.7887L27.2496 24.1637V21.9212H29.7496V24.1637Z" fill="black"/>
<path d="M22.6663 19.4209H23.4996V20.2542H22.6663V19.4209Z" fill="black"/>
<path d="M22.6663 23.5879H23.4996V24.4212H22.6663V23.5879Z" fill="black"/>
<path d="M22.6663 27.7539H23.4996V28.5872H22.6663V27.7539Z" fill="black"/>
<path d="M22.6663 31.9209H23.4996V32.7542H22.6663V31.9209Z" fill="black"/>
<path d="M36.8892 25.3025C36.8892 25.3025 36.5856 23.9973 35.7733 23.7242C34.961 23.4511 34.074 23.1527 33.5523 22.8086H27.9474C27.4257 23.1527 26.5387 23.4511 25.7264 23.7242C24.9949 23.9701 24.4316 24.5604 24.2199 25.3025C24.05 25.8977 22.1611 32.5171 21.42 35.1141L22.8629 36.3577L25.9329 29.782V37.6311C26.1998 38.6475 29.231 40.3956 30.7499 40.3956C32.902 40.3956 35.1762 38.4131 35.1762 38.1837C35.1762 38.1634 35.1762 31.1308 35.1762 28.6306L37.6144 35.8176L39.5821 36.1083L36.8892 25.3025Z" fill="#EAACDE"/>
<path d="M35.9134 25.2278C35.7051 25.6944 35.5672 26.5789 35.5672 27.7634C35.5672 27.7634 35.5669 38.1469 35.5669 38.1953C35.5669 38.6478 33.2712 40.7866 30.7499 40.7866C28.2287 40.7866 25.933 38.6478 25.933 38.1953C25.933 38.1729 25.933 37.8719 25.933 37.6314C26.4926 38.3481 28.8281 40.0053 30.7499 40.0053C32.6717 40.0053 34.7856 38.2572 34.7856 38.0278C34.7856 38.0032 34.7856 29.939 34.7856 29.7774C34.7856 28.0312 34.901 26.7763 35.6459 25.1083C35.6789 25.0344 35.7655 25.0012 35.8394 25.0343C35.9133 25.0673 35.9464 25.1539 35.9134 25.2278Z" fill="#DA8BC1"/>
<path d="M37.2799 25.3029C37.0682 24.5608 36.5049 23.9705 35.7734 23.7246C36.0882 24.039 36.3418 24.7529 36.4987 25.3029L39.5822 36.1088L40.0798 35.1146L37.2799 25.3029Z" fill="#DA8BC1"/>
<path d="M22.863 36.358L23.8854 35.8179L25.933 29.7823V27.7634C25.933 27.6134 25.9308 27.4682 25.9265 27.3281L22.863 36.358Z" fill="#DA8BC1"/>
<path d="M37.6146 35.8176L37.9725 36.8724L40.1555 36.5941L39.3574 35.3203L37.6146 35.8176Z" fill="#DA8BC1"/>
<path d="M40.4344 36.3569L40.0798 35.1143L39.3574 35.3204L39.5823 36.1084C39.6267 36.264 39.5365 36.4262 39.3809 36.4705L37.9724 36.8725L38.0395 37.0702C38.1399 37.3661 38.4547 37.5311 38.7551 37.4454L40.0317 37.0811C40.3429 36.9923 40.5232 36.668 40.4344 36.3569Z" fill="#D273B3"/>
<path d="M21.1244 36.1513L23.0349 37.0878L23.1205 35.5994L21.4203 35.1143C21.2374 35.7551 21.1244 36.1513 21.1244 36.1513Z" fill="#DA8BC1"/>
<path d="M22.8632 36.357C22.813 36.5049 22.6556 36.5875 22.5054 36.5446L21.1244 36.1505L21.0657 36.3561C20.9769 36.6673 21.1572 36.9915 21.4684 37.0803L22.7449 37.4446C23.0454 37.5304 23.3602 37.3653 23.4606 37.0694L23.8855 35.817L23.1205 35.5986L22.8632 36.357Z" fill="#D273B3"/>
<path d="M33.1521 22.4115L32.7313 21.9834H28.2394C28.0175 22.6283 27.9576 22.8021 27.9576 22.8021C27.747 23.4663 28.1889 24.3619 28.9311 25.2164L30.7502 23.9461L31.5958 25.162C33.1177 24.1239 33.3907 23.1635 33.1521 22.4115Z" fill="#DA8BC1"/>
<path d="M28.931 25.2161C29.0234 25.3224 29.1201 25.4281 29.2211 25.5326C29.3492 25.6652 29.5669 25.6472 29.6722 25.4958L30.7501 23.9457L30.2561 23.3105L28.931 25.2161Z" fill="#D273B3"/>
<path d="M33.5425 22.8021C33.5425 22.8021 33.4826 22.6283 33.2607 21.9834H32.731C32.844 22.3117 32.8784 22.4115 32.8784 22.4115C33.1169 23.1635 32.5189 24.2122 31.5955 25.162L31.8278 25.4962C31.9331 25.6475 32.1508 25.6655 32.2789 25.5329C33.1915 24.5884 33.7794 23.5489 33.5425 22.8021Z" fill="#D273B3"/>
<path d="M32.7678 21.626C32.3221 21.4668 31.6111 21.3721 30.7501 21.3721C29.7317 21.3721 28.9233 21.5046 28.5156 21.7197C28.5156 22.4441 30.7501 23.5161 30.7501 23.5161C30.7501 23.5161 33.5203 22.4441 32.7678 21.626Z" fill="#DA8BC1"/>
<path d="M33.2608 21.9831C33.2131 21.8445 33.0398 21.7232 32.7677 21.626C32.7314 22.2648 30.75 23.1254 30.75 23.1254C30.75 23.1254 29.178 22.3673 28.5155 21.7197C28.368 21.7975 28.2725 21.886 28.2391 21.9831C28.0172 22.628 30.75 23.9457 30.75 23.9457C30.75 23.9457 33.4827 22.628 33.2608 21.9831Z" fill="#D273B3"/>
<path d="M30.7502 41.0791C29.2281 41.0791 27.8938 40.3429 27.234 39.9041C26.4664 39.3937 25.6403 38.6411 25.6403 38.1949V37.5543C25.6403 37.3924 25.7714 37.2613 25.9332 37.2613C26.095 37.2613 26.2262 37.3924 26.2262 37.5543V38.1775C26.2783 38.3284 26.7408 38.8899 27.6463 39.4738C28.2367 39.8545 29.425 40.4932 30.7502 40.4932C32.0753 40.4932 33.2636 39.8545 33.854 39.4738C34.7595 38.8899 35.222 38.3285 35.2742 38.1775V34.2382C35.2742 34.0764 35.4053 33.9452 35.5671 33.9452C35.7289 33.9452 35.8601 34.0764 35.8601 34.2382V38.1949C35.8601 38.2693 35.8601 38.4959 35.3799 38.994C35.0862 39.2987 34.6908 39.6219 34.2663 39.9041C33.6065 40.343 32.2723 41.0791 30.7502 41.0791ZM30.7502 38.4708C30.5779 38.4708 30.4377 38.3306 30.4377 38.1583C30.4377 37.986 30.5779 37.8458 30.7502 37.8458C30.9225 37.8458 31.0627 37.986 31.0627 38.1583C31.0627 38.3306 30.9225 38.4708 30.7502 38.4708ZM22.9067 37.7609C22.8267 37.7609 22.7453 37.75 22.6646 37.7269L21.388 37.3626C21.1623 37.2982 20.9751 37.1498 20.861 36.9446C20.7469 36.7394 20.7196 36.5021 20.784 36.2763L23.6292 26.3057C23.6736 26.1502 23.8358 26.06 23.9913 26.1044C24.1469 26.1488 24.2371 26.3109 24.1927 26.4665L21.7825 34.9127L23.6978 35.4593L25.6403 29.7335V27.763C25.6403 26.6844 25.5233 25.8038 25.3192 25.3469C25.2533 25.1991 25.3195 25.0259 25.4673 24.9599C25.615 24.8938 25.7883 24.9602 25.8542 25.1079C26.0941 25.645 26.2262 26.588 26.2262 27.763V29.775C26.2263 29.7795 26.2263 29.7841 26.2262 29.7887V36.3824C26.2262 36.5443 26.095 36.6754 25.9332 36.6754C25.7714 36.6754 25.6403 36.5443 25.6403 36.3824V31.5573L23.7381 37.1641C23.6144 37.529 23.2742 37.7609 22.9067 37.7609ZM21.6217 35.4762L21.3475 36.4371C21.326 36.5123 21.3351 36.5914 21.3731 36.6598C21.4111 36.7282 21.4735 36.7777 21.5488 36.7992L22.8254 37.1635C22.9759 37.2064 23.133 37.1239 23.1832 36.9759L23.5093 36.0148L21.6217 35.4762ZM38.5937 37.7609C38.2261 37.7609 37.886 37.529 37.7622 37.1641L35.8601 31.5573V33.1908C35.8601 33.3527 35.7289 33.4838 35.5671 33.4838C35.4053 33.4838 35.2742 33.3527 35.2742 33.1908V29.7886C35.274 29.7841 35.274 29.7795 35.2742 29.775V27.763C35.2742 26.5879 35.4063 25.645 35.6461 25.1079C35.7121 24.9602 35.8854 24.8938 36.0331 24.9599C36.1808 25.0258 36.2471 25.1991 36.1811 25.3468C35.9771 25.8037 35.8601 26.6843 35.8601 27.763V29.7335L37.8026 35.4593L39.7178 34.9127L36.9984 25.3828C36.8131 24.7333 36.3203 24.217 35.6803 24.0018C35.5269 23.9502 35.4444 23.7841 35.496 23.6307C35.5476 23.4773 35.7137 23.3948 35.867 23.4464C36.69 23.7231 37.3236 24.3869 37.5619 25.222L40.7163 36.2763C40.7807 36.502 40.7534 36.7393 40.6393 36.9445C40.5253 37.1497 40.3381 37.2982 40.1123 37.3625L38.8358 37.7268C38.7551 37.75 38.6737 37.7609 38.5937 37.7609ZM37.9911 36.0148L38.3172 36.9759C38.3674 37.124 38.5246 37.2064 38.675 37.1635L39.9516 36.7992C40.0269 36.7777 40.0892 36.7283 40.1272 36.6599C40.1653 36.5915 40.1744 36.5124 40.1529 36.4371L39.8787 35.4762L37.9911 36.0148ZM30.7502 35.5411C30.5779 35.5411 30.4377 35.4009 30.4377 35.2286C30.4377 35.0563 30.5779 34.9161 30.7502 34.9161C30.9225 34.9161 31.0627 35.0563 31.0627 35.2286C31.0627 35.4009 30.9225 35.5411 30.7502 35.5411ZM30.7502 32.6114C30.5779 32.6114 30.4377 32.4712 30.4377 32.2989C30.4377 32.1266 30.5779 31.9864 30.7502 31.9864C30.9225 31.9864 31.0627 32.1266 31.0627 32.2989C31.0627 32.4712 30.9225 32.6114 30.7502 32.6114ZM30.7502 29.6817C30.5779 29.6817 30.4377 29.5415 30.4377 29.3692C30.4377 29.1969 30.5779 29.0567 30.7502 29.0567C30.9225 29.0567 31.0627 29.1969 31.0627 29.3692C31.0627 29.5415 30.9225 29.6817 30.7502 29.6817ZM30.7502 26.752C30.5779 26.752 30.4377 26.6118 30.4377 26.4395C30.4377 26.2672 30.5779 26.127 30.7502 26.127C30.9225 26.127 31.0627 26.2672 31.0627 26.4395C31.0627 26.6118 30.9225 26.752 30.7502 26.752ZM29.4308 25.9147C29.2725 25.9147 29.1214 25.8511 29.0104 25.7363C28.4849 25.1923 27.7028 24.2405 27.6181 23.3237C27.0893 23.5751 26.4247 23.7985 25.8201 24.0018C25.1801 24.217 24.6873 24.7333 24.5019 25.3828C24.4575 25.5384 24.2953 25.6285 24.1398 25.5841C23.9842 25.5397 23.8941 25.3776 23.9385 25.222C24.1768 24.3869 24.8104 23.7231 25.6333 23.4464C26.3756 23.1968 27.2122 22.9155 27.7138 22.6099L27.9623 21.8878C28.2135 21.1579 29.9956 21.0791 30.7501 21.0791C31.5047 21.0791 33.2873 21.1593 33.5385 21.8892C33.5386 21.8897 33.7865 22.6099 33.7865 22.6099C34.0125 22.7476 34.3278 22.8932 34.7464 23.0532C34.8976 23.1109 34.9733 23.2803 34.9155 23.4314C34.8577 23.5826 34.6883 23.6583 34.5372 23.6005C34.285 23.5041 34.0688 23.413 33.8821 23.3243C33.7971 24.241 33.0153 25.1924 32.4899 25.7363C32.3678 25.8626 32.1972 25.9272 32.0219 25.9129C31.8463 25.8988 31.688 25.8077 31.5875 25.6632L30.7501 24.459L29.9127 25.6632C29.8122 25.8077 29.6539 25.8987 29.4783 25.9129C29.4625 25.9141 29.4466 25.9147 29.4308 25.9147ZM28.2359 22.8936C28.0588 23.4604 28.5056 24.3704 29.4319 25.3292L30.3171 24.0557C30.0525 23.9186 29.6516 23.7021 29.2562 23.4547C28.8291 23.1875 28.51 22.9487 28.2922 22.7302L28.2359 22.8936ZM31.1834 24.0556L32.0687 25.3287C32.9948 24.3704 33.4416 23.4604 33.2645 22.8936L33.2083 22.7302C32.9905 22.9487 32.6713 23.1875 32.2442 23.4547C31.8488 23.702 31.448 23.9185 31.1834 24.0556ZM28.5219 22.0701C28.5392 22.125 28.6726 22.4117 29.6622 23.0169C30.1004 23.2849 30.5401 23.5129 30.7502 23.6188C30.9602 23.5129 31.3999 23.2849 31.8381 23.0169C32.8315 22.4094 32.9622 22.1228 32.9786 22.0695C32.8814 21.9247 32.152 21.665 30.7502 21.665C29.3533 21.665 28.6241 21.9229 28.5219 22.0701Z" fill="black"/>
<defs>
<radialGradient id="paint0_radial_1780_12664" cx="0" cy="0" r="1" gradientUnits="userSpaceOnUse" gradientTransform="translate(26.5 26.5) rotate(90) scale(26.5)">
<stop stop-color="white"/>
<stop offset="1" stop-color="#68BBE3"/>
</radialGradient>
</defs>
</svg>
