<svg width="53" height="53" viewBox="0 0 53 53" fill="none" xmlns="http://www.w3.org/2000/svg">
<rect width="53" height="53" rx="26.5" fill="url(#paint0_radial_1827_12685)" fill-opacity="0.21"/>
<g clip-path="url(#clip0_1827_12685)">
<path d="M12.9315 28.7539V29.3492L22.2995 34.7932V34.198L12.9315 28.7539Z" fill="#416E84"/>
<path d="M22.2994 34.1981V34.7934L33.999 28.0386V27.4434L22.2994 34.1981Z" fill="#37617B"/>
<path d="M33.9982 27.4446L22.2989 34.1997L12.9303 28.7512L24.6296 21.9961L33.9982 27.4446Z" fill="#4C7891"/>
<path d="M13.733 17.8672L13.7828 28.748L22.2935 33.6939L22.2438 22.8131L13.733 17.8672Z" fill="#D4DAE8"/>
<path d="M22.2438 22.8134L22.2935 33.6943L32.9225 27.5576L32.8728 16.6768L22.2438 22.8134Z" fill="#CAD0DD"/>
<path d="M13.733 17.8671L22.2438 22.813L32.8728 16.6764L24.362 11.7305L13.733 17.8671Z" fill="#E4E8F4"/>
<path d="M14.7025 17.8689L15.1767 18.1445L24.3615 12.8414V12.292L14.7025 17.8689Z" fill="#CAD0DD"/>
<path d="M24.3615 12.292V12.8414L31.4289 16.9494L31.9031 16.6757L24.3615 12.292Z" fill="#D4DAE8"/>
<path d="M31.4289 16.9489L24.3615 12.8408L15.1768 18.1439L22.2445 22.2514L31.4289 16.9489Z" fill="#5B5E71"/>
<path d="M24.1559 20.1182L24.1552 20.4594L22.5236 21.4076L22.5242 21.0664L24.1559 20.1182Z" fill="#CAD0DD"/>
<path d="M22.5242 21.0664L22.5235 21.4076L20.8812 20.4594L20.8819 20.1182L22.5242 21.0664Z" fill="#D4DAE8"/>
<path d="M24.1558 20.1171L22.5241 21.0653L20.8818 20.1171L22.5135 19.1689L24.1558 20.1171Z" fill="#E4E8F4"/>
<path d="M22.6013 19.3022C22.6384 19.3236 22.6386 19.3579 22.6017 19.3793C22.5649 19.4007 22.5057 19.4007 22.4686 19.3793C22.4315 19.3579 22.4313 19.3236 22.4682 19.3022C22.505 19.2808 22.5642 19.2808 22.6013 19.3022Z" fill="#4C7891"/>
<path d="M23.9256 20.0668C23.9627 20.0883 23.9629 20.1225 23.9261 20.1439C23.8892 20.1654 23.8301 20.1654 23.793 20.1439C23.7559 20.1225 23.7557 20.0883 23.7925 20.0668C23.8294 20.0454 23.8885 20.0454 23.9256 20.0668Z" fill="#4C7891"/>
<path d="M23.1476 19.7519C23.4992 19.9549 23.501 20.2797 23.1517 20.4827C22.8024 20.6857 22.2416 20.6858 21.8899 20.4827C21.5383 20.2797 21.5365 19.9549 21.8858 19.7519C22.2351 19.5489 22.796 19.5488 23.1476 19.7519Z" fill="#4C7891"/>
<path d="M21.2452 20.09C21.2823 20.1114 21.2816 20.1462 21.2447 20.1676C21.2078 20.1891 21.1496 20.1885 21.1125 20.1671C21.0754 20.1457 21.0743 20.112 21.1112 20.0906C21.148 20.0691 21.2081 20.0686 21.2452 20.09Z" fill="#4C7891"/>
<path d="M22.5694 20.8547C22.6065 20.8761 22.6058 20.9109 22.5689 20.9323C22.5321 20.9537 22.4738 20.9532 22.4367 20.9318C22.3996 20.9103 22.3985 20.8766 22.4354 20.8552C22.4722 20.8338 22.5323 20.8332 22.5694 20.8547Z" fill="#4C7891"/>
<path d="M22.8184 19.7991C22.8294 19.8055 22.8387 19.8131 22.8457 19.8219C22.8776 19.8619 22.8462 19.9098 22.7753 19.9263C22.7281 19.9373 22.6803 19.9545 22.6469 19.9804C22.617 19.9986 22.596 20.0219 22.5809 20.045C22.594 20.0489 22.6064 20.054 22.6174 20.0603C22.6283 20.0667 22.6372 20.0738 22.6443 20.0816C22.719 20.0751 22.8093 20.0759 22.8821 20.0955C22.9362 20.105 22.9826 20.1235 23.0203 20.1453C23.0472 20.1609 23.0698 20.1781 23.0876 20.195C23.1302 20.2354 23.1033 20.288 23.0297 20.3074C22.9773 20.3213 22.917 20.3141 22.8784 20.2918C22.8662 20.2848 22.8562 20.2762 22.8492 20.2663C22.8345 20.2448 22.8122 20.2226 22.7811 20.2046C22.7731 20.2 22.7645 20.1957 22.7553 20.1917C22.7242 20.1746 22.6843 20.1621 22.644 20.1535C22.6377 20.1613 22.6289 20.1684 22.6184 20.1746C22.6071 20.1811 22.5941 20.1862 22.5804 20.1901C22.5922 20.2332 22.5911 20.2855 22.5575 20.3276C22.5299 20.3813 22.4564 20.4216 22.3864 20.4463C22.331 20.4658 22.2627 20.4601 22.2197 20.4353C22.2086 20.4289 22.1992 20.4212 22.1922 20.4124C22.1602 20.3723 22.1917 20.3245 22.2625 20.308C22.3097 20.297 22.3576 20.2798 22.3909 20.2538C22.4208 20.2361 22.4418 20.2124 22.4569 20.1893C22.4438 20.1858 22.4314 20.1807 22.4208 20.1746C22.4091 20.1678 22.4006 20.1605 22.3942 20.1527C22.3191 20.1594 22.2288 20.1586 22.1557 20.1388C22.1017 20.1294 22.0556 20.1111 22.018 20.0894C21.991 20.0738 21.9683 20.0564 21.9502 20.0393C21.908 19.999 21.9338 19.9467 22.0081 19.9269C22.0605 19.913 22.1208 19.9202 22.1594 19.9425C22.1716 19.9495 22.1817 19.9581 22.1886 19.968C22.2039 19.9898 22.2259 20.0118 22.2568 20.0297C22.2648 20.0343 22.2733 20.0386 22.2825 20.0426C22.3136 20.0601 22.3543 20.0722 22.3942 20.081C22.4005 20.0736 22.4093 20.0665 22.4202 20.0601C22.4314 20.0536 22.4437 20.0485 22.4568 20.0446C22.4449 20.0011 22.446 19.9492 22.4803 19.9067C22.5083 19.8532 22.5814 19.8127 22.6515 19.788C22.7069 19.7685 22.7756 19.7744 22.8184 19.7991Z" fill="#E4E8F4"/>
<path d="M26.732 18.6211L26.7314 18.9623L25.0997 19.9105L25.1004 19.5693L26.732 18.6211Z" fill="#CAD0DD"/>
<path d="M25.1004 19.5693L25.0997 19.9105L23.4574 18.9623L23.4581 18.6211L25.1004 19.5693Z" fill="#D4DAE8"/>
<path d="M26.7319 18.6201L25.1003 19.5683L23.458 18.6201L25.0896 17.6719L26.7319 18.6201Z" fill="#E4E8F4"/>
<path d="M25.1776 17.8051C25.2147 17.8265 25.2149 17.8608 25.178 17.8822C25.1412 17.9036 25.082 17.9036 25.0449 17.8822C25.0078 17.8608 25.0076 17.8265 25.0445 17.8051C25.0813 17.7837 25.1405 17.7837 25.1776 17.8051Z" fill="#4C7891"/>
<path d="M26.5018 18.5698C26.5389 18.5912 26.5391 18.6255 26.5022 18.6469C26.4654 18.6683 26.4062 18.6683 26.3691 18.6469C26.332 18.6255 26.3318 18.5912 26.3687 18.5698C26.4056 18.5484 26.4647 18.5484 26.5018 18.5698Z" fill="#4C7891"/>
<path d="M25.7238 18.2548C26.0754 18.4578 26.0772 18.7827 25.7279 18.9857C25.3785 19.1887 24.8177 19.1887 24.4661 18.9857C24.1145 18.7827 24.1127 18.4578 24.462 18.2548C24.8113 18.0518 25.3721 18.0518 25.7238 18.2548Z" fill="#4C7891"/>
<path d="M23.8214 18.5929C23.8585 18.6144 23.8577 18.6492 23.8209 18.6706C23.784 18.692 23.7258 18.6915 23.6887 18.67C23.6516 18.6486 23.6505 18.6149 23.6873 18.5935C23.7242 18.5721 23.7843 18.5715 23.8214 18.5929Z" fill="#4C7891"/>
<path d="M25.1456 19.3576C25.1827 19.379 25.1819 19.4138 25.1451 19.4352C25.1082 19.4566 25.05 19.4561 25.0129 19.4347C24.9758 19.4133 24.9747 19.3795 25.0116 19.3581C25.0484 19.3367 25.1085 19.3362 25.1456 19.3576Z" fill="#4C7891"/>
<path d="M25.3946 18.3021C25.4056 18.3084 25.4149 18.3161 25.4218 18.3248C25.4538 18.3649 25.4223 18.4127 25.3515 18.4292C25.3043 18.4403 25.2564 18.4574 25.2231 18.4834C25.1932 18.5016 25.1722 18.5249 25.1571 18.5479C25.1702 18.5518 25.1826 18.5569 25.1935 18.5633C25.2045 18.5696 25.2134 18.5768 25.2205 18.5845C25.2952 18.578 25.3855 18.5788 25.4583 18.5984C25.5123 18.608 25.5587 18.6264 25.5965 18.6483C25.6234 18.6638 25.646 18.681 25.6638 18.6979C25.7064 18.7384 25.6795 18.7909 25.6059 18.8103C25.5535 18.8243 25.4932 18.817 25.4546 18.7947C25.4424 18.7877 25.4323 18.7791 25.4254 18.7692C25.4107 18.7478 25.3884 18.7255 25.3572 18.7076C25.3493 18.703 25.3407 18.6986 25.3315 18.6947C25.3004 18.6775 25.2604 18.665 25.2202 18.6564C25.2139 18.6642 25.2051 18.6714 25.1945 18.6775C25.1833 18.684 25.1703 18.6891 25.1565 18.693C25.1684 18.7361 25.1673 18.7884 25.1337 18.8305C25.1061 18.8843 25.0326 18.9245 24.9625 18.9492C24.9071 18.9687 24.8389 18.963 24.7959 18.9382C24.7848 18.9318 24.7754 18.9242 24.7683 18.9153C24.7364 18.8753 24.7678 18.8275 24.8387 18.8109C24.8859 18.7999 24.9337 18.7827 24.9671 18.7568C24.997 18.739 25.018 18.7153 25.0331 18.6922C25.02 18.6887 25.0076 18.6836 24.997 18.6775C24.9853 18.6707 24.9768 18.6634 24.9704 18.6556C24.8953 18.6624 24.805 18.6616 24.7319 18.6417C24.6779 18.6323 24.6318 18.614 24.5942 18.5923C24.5672 18.5767 24.5445 18.5593 24.5264 18.5422C24.4842 18.502 24.51 18.4497 24.5843 18.4298C24.6367 18.4159 24.697 18.4231 24.7356 18.4454C24.7478 18.4525 24.7578 18.461 24.7648 18.4709C24.7801 18.4927 24.802 18.5147 24.833 18.5326C24.841 18.5372 24.8495 18.5415 24.8587 18.5455C24.8898 18.5631 24.9305 18.5751 24.9704 18.5839C24.9767 18.5766 24.9854 18.5694 24.9963 18.5631C25.0076 18.5565 25.0199 18.5514 25.0329 18.5475C25.0211 18.504 25.0222 18.4521 25.0565 18.4096C25.0844 18.3561 25.1576 18.3156 25.2276 18.2909C25.283 18.2714 25.3518 18.2774 25.3946 18.3021Z" fill="#E4E8F4"/>
<path d="M29.3082 17.124L29.3075 17.4653L27.6759 18.4135L27.6766 18.0722L29.3082 17.124Z" fill="#CAD0DD"/>
<path d="M27.6765 18.0722L27.6759 18.4135L26.0336 17.4653L26.0342 17.124L27.6765 18.0722Z" fill="#D4DAE8"/>
<path d="M29.3082 17.123L27.6766 18.0712L26.0343 17.123L27.6659 16.1748L29.3082 17.123Z" fill="#E4E8F4"/>
<path d="M27.7536 16.3081C27.7907 16.3295 27.7909 16.3637 27.7541 16.3852C27.7172 16.4066 27.6581 16.4066 27.621 16.3852C27.5839 16.3637 27.5837 16.3295 27.6205 16.3081C27.6574 16.2866 27.7165 16.2866 27.7536 16.3081Z" fill="#4C7891"/>
<path d="M29.078 17.0727C29.1151 17.0941 29.1153 17.1284 29.0784 17.1498C29.0416 17.1712 28.9824 17.1712 28.9453 17.1498C28.9082 17.1284 28.908 17.0941 28.9449 17.0727C28.9817 17.0513 29.0409 17.0513 29.078 17.0727Z" fill="#4C7891"/>
<path d="M28.2999 16.7577C28.6516 16.9607 28.6534 17.2856 28.304 17.4886C27.9547 17.6916 27.3939 17.6916 27.0423 17.4886C26.6906 17.2856 26.6888 16.9607 27.0382 16.7577C27.3875 16.5547 27.9483 16.5547 28.2999 16.7577Z" fill="#4C7891"/>
<path d="M26.3975 17.0959C26.4346 17.1173 26.4339 17.1521 26.397 17.1735C26.3602 17.1949 26.302 17.1944 26.2649 17.173C26.2278 17.1516 26.2267 17.1178 26.2635 17.0964C26.3004 17.075 26.3604 17.0745 26.3975 17.0959Z" fill="#4C7891"/>
<path d="M27.7218 17.8605C27.7588 17.8819 27.7581 17.9167 27.7213 17.9382C27.6844 17.9596 27.6262 17.959 27.5891 17.9376C27.552 17.9162 27.5509 17.8825 27.5877 17.8611C27.6246 17.8396 27.6847 17.8391 27.7218 17.8605Z" fill="#4C7891"/>
<path d="M27.9707 16.805C27.9818 16.8114 27.9911 16.819 27.998 16.8278C28.03 16.8678 27.9985 16.9156 27.9277 16.9322C27.8805 16.9432 27.8326 16.9604 27.7992 16.9863C27.7694 17.0045 27.7483 17.0278 27.7333 17.0509C27.7464 17.0548 27.7587 17.0599 27.7697 17.0662C27.7807 17.0725 27.7895 17.0797 27.7966 17.0874C27.8714 17.0809 27.9617 17.0817 28.0345 17.1013C28.0885 17.1109 28.1349 17.1294 28.1727 17.1512C28.1996 17.1667 28.2221 17.1839 28.24 17.2008C28.2825 17.2413 28.2557 17.2938 28.1821 17.3132C28.1296 17.3272 28.0694 17.3199 28.0308 17.2977C28.0185 17.2906 28.0085 17.282 28.0016 17.2722C27.9869 17.2507 27.9645 17.2285 27.9334 17.2105C27.9254 17.2059 27.9168 17.2015 27.9077 17.1976C27.8765 17.1804 27.8366 17.168 27.7963 17.1594C27.79 17.1671 27.7813 17.1743 27.7707 17.1804C27.7595 17.187 27.7464 17.1921 27.7327 17.1959C27.7446 17.2391 27.7435 17.2914 27.7098 17.3335C27.6823 17.3872 27.6088 17.4274 27.5387 17.4522C27.4833 17.4717 27.415 17.466 27.3721 17.4412C27.361 17.4348 27.3516 17.4271 27.3445 17.4183C27.3125 17.3782 27.344 17.3304 27.4148 17.3138C27.462 17.3028 27.5099 17.2856 27.5433 17.2597C27.5732 17.2419 27.5942 17.2182 27.6092 17.1951C27.5962 17.1917 27.5838 17.1865 27.5732 17.1804C27.5615 17.1737 27.553 17.1663 27.5466 17.1586C27.4715 17.1653 27.3812 17.1645 27.308 17.1447C27.254 17.1353 27.208 17.117 27.1704 17.0953C27.1433 17.0796 27.1206 17.0623 27.1025 17.0452C27.0603 17.0049 27.0861 16.9526 27.1605 16.9328C27.2129 16.9188 27.2732 16.9261 27.3117 16.9483C27.324 16.9554 27.334 16.964 27.341 16.9738C27.3562 16.9956 27.3782 17.0177 27.4092 17.0355C27.4171 17.0401 27.4257 17.0445 27.4348 17.0484C27.466 17.066 27.5066 17.0781 27.5465 17.0868C27.5528 17.0795 27.5616 17.0723 27.5725 17.066C27.5838 17.0595 27.5961 17.0544 27.6091 17.0505C27.5972 17.0069 27.5984 16.955 27.6327 16.9125C27.6606 16.859 27.7337 16.8186 27.8038 16.7938C27.8592 16.7743 27.9279 16.7803 27.9707 16.805Z" fill="#E4E8F4"/>
<path d="M31.7202 19.3179L32.0424 19.1328V20.7406L31.7202 20.5636V19.3179Z" fill="#D4DAE8"/>
<path d="M23.521 25.2781L31.7202 20.5635L32.0424 20.7405L23.521 25.6404V25.2781Z" fill="#E4E8F4"/>
<path d="M23.521 24.0271L31.719 19.3154V20.5664L23.521 25.2789V24.0271Z" fill="#748BFD"/>
<path d="M34.6587 31.339L34.2004 31.6029L33.8811 31.7903L29.7435 34.1716L29.4241 34.3589L28.9659 34.6228L25.8766 32.1305L26.3279 31.8667L26.6541 31.6792L30.7848 29.298L31.1111 29.1106L31.5693 28.8467L34.6587 31.339Z" fill="#E4E8F4"/>
<path d="M34.2005 31.6031L33.8812 31.7905L30.7849 29.2982L30.0629 28.715L30.285 28.4443L31.1112 29.1108L34.2005 31.6031Z" fill="#FED57A"/>
<path d="M29.7435 34.1719L29.4241 34.3592L26.3279 31.867L25.5017 31.2005L25.7239 30.9297L26.6541 31.6795L29.7435 34.1719Z" fill="#FED57A"/>
<path d="M25.8755 32.1338L28.9629 34.6236L25.8738 32.7269L25.8755 32.1338Z" fill="#BAC1CE"/>
<path d="M25.8738 32.138L25.5373 31.9424L25.5156 25.6758L25.8521 25.8713L25.8738 32.138Z" fill="#525566"/>
<path d="M25.8521 25.8707L25.5156 25.6751L31.2113 22.3867L31.5478 22.5823L25.8521 25.8707Z" fill="#5B5E71"/>
<path d="M31.5479 22.582L31.5696 28.8487L25.8739 32.1371L25.8522 25.8704L31.5479 22.582Z" fill="#474B59"/>
<path d="M31.0828 29.1279L31.0648 23.4229L30.6982 23.6345L30.7149 28.9322L31.0828 29.1279Z" fill="#5B5E71"/>
<path d="M30.7149 28.9316L26.3555 31.4487L26.3567 31.8562L31.0828 29.1274L30.7149 28.9316Z" fill="#5B5E71"/>
<path d="M30.7155 28.903L30.5905 28.8266L30.1739 28.5906L30.1462 28.5698L30.0351 28.5072L29.57 28.2366L29.0562 27.938L28.6397 27.695L28.6189 27.6811L28.5009 27.6117H28.4939L28.0288 27.341L27.522 27.0425L27.1193 26.8064L27.0915 26.7925L26.9805 26.7231L26.9666 26.7161L26.5015 26.4523L26.3418 26.3552V26.1539L26.5501 26.0358L26.7306 25.9317L27.1748 25.6748L30.7016 23.6338L30.7155 28.903Z" fill="#6EBA6E"/>
<path d="M30.7155 28.9033V28.9311L26.3557 31.451L26.3487 29.4448V27.737L26.3418 27.6189V26.3555L26.5015 26.4526L26.9666 26.7164L26.9805 26.7233L27.0915 26.7928L27.1193 26.8067L27.522 27.0428L28.0288 27.3412L28.4939 27.612H28.5009L28.6189 27.6814L28.6397 27.6953L29.0562 27.9383L29.563 28.2368H29.57L30.0351 28.5075L30.1462 28.57H30.1531L30.1739 28.5909L30.5905 28.8269L30.7155 28.9033Z" fill="#9AD898"/>
<path d="M15.8925 22.7641L15.9878 22.7087L15.9916 21.0869L15.8962 21.1423L15.8925 22.7641Z" fill="#CAD0DD"/>
<path d="M15.8963 21.1419L15.9917 21.0865L14.3365 20.1309L14.2411 20.1863L15.8963 21.1419Z" fill="white"/>
<path d="M14.241 20.1865L14.2373 21.8083L15.8925 22.764L15.8962 21.1422L14.241 20.1865Z" fill="#D4DAE8"/>
<path d="M14.4299 21.7029L14.4348 20.3823L14.3143 20.3135L14.3119 21.7643L14.4299 21.7029Z" fill="#CAD0DD"/>
<path d="M14.4299 21.7031L14.3119 21.7646L15.8194 22.6364V22.5037L14.4299 21.7031Z" fill="white"/>
<path d="M14.4347 20.3828L14.4298 21.7034L15.8194 22.504L15.8218 21.1834L14.4347 20.3828Z" fill="#748BFD"/>
<path d="M18.5229 24.2827L18.6183 24.2273L18.6221 22.6055L18.5267 22.6609L18.5229 24.2827Z" fill="#CAD0DD"/>
<path d="M18.5268 22.6605L18.6222 22.605L16.967 21.6494L16.8716 21.7048L18.5268 22.6605Z" fill="white"/>
<path d="M16.8715 21.7051L16.8678 23.3269L18.523 24.2825L18.5267 22.6607L16.8715 21.7051Z" fill="#D4DAE8"/>
<path d="M17.0603 23.2214L17.0653 21.9009L16.9448 21.832L16.9424 23.2829L17.0603 23.2214Z" fill="#CAD0DD"/>
<path d="M17.0603 23.2217L16.9424 23.2831L18.4499 24.155V24.0223L17.0603 23.2217Z" fill="white"/>
<path d="M17.0652 21.9014L17.0603 23.222L18.4499 24.0225L18.4523 22.7019L17.0652 21.9014Z" fill="#748BFD"/>
<path d="M21.1534 25.8012L21.2488 25.7458L21.2525 24.124L21.1572 24.1794L21.1534 25.8012Z" fill="#CAD0DD"/>
<path d="M21.1573 24.179L21.2527 24.1236L19.5975 23.168L19.5021 23.2234L21.1573 24.179Z" fill="white"/>
<path d="M19.502 23.2236L19.4983 24.8454L21.1535 25.8011L21.1572 24.1793L19.502 23.2236Z" fill="#D4DAE8"/>
<path d="M19.6908 24.74L19.6958 23.4194L19.5753 23.3506L19.5729 24.8014L19.6908 24.74Z" fill="#CAD0DD"/>
<path d="M19.6908 24.7402L19.5729 24.8017L21.0804 25.6735V25.5408L19.6908 24.7402Z" fill="white"/>
<path d="M19.6957 23.4199L19.6908 24.7405L21.0804 25.5411L21.0828 24.2205L19.6957 23.4199Z" fill="#748BFD"/>
<path d="M27.515 25.8692L27.0707 26.1261L26.8902 26.2302L26.5015 26.4523L26.439 26.4871L26.3418 26.4315V26.1539L26.5501 26.0358L26.7306 25.9317L27.1748 25.6748L27.515 25.8692Z" fill="#FED57A"/>
<path d="M26.4459 27.5841V27.6743L26.3418 27.6188V26.4316L26.439 26.4872V27.0704L26.4459 27.5841Z" fill="#EFAC41"/>
<path d="M26.4415 26.4895L26.4449 27.677L27.5212 27.0556L27.5178 25.8682L26.4415 26.4895Z" fill="#F9BB4A"/>
<path d="M27.237 26.5742L27.2131 26.588L27.2144 26.723L27.2385 26.7384L27.237 26.5742Z" fill="#EFAC41"/>
<path d="M27.2143 26.7227L26.7255 27.0049L26.7257 27.0341L27.2384 26.7381L27.2143 26.7227Z" fill="#FED57A"/>
<path d="M27.2132 26.5879L26.7242 26.8702L26.7255 27.0052L27.2144 26.7229L27.2132 26.5879Z" fill="#4C7891"/>
<path d="M27.071 26.126V26.4897L26.9809 26.4518L26.8887 26.588V26.2315L27.071 26.126Z" fill="#D4DAE8"/>
<path d="M27.0707 26.126L26.8902 26.2302L26.55 26.0358L26.7306 25.9316L27.0707 26.126Z" fill="#E4E8F4"/>
<path d="M26.9088 26.7483L27.9781 27.3697L29.0543 26.7483L27.9851 26.127L26.9088 26.7483Z" fill="#FED57A"/>
<path d="M26.9088 26.748L26.9122 27.9355L27.9815 28.5569L27.9781 27.3694L26.9088 26.748Z" fill="#EFAC41"/>
<path d="M27.0104 27.864L27.0096 27.583L27.4686 27.8497L27.4694 28.1307L27.0104 27.864Z" fill="white"/>
<path d="M27.978 27.3694L27.9814 28.5568L29.0577 27.9355L29.0543 26.748L27.978 27.3694Z" fill="#F9BB4A"/>
<path d="M28.7735 27.4541L28.7496 27.4679L28.7509 27.6029L28.775 27.6183L28.7735 27.4541Z" fill="#EFAC41"/>
<path d="M28.751 27.6025L28.2621 27.8848L28.2624 27.914L28.7751 27.6179L28.751 27.6025Z" fill="#FED57A"/>
<path d="M28.7497 27.4678L28.2607 27.75L28.262 27.8851L28.7509 27.6028L28.7497 27.4678Z" fill="#4C7891"/>
<path d="M28.6075 27.0059V27.3696L28.5174 27.3317L28.4252 27.4679V27.1114L28.6075 27.0059Z" fill="#D4DAE8"/>
<path d="M27.538 26.3848L28.6076 27.0056L28.4252 27.1112L27.3556 26.4903L27.538 26.3848Z" fill="#E4E8F4"/>
<path d="M27.4665 27.6598L27.3068 27.757L27.0638 27.8959L27.0152 27.9237L26.9527 27.9583L26.8416 28.0278H26.8347L26.3904 28.2846L26.3487 28.2569V27.7362L26.3418 27.6182V27.0767L26.3973 27.042L26.439 27.0628V27.0697L26.911 27.3405L26.9666 27.3752L27.4665 27.6598Z" fill="#FED57A"/>
<path d="M26.3974 29.4717L26.3488 29.4439V28.2568L26.3904 28.2845L26.3974 29.4717Z" fill="#EFAC41"/>
<path d="M26.3929 28.2845L26.3963 29.4719L27.4726 28.8505L27.4692 27.6631L26.3929 28.2845Z" fill="#F9BB4A"/>
<path d="M27.1884 28.3691L27.1646 28.3829L27.1658 28.5179L27.1899 28.5333L27.1884 28.3691Z" fill="#EFAC41"/>
<path d="M27.1659 28.5176L26.677 28.7999L26.6773 28.829L27.19 28.533L27.1659 28.5176Z" fill="#FED57A"/>
<path d="M27.1646 28.3828L26.6757 28.6651L26.6769 28.8001L27.1658 28.5178L27.1646 28.3828Z" fill="#4C7891"/>
<path d="M27.0225 27.9209V28.2846L26.9323 28.2467L26.8401 28.383V28.0264L27.0225 27.9209Z" fill="#D4DAE8"/>
<path d="M27.0152 27.9241L26.9527 27.9587V27.9657L26.8416 28.0281H26.8347L26.3487 27.7436V27.7366L26.3418 27.6186V27.5283L26.4459 27.5838L26.5223 27.6324L26.911 27.8615L27.0152 27.9241Z" fill="#E4E8F4"/>
<path d="M28.4437 27.6409L29.513 28.2623L30.5893 27.6409L29.52 27.0195L28.4437 27.6409Z" fill="#FED57A"/>
<path d="M28.4437 27.6406L28.4471 28.828L29.5164 29.4494L29.513 28.262L28.4437 27.6406Z" fill="#EFAC41"/>
<path d="M28.5454 28.7566L28.5446 28.4756L29.0035 28.7423L29.0043 29.0233L28.5454 28.7566Z" fill="white"/>
<path d="M29.5129 28.262L29.5163 29.4494L30.5926 28.828L30.5892 27.6406L29.5129 28.262Z" fill="#F9BB4A"/>
<path d="M30.3084 28.3467L30.2845 28.3604L30.2858 28.4955L30.3099 28.5109L30.3084 28.3467Z" fill="#EFAC41"/>
<path d="M30.2858 28.4951L29.7969 28.7774L29.7971 28.8066L30.3099 28.5105L30.2858 28.4951Z" fill="#FED57A"/>
<path d="M30.2846 28.3604L29.7957 28.6426L29.7969 28.7776L30.2858 28.4954L30.2846 28.3604Z" fill="#4C7891"/>
<path d="M30.1425 27.8984V28.2621L30.0523 28.2243L29.9601 28.3605V28.004L30.1425 27.8984Z" fill="#D4DAE8"/>
<path d="M29.0729 27.2773L30.1425 27.8982L29.9601 28.0037L28.8905 27.3829L29.0729 27.2773Z" fill="#E4E8F4"/>
<path d="M26.8586 28.556L27.9279 29.1773L29.0042 28.556L27.9349 27.9346L26.8586 28.556Z" fill="#FED57A"/>
<path d="M26.8586 28.5557L26.862 29.7431L27.9313 30.3645L27.9279 29.1771L26.8586 28.5557Z" fill="#EFAC41"/>
<path d="M26.9603 29.6716L26.9595 29.3906L27.4184 29.6573L27.4192 29.9383L26.9603 29.6716Z" fill="white"/>
<path d="M27.9279 29.177L27.9312 30.3645L29.0075 29.7431L29.0041 28.5557L27.9279 29.177Z" fill="#F9BB4A"/>
<path d="M28.7233 29.2617L28.6995 29.2755L28.7007 29.4105L28.7248 29.4259L28.7233 29.2617Z" fill="#EFAC41"/>
<path d="M28.7008 29.4102L28.2119 29.6924L28.2122 29.7216L28.7249 29.4256L28.7008 29.4102Z" fill="#FED57A"/>
<path d="M28.6995 29.2754L28.2106 29.5577L28.2119 29.6927L28.7007 29.4104L28.6995 29.2754Z" fill="#4C7891"/>
<path d="M28.5574 28.8135V29.1772L28.4672 29.1393L28.375 29.2755V28.919L28.5574 28.8135Z" fill="#D4DAE8"/>
<path d="M27.4878 28.1924L28.5574 28.8133L28.375 28.9188L27.3054 28.2979L27.4878 28.1924Z" fill="#E4E8F4"/>
<path d="M16.1609 30.1399L16.3149 30.0504L16.3209 25.3496L16.1669 25.4391L16.1609 30.1399Z" fill="#CAD0DD"/>
<path d="M16.1669 25.4393L16.3209 25.3498L14.4717 24.2822L14.3177 24.3717L16.1669 25.4393Z" fill="white"/>
<path d="M14.3178 24.3721L14.3118 29.0729L16.1609 30.1405L16.1669 25.4397L14.3178 24.3721Z" fill="#D4DAE8"/>
<path d="M14.6226 28.9038L14.6305 24.6892L14.4361 24.5781L14.4321 29.003L14.6226 28.9038Z" fill="#CAD0DD"/>
<path d="M14.6226 28.9033L14.4321 29.0025L16.0429 29.9348V29.7206L14.6226 28.9033Z" fill="white"/>
<path d="M14.6305 24.6885L14.6226 28.9031L16.0429 29.7203L16.0469 25.5058L14.6305 24.6885Z" fill="#748BFD"/>
<path d="M18.0101 31.2073L18.1641 31.1178L18.1701 26.417L18.0162 26.5065L18.0101 31.2073Z" fill="#E4E8F4"/>
<path d="M18.0161 26.5067L18.1701 26.4172L16.321 25.3496L16.167 25.4391L18.0161 26.5067Z" fill="white"/>
<path d="M16.1669 25.4395L16.1609 30.1403L18.01 31.2079L18.0161 26.5071L16.1669 25.4395Z" fill="#D4DAE8"/>
<path d="M16.4718 29.9712L16.4797 25.7566L16.2853 25.6455L16.2814 30.0704L16.4718 29.9712Z" fill="#CAD0DD"/>
<path d="M16.4718 29.9707L16.2814 30.0699L17.8922 31.0022V30.788L16.4718 29.9707Z" fill="white"/>
<path d="M16.4797 25.7568L16.4718 29.9714L17.8922 30.7887L17.8961 26.5741L16.4797 25.7568Z" fill="#748BFD"/>
<path d="M38.7726 25.947C38.7726 26.108 38.7123 26.2186 38.6217 26.269L38.4103 26.3997C38.5009 26.3394 38.4916 26.2288 38.4916 26.0678C38.4916 25.7358 38.2806 25.4517 37.9988 25.2806C37.8479 25.2001 37.7664 25.0816 37.6658 25.1419L37.8771 25.0113C37.9777 24.9609 38.1085 24.971 38.2595 25.0514C38.5412 25.2124 38.7726 25.615 38.7726 25.947Z" fill="#525566"/>
<path d="M38.0455 25.1755C38.3281 25.3387 38.5586 25.738 38.5577 26.0701C38.5568 26.3876 38.3247 26.5272 38.0421 26.364C37.753 26.1971 37.5161 25.7868 37.517 25.4693C37.5179 25.1372 37.7564 25.0086 38.0455 25.1755Z" fill="#3F434F"/>
<path d="M34.1444 20.6301C34.1352 20.6355 34.1272 20.6431 34.1209 20.6531C34.1191 20.656 34.1174 20.659 34.1159 20.6622C34.1147 20.6647 34.1136 20.6673 34.1126 20.6699C34.1118 20.6723 34.1109 20.6746 34.1102 20.6771C34.1096 20.6793 34.109 20.6817 34.1085 20.684C34.1079 20.6862 34.1075 20.6884 34.1071 20.6908C34.1067 20.6928 34.1064 20.6951 34.1061 20.6974C34.1058 20.6996 34.1056 20.7018 34.1054 20.7042C34.1052 20.7064 34.1051 20.7086 34.105 20.7108C34.1049 20.713 34.1049 20.7152 34.1048 20.7176V20.718L34.1017 21.822L34.3409 21.6829L34.3441 20.579C34.3441 20.5347 34.3596 20.505 34.3836 20.4912L34.1444 20.6301Z" fill="#E63044"/>
<path d="M34.4825 20.2178C34.4786 20.2156 34.4746 20.2134 34.4707 20.2112C34.4656 20.2084 34.4605 20.2059 34.4555 20.2035C34.4505 20.201 34.4455 20.1985 34.4405 20.1963C34.4355 20.1941 34.4306 20.192 34.4257 20.1901C34.4207 20.188 34.4157 20.1862 34.4108 20.1844C34.4058 20.1827 34.4008 20.1811 34.3959 20.1796C34.3908 20.178 34.3858 20.1767 34.3807 20.1753C34.3756 20.1742 34.3705 20.1731 34.3655 20.172C34.36 20.1709 34.3546 20.17 34.3493 20.1693C34.3453 20.1688 34.3413 20.1684 34.3373 20.1681H34.3365C34.3353 20.168 34.3341 20.1678 34.333 20.1677C34.3271 20.1673 34.3211 20.167 34.3153 20.167C34.3088 20.1671 34.3024 20.1674 34.2961 20.1681C34.2888 20.1686 34.2817 20.1698 34.2747 20.1711C34.2657 20.1729 34.2569 20.1753 34.2484 20.1783C34.2378 20.1822 34.2276 20.1869 34.218 20.1924L33.9788 20.3315C34.0125 20.3119 34.0527 20.3033 34.0973 20.307H34.0981C34.1427 20.3109 34.1916 20.3271 34.2433 20.3569L34.9006 20.7364L35.1398 20.5973L34.4825 20.2178Z" fill="#F9607F"/>
<path d="M35.1487 20.015L35.3879 19.876L35.3686 26.6822L35.1294 26.8212L35.1487 20.015Z" fill="#E63044"/>
<path d="M34.9031 19.8734L35.1423 19.7344L35.3879 19.8762L35.1487 20.0152L34.9031 19.8734Z" fill="#F9607F"/>
<path d="M35.1486 20.0148L35.1294 26.821L34.8838 26.6792L34.8998 21.0184L34.2425 20.6389C34.1702 20.5972 34.1051 20.6261 34.1048 20.7174L34.1017 21.8214L33.8633 21.6837L33.8664 20.5798C33.8671 20.3391 34.0338 20.2359 34.2433 20.3568L34.9006 20.7363L34.9031 19.873L35.1486 20.0148Z" fill="#FA5168"/>
<path d="M36.6972 19.1428C36.6879 19.1482 36.6799 19.1558 36.6736 19.1658C36.6718 19.1687 36.6702 19.1717 36.6686 19.1749C36.6674 19.1774 36.6664 19.18 36.6653 19.1826C36.6645 19.185 36.6637 19.1873 36.663 19.1898C36.6623 19.192 36.6617 19.1944 36.6612 19.1967C36.6606 19.1989 36.6602 19.2011 36.6598 19.2035C36.6595 19.2055 36.6591 19.2078 36.6588 19.2101C36.6586 19.2123 36.6583 19.2145 36.6581 19.2169C36.6579 19.2191 36.6578 19.2213 36.6577 19.2235C36.6576 19.2257 36.6576 19.2279 36.6575 19.2303V19.2307L36.6544 20.3347L36.8936 20.1956L36.8968 19.0917C36.8969 19.0474 36.9123 19.0177 36.9364 19.0039L36.6972 19.1428Z" fill="#E63044"/>
<path d="M37.0352 18.7305C37.0313 18.7283 37.0274 18.7261 37.0234 18.7239C37.0183 18.7211 37.0133 18.7186 37.0082 18.7161C37.0032 18.7137 36.9982 18.7112 36.9933 18.709C36.9883 18.7068 36.9833 18.7047 36.9784 18.7028C36.9734 18.7007 36.9685 18.6989 36.9635 18.6971C36.9585 18.6954 36.9535 18.6938 36.9486 18.6923C36.9435 18.6907 36.9385 18.6894 36.9335 18.688C36.9283 18.6869 36.9232 18.6858 36.9182 18.6847C36.9127 18.6836 36.9073 18.6827 36.902 18.682C36.898 18.6815 36.894 18.6811 36.89 18.6808H36.8892C36.888 18.6807 36.8868 18.6805 36.8857 18.6804C36.8798 18.68 36.8739 18.6797 36.8681 18.6797C36.8615 18.6798 36.8551 18.6801 36.8489 18.6808C36.8415 18.6813 36.8344 18.6824 36.8275 18.6838C36.8184 18.6856 36.8096 18.688 36.8011 18.691C36.7905 18.6949 36.7804 18.6996 36.7707 18.7051L36.5315 18.8442C36.5653 18.8246 36.6054 18.816 36.65 18.8197H36.6508C36.6954 18.8236 36.7444 18.8398 36.796 18.8696L37.4534 19.2491L37.6926 19.11L37.0352 18.7305Z" fill="#F9607F"/>
<path d="M37.7014 18.5277L37.9406 18.3887L37.9213 25.1949L37.6821 25.3339L37.7014 18.5277Z" fill="#E63044"/>
<path d="M37.4558 18.3861L37.695 18.2471L37.9406 18.3889L37.7014 18.5279L37.4558 18.3861Z" fill="#F9607F"/>
<path d="M37.7014 18.5275L37.6821 25.3337L37.4365 25.1919L37.4525 19.5311L36.7952 19.1516C36.723 19.1099 36.6578 19.1388 36.6575 19.2301L36.6544 20.3341L36.416 20.1964L36.4191 19.0925C36.4198 18.8518 36.5865 18.7485 36.796 18.8695L37.4533 19.249L37.4558 18.3857L37.7014 18.5275Z" fill="#FA5168"/>
<path d="M37.604 26.3939L37.3857 26.267L37.3833 25.4121L37.6016 25.539L37.604 26.3939Z" fill="#525566"/>
<path d="M37.6002 25.0743L37.4393 24.9808L37.4336 22.9805L37.5945 23.074L37.6002 25.0743Z" fill="#525566"/>
<path d="M35.7184 26.1604L35.5575 26.0669L37.4393 24.9805L37.6002 25.074L35.7184 26.1604Z" fill="#5B5E71"/>
<path d="M37.5932 22.6091L37.4322 22.5156L37.4279 20.9717L37.5888 21.0652L37.5932 22.6091Z" fill="#525566"/>
<path d="M37.5846 19.5876L37.4237 19.494L37.821 19.2646L37.9819 19.3582L37.5846 19.5876Z" fill="#5B5E71"/>
<path d="M37.5875 20.6085L37.4266 20.515L37.4237 19.4941L37.5846 19.5877L37.5875 20.6085Z" fill="#525566"/>
<path d="M35.7115 23.6956L35.5505 23.6021L37.4323 22.5156L37.5933 22.6091L35.7115 23.6956Z" fill="#5B5E71"/>
<path d="M35.7057 21.6946L35.5448 21.6011L37.4266 20.5146L37.5875 20.6082L35.7057 21.6946Z" fill="#5B5E71"/>
<path d="M35.3249 27.7093L35.1639 27.6158L35.1447 20.8096L35.3056 20.9031L35.3249 27.7093Z" fill="#525566"/>
<path d="M37.5846 19.5878L37.9819 19.3584L38.0012 26.1646L37.6039 26.394L37.6015 25.5391L35.7197 26.6255L35.7221 27.4804L35.3248 27.7098L35.3055 20.9036L35.7028 20.6742L35.7057 21.6951L37.5875 20.6086L37.5846 19.5878ZM37.6002 25.0742L37.5945 23.0739L35.7127 24.1603L35.7184 26.1606L37.6002 25.0742ZM37.5932 22.6091L37.5888 21.0652L35.707 22.1516L35.7114 23.6955L37.5932 22.6091Z" fill="#474B59"/>
<path d="M35.3056 20.903L35.1447 20.8094L35.5419 20.5801L35.7029 20.6736L35.3056 20.903Z" fill="#5B5E71"/>
<path d="M38.0288 29.0471L37.6345 29.2746L35.327 27.4131L35.7214 27.1855L38.0288 29.0471Z" fill="#525566"/>
<path d="M35.3263 27.415L37.6322 29.2747L35.325 27.7003L35.3263 27.415Z" fill="#474B59"/>
<path d="M40.3052 27.7434L39.9109 27.9709L37.6034 26.1094L37.9977 25.8818L40.3052 27.7434Z" fill="#525566"/>
<path d="M37.6026 26.1113L39.9086 27.971L37.6013 26.3966L37.6026 26.1113Z" fill="#474B59"/>
<path d="M35.7765 27.6227C35.7765 27.7838 35.7162 27.8944 35.6256 27.9448L35.4032 28.0763C35.4938 28.016 35.5504 27.9026 35.5504 27.7416C35.5504 27.4096 35.3108 27.0772 35.029 26.9061C34.878 26.8257 34.7703 26.7574 34.6697 26.8177L34.881 26.687C34.9816 26.6367 35.1124 26.6468 35.2634 26.7272C35.5451 26.8882 35.7765 27.2907 35.7765 27.6227Z" fill="#3F434F"/>
<path d="M35.0494 26.8512C35.332 27.0144 35.5625 27.4138 35.5616 27.7459C35.5607 28.0634 35.3287 28.203 35.046 28.0398C34.7569 27.8729 34.52 27.4625 34.5209 27.145C34.5218 26.8129 34.7603 26.6843 35.0494 26.8512Z" fill="#525566"/>
<path d="M35.0468 27.0312C35.2435 27.1447 35.4038 27.4225 35.4032 27.6536C35.4026 27.8744 35.2411 27.9716 35.0445 27.858C34.8434 27.7419 34.6786 27.4564 34.6792 27.2356C34.6799 27.0045 34.8457 26.9151 35.0468 27.0312Z" fill="#BAC1CE"/>
<path d="M40.3167 25.999L40.3121 27.4643L37.1967 29.2745L37.2013 27.8093L40.3167 25.999Z" fill="#EFAC41"/>
<path d="M38.3739 27.3174V27.549L38.3726 27.5727V27.7991L37.35 28.394V28.3084L37.3513 28.2479V28.0531L37.3526 27.9912V27.9123L38.3739 27.3174Z" fill="#E4E8F4"/>
<path d="M37.2013 27.809L37.1967 29.2743L35.8613 28.5033L35.866 27.0381L37.2013 27.809Z" fill="#F9BB4A"/>
<path d="M40.3171 25.9995L37.2013 27.8097L36.618 27.472L36.4492 27.3765L36.4458 27.3748L35.8658 27.0387L38.9816 25.2285L39.5649 25.5645L39.5666 25.5662L39.7338 25.6617L40.3171 25.9995Z" fill="#FED57A"/>
<path d="M39.7337 25.6617L36.6179 27.4719L36.4491 27.3764L36.4457 27.3747L39.5649 25.5645L39.5666 25.5662L39.7337 25.6617Z" fill="#EFAC41"/>
<path d="M36.6179 27.4715L36.6164 28.0258L36.4457 27.9284L36.4472 27.374L36.6179 27.4715Z" fill="#EFAC41"/>
<path d="M37.4967 28.6279L37.5427 28.7154L37.5142 28.7318L37.4514 28.7678L37.4967 28.6279Z" fill="#3F434F"/>
<path d="M37.5142 28.7324L37.5147 28.9054L37.4803 28.9253L37.4799 28.7523L37.5142 28.7324Z" fill="#3F434F"/>
<path d="M37.6849 28.8223L37.685 28.8593L37.4479 28.9962L37.4478 28.9592L37.6849 28.8223Z" fill="#3F434F"/>
<path d="M37.937 28.374L37.9373 28.4973C37.9374 28.5362 37.9149 28.5814 37.8851 28.6043L37.8854 28.7154C37.9063 28.7058 37.9221 28.7067 37.9222 28.7183L37.8297 28.7717C37.8297 28.7601 37.8454 28.741 37.8663 28.7264L37.866 28.6153C37.8524 28.6208 37.8406 28.6195 37.8314 28.6137C37.8205 28.6056 37.8134 28.5905 37.8133 28.5689L37.813 28.4456L37.937 28.374Z" fill="#3F434F"/>
<path d="M37.6517 28.6523L37.6521 28.8253L37.6178 28.8452L37.6173 28.6722L37.6517 28.6523Z" fill="#3F434F"/>
<path d="M37.6344 28.5488L37.6801 28.6364L37.6517 28.6528L37.5891 28.6887L37.6344 28.5488Z" fill="#3F434F"/>
<path d="M38.3739 27.5488L38.3726 27.5725L37.3513 28.1621V28.1398L38.3739 27.5488Z" fill="#A4A9B3"/>
<path d="M38.3726 27.6328V27.6578L37.3513 28.2474V28.2237L38.3726 27.6328Z" fill="#A4A9B3"/>
<path d="M38.3726 27.7188V27.7438L37.35 28.3334V28.3084L38.3726 27.7188Z" fill="#A4A9B3"/>
<path d="M38.3739 27.4639V27.4876L37.3513 28.0785V28.0535L38.3739 27.4639Z" fill="#A4A9B3"/>
<path d="M38.374 27.3779V27.4016L37.3527 27.9912V27.9675L38.374 27.3779Z" fill="#A4A9B3"/>
<path d="M40.3167 24.4375L40.3121 25.9027L37.1967 27.713L37.2013 26.2477L40.3167 24.4375Z" fill="#EFAC41"/>
<path d="M38.3739 25.7559V25.9875L38.3726 26.0112V26.2376L37.35 26.8324V26.7469L37.3513 26.6863V26.4916L37.3526 26.4297V26.3507L38.3739 25.7559Z" fill="#E4E8F4"/>
<path d="M37.2013 26.2475L37.1967 27.7128L35.8613 26.9418L35.866 25.4766L37.2013 26.2475Z" fill="#F9BB4A"/>
<path d="M40.3171 24.4379L37.2013 26.2482L36.618 25.9104L36.4492 25.8149L36.4458 25.8132L35.8658 25.4772L38.9816 23.667L39.5649 24.003L39.5666 24.0047L39.7338 24.1002L40.3171 24.4379Z" fill="#FED57A"/>
<path d="M39.7337 24.1002L36.6179 25.9104L36.4491 25.8149L36.4457 25.8132L39.5649 24.0029L39.5666 24.0046L39.7337 24.1002Z" fill="#EFAC41"/>
<path d="M36.6179 25.91L36.6164 26.4643L36.4457 26.3668L36.4472 25.8125L36.6179 25.91Z" fill="#EFAC41"/>
<path d="M37.4967 27.0664L37.5427 27.1539L37.5142 27.1703L37.4514 27.2063L37.4967 27.0664Z" fill="#3F434F"/>
<path d="M37.5142 27.1709L37.5147 27.3439L37.4803 27.3637L37.4799 27.1907L37.5142 27.1709Z" fill="#3F434F"/>
<path d="M37.6849 27.2607L37.685 27.2978L37.4479 27.4347L37.4478 27.3976L37.6849 27.2607Z" fill="#3F434F"/>
<path d="M37.937 26.8125L37.9373 26.9358C37.9374 26.9747 37.9149 27.0199 37.8851 27.0428L37.8854 27.1539C37.9063 27.1443 37.9221 27.1452 37.9222 27.1568L37.8297 27.2102C37.8297 27.1985 37.8454 27.1794 37.8663 27.1649L37.866 27.0538C37.8524 27.0593 37.8406 27.0579 37.8314 27.0522C37.8205 27.0441 37.8134 27.029 37.8133 27.0073L37.813 26.8841L37.937 26.8125Z" fill="#3F434F"/>
<path d="M37.6517 27.0908L37.6521 27.2638L37.6178 27.2836L37.6173 27.1107L37.6517 27.0908Z" fill="#3F434F"/>
<path d="M37.6344 26.9873L37.6801 27.0749L37.6517 27.0913L37.5891 27.1272L37.6344 26.9873Z" fill="#3F434F"/>
<path d="M38.3739 25.9873L38.3726 26.011L37.3513 26.6006V26.5782L38.3739 25.9873Z" fill="#A4A9B3"/>
<path d="M38.3726 26.0713V26.0963L37.3513 26.6859V26.6622L38.3726 26.0713Z" fill="#A4A9B3"/>
<path d="M38.3726 26.1572V26.1822L37.35 26.7719V26.7468L38.3726 26.1572Z" fill="#A4A9B3"/>
<path d="M38.3739 25.9023V25.926L37.3513 26.517V26.492L38.3739 25.9023Z" fill="#A4A9B3"/>
<path d="M38.374 25.8164V25.8401L37.3527 26.4297V26.406L38.374 25.8164Z" fill="#A4A9B3"/>
<path d="M17.1446 40.2706L16.4352 39.8584L16.438 40.8571L17.1474 41.2693L17.1446 40.2706Z" fill="#EFAC41"/>
<path d="M22.5959 37.1437L21.8865 36.7314L16.4352 39.8585L17.1446 40.2708L22.5959 37.1437Z" fill="#FED57A"/>
<path d="M17.1445 40.2706L17.1474 41.2693L22.5987 38.1423L22.5958 37.1436L17.1445 40.2706Z" fill="#F9BB4A"/>
<path d="M18.7179 39.5752L18.7197 40.1886L18.7102 40.1941L18.1798 39.8859L18.7179 39.5752Z" fill="#EFAC41"/>
<path d="M17.7915 40.09L18.1798 39.8857L18.7102 40.194L17.7932 40.7034L17.7915 40.09Z" fill="#FED57A"/>
<path d="M18.2869 39.948L17.7915 40.1872V40.09L18.1798 39.8857L18.2869 39.948Z" fill="white"/>
<path d="M21.9046 37.7354L21.9063 38.3488L21.8969 38.3543L21.3665 38.046L21.9046 37.7354Z" fill="#EFAC41"/>
<path d="M19.4014 39.1804L21.3665 38.0459L21.8969 38.3541L19.4031 39.7939L19.4014 39.1804Z" fill="#FED57A"/>
<path d="M21.4736 38.1081L19.4014 39.2777V39.1804L21.3665 38.0459L21.4736 38.1081Z" fill="white"/>
<path d="M14.9247 38.9806L14.2153 38.5684L14.2182 39.5671L14.9275 39.9793L14.9247 38.9806Z" fill="#EFAC41"/>
<path d="M20.376 35.8536L19.6666 35.4414L14.2153 38.5685L14.9247 38.9807L20.376 35.8536Z" fill="#FED57A"/>
<path d="M14.9247 38.9806L14.9275 39.9793L20.3788 36.8522L20.376 35.8535L14.9247 38.9806Z" fill="#F9BB4A"/>
<path d="M16.4981 38.2852L16.4998 38.8986L16.4904 38.9041L15.96 38.5958L16.4981 38.2852Z" fill="#EFAC41"/>
<path d="M15.5717 38.7999L15.96 38.5957L16.4904 38.9039L15.5734 39.4134L15.5717 38.7999Z" fill="#FED57A"/>
<path d="M16.067 38.6579L15.5717 38.8972V38.7999L15.96 38.5957L16.067 38.6579Z" fill="white"/>
<path d="M19.6847 36.4453L19.6865 37.0588L19.677 37.0642L19.1466 36.756L19.6847 36.4453Z" fill="#EFAC41"/>
<path d="M17.1815 37.8904L19.1466 36.7559L19.677 37.0641L17.1833 38.5038L17.1815 37.8904Z" fill="#FED57A"/>
<path d="M19.2537 36.8181L17.1815 37.9876V37.8904L19.1466 36.7559L19.2537 36.8181Z" fill="white"/>
<path d="M12.705 37.6906L11.9956 37.2783L11.9984 38.277L12.7078 38.6893L12.705 37.6906Z" fill="#EFAC41"/>
<path d="M18.1563 34.5636L17.4469 34.1514L11.9956 37.2784L12.705 37.6907L18.1563 34.5636Z" fill="#FED57A"/>
<path d="M12.705 37.6905L12.7078 38.6893L18.1591 35.5622L18.1563 34.5635L12.705 37.6905Z" fill="#F9BB4A"/>
<path d="M14.2784 36.9951L14.2801 37.6086L14.2706 37.614L13.7402 37.3058L14.2784 36.9951Z" fill="#EFAC41"/>
<path d="M13.3519 37.5099L13.7402 37.3057L14.2706 37.6139L13.3537 38.1233L13.3519 37.5099Z" fill="#FED57A"/>
<path d="M13.8473 37.3679L13.3519 37.6071V37.5099L13.7402 37.3057L13.8473 37.3679Z" fill="white"/>
<path d="M17.465 35.1553L17.4668 35.7687L17.4573 35.7742L16.9269 35.466L17.465 35.1553Z" fill="#EFAC41"/>
<path d="M14.9618 36.6004L16.9269 35.4658L17.4573 35.774L14.9635 37.2138L14.9618 36.6004Z" fill="#FED57A"/>
<path d="M17.034 35.528L14.9618 36.6976V36.6004L16.9269 35.4658L17.034 35.528Z" fill="white"/>
<path d="M16.6863 34.375L16.6869 34.5963L21.8282 37.586L21.8275 37.3647L16.6863 34.375Z" fill="#474B59"/>
<path d="M21.8276 37.3642L21.8283 37.5856L22.5471 37.1706L22.5465 36.9492L21.8276 37.3642Z" fill="#525566"/>
<path d="M16.6863 34.375L21.8275 37.3647L22.5464 36.9497L17.4051 33.96L16.6863 34.375Z" fill="#5B5E71"/>
<path d="M15.1272 35.2715L15.1278 35.4928L20.2691 38.4825L20.2684 38.2612L15.1272 35.2715Z" fill="#474B59"/>
<path d="M20.2686 38.2607L20.2692 38.4821L20.988 38.0671L20.9874 37.8457L20.2686 38.2607Z" fill="#525566"/>
<path d="M15.1272 35.2715L20.2684 38.2612L20.9873 37.8461L15.846 34.8564L15.1272 35.2715Z" fill="#5B5E71"/>
<path d="M13.5681 36.168L13.5687 36.3893L18.71 39.379L18.7094 39.1577L13.5681 36.168Z" fill="#474B59"/>
<path d="M18.7094 39.1572L18.71 39.3786L19.4288 38.9635L19.4282 38.7422L18.7094 39.1572Z" fill="#525566"/>
<path d="M13.5681 36.1679L18.7094 39.1576L19.4282 38.7426L14.2869 35.7529L13.5681 36.1679Z" fill="#5B5E71"/>
<path d="M12.009 37.0645L12.0097 37.2858L17.1509 40.2755L17.1503 40.0541L12.009 37.0645Z" fill="#474B59"/>
<path d="M17.1503 40.0537L17.1509 40.275L17.8697 39.86L17.8691 39.6387L17.1503 40.0537Z" fill="#525566"/>
<path d="M12.009 37.0644L17.1503 40.0541L17.8691 39.6391L12.7279 36.6494L12.009 37.0644Z" fill="#5B5E71"/>
<path d="M15.4497 33.3284L17.3307 34.4215L19.2239 33.3285L17.343 32.2354L15.4497 33.3284Z" fill="#FED57A"/>
<path d="M15.4497 33.3281L15.4556 35.4169L17.3366 36.51L17.3307 34.4212L15.4497 33.3281Z" fill="#EFAC41"/>
<path d="M15.6285 35.2902L15.6271 34.7959L16.4344 35.265L16.4358 35.7594L15.6285 35.2902Z" fill="white"/>
<path d="M17.3307 34.4212L17.3366 36.51L19.2299 35.4169L19.224 33.3281L17.3307 34.4212Z" fill="#F9BB4A"/>
<path d="M18.73 34.5703L18.6881 34.5945L18.6903 34.832L18.7327 34.8591L18.73 34.5703Z" fill="#EFAC41"/>
<path d="M18.6902 34.832L17.8302 35.3286L17.8307 35.3799L18.7326 34.8591L18.6902 34.832Z" fill="#FED57A"/>
<path d="M18.6881 34.5947L17.828 35.0913L17.8303 35.3288L18.6903 34.8322L18.6881 34.5947Z" fill="#4C7891"/>
<path d="M18.438 33.7812V34.4211L18.2794 34.3544L18.1172 34.5941V33.9669L18.438 33.7812Z" fill="#D4DAE8"/>
<path d="M16.5564 32.6895L18.438 33.7816L18.1172 33.9673L16.2356 32.8751L16.5564 32.6895Z" fill="#E4E8F4"/>
<path d="M12.6614 34.9388L14.5423 36.0319L16.4356 34.9388L14.5547 33.8457L12.6614 34.9388Z" fill="#FED57A"/>
<path d="M12.6614 34.9385L12.6673 37.0273L14.5483 38.1204L14.5423 36.0316L12.6614 34.9385Z" fill="#EFAC41"/>
<path d="M12.8401 36.9006L12.8387 36.4062L13.6461 36.8754L13.6475 37.3697L12.8401 36.9006Z" fill="white"/>
<path d="M14.5424 36.0316L14.5483 38.1204L16.4416 37.0273L16.4356 34.9385L14.5424 36.0316Z" fill="#F9BB4A"/>
<path d="M15.9417 36.1807L15.8998 36.2049L15.9019 36.4424L15.9444 36.4695L15.9417 36.1807Z" fill="#EFAC41"/>
<path d="M15.9019 36.4424L15.0419 36.9389L15.0424 36.9902L15.9443 36.4695L15.9019 36.4424Z" fill="#FED57A"/>
<path d="M15.8998 36.2051L15.0397 36.7016L15.0419 36.9391L15.9019 36.4426L15.8998 36.2051Z" fill="#4C7891"/>
<path d="M15.6497 35.3916V36.0314L15.4911 35.9647L15.3289 36.2044V35.5772L15.6497 35.3916Z" fill="#D4DAE8"/>
<path d="M13.7681 34.2998L15.6497 35.392L15.3289 35.5776L13.4473 34.4854L13.7681 34.2998Z" fill="#E4E8F4"/>
<path d="M18.1499 34.8978L20.0309 35.9909L21.9241 34.8978L20.0432 33.8047L18.1499 34.8978Z" fill="#FED57A"/>
<path d="M18.1499 34.8975L18.1558 36.9863L20.0368 38.0794L20.0309 35.9906L18.1499 34.8975Z" fill="#EFAC41"/>
<path d="M18.3287 36.8596L18.3273 36.3652L19.1346 36.8344L19.136 37.3287L18.3287 36.8596Z" fill="white"/>
<path d="M20.0309 35.9905L20.0368 38.0793L21.9301 36.9863L21.9242 34.8975L20.0309 35.9905Z" fill="#F9BB4A"/>
<path d="M21.4302 36.1396L21.3883 36.1639L21.3905 36.4014L21.4329 36.4285L21.4302 36.1396Z" fill="#EFAC41"/>
<path d="M21.3904 36.4014L20.5304 36.8979L20.5309 36.9492L21.4328 36.4285L21.3904 36.4014Z" fill="#FED57A"/>
<path d="M21.3883 36.1641L20.5282 36.6606L20.5305 36.8981L21.3904 36.4016L21.3883 36.1641Z" fill="#4C7891"/>
<path d="M21.1382 35.3506V35.9904L20.9796 35.9237L20.8174 36.1634V35.5362L21.1382 35.3506Z" fill="#D4DAE8"/>
<path d="M19.2566 34.2588L21.1382 35.351L20.8174 35.5366L18.9358 34.4444L19.2566 34.2588Z" fill="#E4E8F4"/>
<path d="M15.3616 36.5081L17.2425 37.6012L19.1358 36.5081L17.2548 35.415L15.3616 36.5081Z" fill="#FED57A"/>
<path d="M15.3616 36.5078L15.3675 38.5966L17.2485 39.6897L17.2425 37.6009L15.3616 36.5078Z" fill="#EFAC41"/>
<path d="M15.5403 38.4699L15.5389 37.9756L16.3463 38.4447L16.3477 38.9391L15.5403 38.4699Z" fill="white"/>
<path d="M17.2426 37.6009L17.2485 39.6897L19.1417 38.5966L19.1358 36.5078L17.2426 37.6009Z" fill="#F9BB4A"/>
<path d="M18.6419 37.75L18.6 37.7742L18.6021 38.0117L18.6446 38.0388L18.6419 37.75Z" fill="#EFAC41"/>
<path d="M18.6021 38.0117L17.7421 38.5083L17.7425 38.5596L18.6445 38.0388L18.6021 38.0117Z" fill="#FED57A"/>
<path d="M18.5999 37.7744L17.7399 38.271L17.7421 38.5085L18.6021 38.0119L18.5999 37.7744Z" fill="#4C7891"/>
<path d="M18.3499 36.9609V37.6007L18.1913 37.5341L18.0291 37.7738V37.1466L18.3499 36.9609Z" fill="#D4DAE8"/>
<path d="M16.4683 35.8691L18.3499 36.9613L18.0291 37.147L16.1475 36.0548L16.4683 35.8691Z" fill="#E4E8F4"/>
<path d="M35.5503 40.2492L34.8409 39.8369L34.8438 40.8356L35.5531 41.2479L35.5503 40.2492Z" fill="#EFAC41"/>
<path d="M41.0016 37.1222L40.2923 36.71L34.8409 39.837L35.5503 40.2493L41.0016 37.1222Z" fill="#FED57A"/>
<path d="M35.5503 40.2491L35.5531 41.2478L41.0044 38.1208L41.0016 37.1221L35.5503 40.2491Z" fill="#F9BB4A"/>
<path d="M37.1237 39.5537L37.1254 40.1672L37.116 40.1726L36.5856 39.8644L37.1237 39.5537Z" fill="#EFAC41"/>
<path d="M36.1973 40.0685L36.5856 39.8643L37.116 40.1725L36.199 40.6819L36.1973 40.0685Z" fill="#FED57A"/>
<path d="M36.6927 39.9265L36.1973 40.1657V40.0685L36.5856 39.8643L36.6927 39.9265Z" fill="white"/>
<path d="M40.3104 37.7139L40.3121 38.3273L40.3026 38.3328L39.7722 38.0246L40.3104 37.7139Z" fill="#EFAC41"/>
<path d="M37.8071 39.159L39.7722 38.0244L40.3026 38.3326L37.8089 39.7724L37.8071 39.159Z" fill="#FED57A"/>
<path d="M39.8793 38.0866L37.8071 39.2562V39.159L39.7722 38.0244L39.8793 38.0866Z" fill="white"/>
<path d="M33.3305 38.9591L32.6211 38.5469L32.6239 39.5456L33.3333 39.9578L33.3305 38.9591Z" fill="#EFAC41"/>
<path d="M38.7818 35.8322L38.0724 35.4199L32.6211 38.547L33.3305 38.9592L38.7818 35.8322Z" fill="#FED57A"/>
<path d="M33.3304 38.9591L33.3333 39.9578L38.7846 36.8307L38.7818 35.832L33.3304 38.9591Z" fill="#F9BB4A"/>
<path d="M34.9039 38.2637L34.9056 38.8771L34.8961 38.8826L34.3657 38.5744L34.9039 38.2637Z" fill="#EFAC41"/>
<path d="M33.9774 38.7784L34.3657 38.5742L34.8961 38.8824L33.9792 39.3919L33.9774 38.7784Z" fill="#FED57A"/>
<path d="M34.4728 38.6364L33.9774 38.8757V38.7784L34.3657 38.5742L34.4728 38.6364Z" fill="white"/>
<path d="M38.0905 36.4238L38.0922 37.0373L38.0828 37.0427L37.5524 36.7345L38.0905 36.4238Z" fill="#EFAC41"/>
<path d="M35.5873 37.8689L37.5524 36.7344L38.0828 37.0426L35.589 38.4824L35.5873 37.8689Z" fill="#FED57A"/>
<path d="M37.6595 36.7966L35.5873 37.9662V37.8689L37.5524 36.7344L37.6595 36.7966Z" fill="white"/>
<path d="M31.1107 37.6691L30.4014 37.2568L30.4042 38.2555L31.1136 38.6678L31.1107 37.6691Z" fill="#EFAC41"/>
<path d="M36.5621 34.5421L35.8527 34.1299L30.4014 37.257L31.1107 37.6692L36.5621 34.5421Z" fill="#FED57A"/>
<path d="M31.1107 37.6691L31.1135 38.6678L36.5649 35.5407L36.562 34.542L31.1107 37.6691Z" fill="#F9BB4A"/>
<path d="M32.6841 36.9736L32.6859 37.5871L32.6764 37.5925L32.146 37.2843L32.6841 36.9736Z" fill="#EFAC41"/>
<path d="M31.7577 37.4884L32.146 37.2842L32.6764 37.5924L31.7594 38.1018L31.7577 37.4884Z" fill="#FED57A"/>
<path d="M32.2531 37.3464L31.7577 37.5856V37.4884L32.146 37.2842L32.2531 37.3464Z" fill="white"/>
<path d="M35.8708 35.1338L35.8725 35.7472L35.863 35.7527L35.3326 35.4445L35.8708 35.1338Z" fill="#EFAC41"/>
<path d="M33.3676 36.5789L35.3327 35.4443L35.8631 35.7526L33.3693 37.1923L33.3676 36.5789Z" fill="#FED57A"/>
<path d="M35.4397 35.5066L33.3676 36.6761V36.5789L35.3327 35.4443L35.4397 35.5066Z" fill="white"/>
<path d="M35.092 34.3535L35.0927 34.5749L40.2339 37.5646L40.2333 37.3432L35.092 34.3535Z" fill="#474B59"/>
<path d="M40.2334 37.3427L40.234 37.5641L40.9529 37.1491L40.9522 36.9277L40.2334 37.3427Z" fill="#525566"/>
<path d="M35.092 34.3535L40.2333 37.3432L40.9521 36.9282L35.8109 33.9385L35.092 34.3535Z" fill="#5B5E71"/>
<path d="M33.533 35.25L33.5336 35.4713L38.6748 38.461L38.6742 38.2397L33.533 35.25Z" fill="#474B59"/>
<path d="M38.6742 38.2392L38.6748 38.4606L39.3936 38.0456L39.393 37.8242L38.6742 38.2392Z" fill="#525566"/>
<path d="M33.533 35.25L38.6742 38.2397L39.393 37.8247L34.2518 34.835L33.533 35.25Z" fill="#5B5E71"/>
<path d="M31.9739 36.1465L31.9745 36.3678L37.1158 39.3575L37.1151 39.1362L31.9739 36.1465Z" fill="#474B59"/>
<path d="M37.1151 39.1357L37.1157 39.3571L37.8346 38.9421L37.8339 38.7207L37.1151 39.1357Z" fill="#525566"/>
<path d="M31.9739 36.1465L37.1151 39.1362L37.834 38.7211L32.6927 35.7314L31.9739 36.1465Z" fill="#5B5E71"/>
<path d="M30.4148 37.043L30.4154 37.2643L35.5567 40.254L35.556 40.0327L30.4148 37.043Z" fill="#474B59"/>
<path d="M35.556 40.0322L35.5567 40.2536L36.2755 39.8385L36.2749 39.6172L35.556 40.0322Z" fill="#525566"/>
<path d="M30.4148 37.0429L35.556 40.0326L36.2749 39.6176L31.1336 36.6279L30.4148 37.0429Z" fill="#5B5E71"/>
<path d="M33.8555 33.307L35.7364 34.4L37.6297 33.307L35.7487 32.2139L33.8555 33.307Z" fill="#FED57A"/>
<path d="M33.8555 33.3066L33.8614 35.3954L35.7424 36.4885L35.7364 34.3997L33.8555 33.3066Z" fill="#EFAC41"/>
<path d="M34.0342 35.2687L34.0328 34.7744L34.8402 35.2436L34.8416 35.7379L34.0342 35.2687Z" fill="white"/>
<path d="M35.7365 34.3997L35.7424 36.4885L37.6356 35.3954L37.6297 33.3066L35.7365 34.3997Z" fill="#F9BB4A"/>
<path d="M37.1358 34.5488L37.0939 34.573L37.096 34.8105L37.1384 34.8376L37.1358 34.5488Z" fill="#EFAC41"/>
<path d="M37.096 34.8105L36.236 35.3071L36.2364 35.3584L37.1384 34.8377L37.096 34.8105Z" fill="#FED57A"/>
<path d="M37.0938 34.5732L36.2338 35.0698L36.236 35.3073L37.096 34.8108L37.0938 34.5732Z" fill="#4C7891"/>
<path d="M36.8438 33.7598V34.3996L36.6852 34.3329L36.523 34.5726V33.9454L36.8438 33.7598Z" fill="#D4DAE8"/>
<path d="M34.9622 32.668L36.8438 33.7602L36.523 33.9458L34.6414 32.8536L34.9622 32.668Z" fill="#E4E8F4"/>
<path d="M31.0671 34.9173L32.9481 36.0104L34.8414 34.9173L32.9604 33.8242L31.0671 34.9173Z" fill="#FED57A"/>
<path d="M31.0671 34.917L31.0731 37.0058L32.954 38.0989L32.9481 36.0101L31.0671 34.917Z" fill="#EFAC41"/>
<path d="M31.2459 36.8791L31.2445 36.3848L32.0518 36.8539L32.0532 37.3482L31.2459 36.8791Z" fill="white"/>
<path d="M32.9481 36.0101L32.954 38.0989L34.8473 37.0058L34.8414 34.917L32.9481 36.0101Z" fill="#F9BB4A"/>
<path d="M34.3475 36.1592L34.3055 36.1834L34.3077 36.4209L34.3501 36.448L34.3475 36.1592Z" fill="#EFAC41"/>
<path d="M34.3076 36.4209L33.4476 36.9175L33.4481 36.9688L34.35 36.448L34.3076 36.4209Z" fill="#FED57A"/>
<path d="M34.3055 36.1836L33.4454 36.6802L33.4477 36.9177L34.3077 36.4211L34.3055 36.1836Z" fill="#4C7891"/>
<path d="M34.0554 35.3701V36.0099L33.8968 35.9433L33.7346 36.183V35.5558L34.0554 35.3701Z" fill="#D4DAE8"/>
<path d="M32.1738 34.2783L34.0554 35.3705L33.7346 35.5561L31.853 34.464L32.1738 34.2783Z" fill="#E4E8F4"/>
<path d="M36.5557 34.8763L38.4366 35.9694L40.3299 34.8763L38.4489 33.7832L36.5557 34.8763Z" fill="#FED57A"/>
<path d="M36.5557 34.876L36.5616 36.9648L38.4426 38.0579L38.4366 35.9691L36.5557 34.876Z" fill="#EFAC41"/>
<path d="M36.7344 36.8381L36.733 36.3438L37.5404 36.8129L37.5418 37.3072L36.7344 36.8381Z" fill="white"/>
<path d="M38.4366 35.9691L38.4426 38.0579L40.3358 36.9648L40.3299 34.876L38.4366 35.9691Z" fill="#F9BB4A"/>
<path d="M39.836 36.1182L39.7941 36.1424L39.7962 36.3799L39.8386 36.407L39.836 36.1182Z" fill="#EFAC41"/>
<path d="M39.7961 36.3799L38.9362 36.8764L38.9366 36.9277L39.8386 36.407L39.7961 36.3799Z" fill="#FED57A"/>
<path d="M39.794 36.1426L38.934 36.6391L38.9362 36.8766L39.7962 36.3801L39.794 36.1426Z" fill="#4C7891"/>
<path d="M39.544 35.3291V35.9689L39.3854 35.9022L39.2231 36.1419V35.5147L39.544 35.3291Z" fill="#D4DAE8"/>
<path d="M37.6624 34.2373L39.544 35.3295L39.2232 35.5151L37.3416 34.4229L37.6624 34.2373Z" fill="#E4E8F4"/>
<path d="M33.7673 36.4866L35.6483 37.5797L37.5416 36.4867L35.6606 35.3936L33.7673 36.4866Z" fill="#FED57A"/>
<path d="M33.7673 36.4863L33.7733 38.5751L35.6542 39.6682L35.6483 37.5794L33.7673 36.4863Z" fill="#EFAC41"/>
<path d="M33.9461 38.4484L33.9447 37.9541L34.752 38.4233L34.7534 38.9176L33.9461 38.4484Z" fill="white"/>
<path d="M35.6483 37.5794L35.6542 39.6682L37.5475 38.5751L37.5416 36.4863L35.6483 37.5794Z" fill="#F9BB4A"/>
<path d="M37.0477 37.7285L37.0057 37.7527L37.0079 37.9902L37.0503 38.0173L37.0477 37.7285Z" fill="#EFAC41"/>
<path d="M37.0078 37.9902L36.1478 38.4868L36.1483 38.5381L37.0502 38.0173L37.0078 37.9902Z" fill="#FED57A"/>
<path d="M37.0057 37.7529L36.1456 38.2495L36.1479 38.487L37.0079 37.9904L37.0057 37.7529Z" fill="#4C7891"/>
<path d="M36.7556 36.9395V37.5793L36.597 37.5126L36.4348 37.7523V37.1251L36.7556 36.9395Z" fill="#D4DAE8"/>
<path d="M34.874 35.8477L36.7556 36.9398L36.4348 37.1255L34.5532 36.0333L34.874 35.8477Z" fill="#E4E8F4"/>
</g>
<defs>
<radialGradient id="paint0_radial_1827_12685" cx="0" cy="0" r="1" gradientUnits="userSpaceOnUse" gradientTransform="translate(26.5 26.5) rotate(90) scale(26.5)">
<stop stop-color="white"/>
<stop offset="1" stop-color="#D6AE00"/>
</radialGradient>
<clipPath id="clip0_1827_12685">
<rect width="30" height="30" fill="white" transform="translate(11.5 11.5)"/>
</clipPath>
</defs>
</svg>
