<svg width="53" height="53" viewBox="0 0 53 53" fill="none" xmlns="http://www.w3.org/2000/svg">
<rect width="53" height="53" rx="26.5" fill="url(#paint0_radial_1780_13964)" fill-opacity="0.21"/>
<path fill-rule="evenodd" clip-rule="evenodd" d="M18.0732 22.3682H18.0744C21.2814 22.3685 23.942 24.8859 24.1165 28.0871L24.124 28.2246H21.2698L21.3485 28.0424C21.3605 28.0148 21.3716 27.988 21.3857 27.9638C21.5765 27.6196 21.4867 27.1938 21.173 26.9562C20.9837 26.8128 20.7836 26.683 20.5756 26.5683C20.3679 26.4537 20.1518 26.3532 19.9301 26.2691C19.5623 26.1297 19.1531 26.28 18.9634 26.6247C18.7928 26.9348 18.4674 27.1314 18.1135 27.1381C17.7585 27.1448 17.4282 26.9613 17.2454 26.6572C17.0423 26.3195 16.6317 26.1849 16.2683 26.3374C15.8286 26.5218 15.4176 26.7683 15.0487 27.0702C14.761 27.3056 14.678 27.7041 14.8476 28.0347L14.9451 28.2246H12.0236L12.0311 28.0872C12.2053 24.8862 14.8666 22.3685 18.0732 22.3682Z" fill="#60B7FF"/>
<path fill-rule="evenodd" clip-rule="evenodd" d="M28.6311 25.8482V23.6155L29.4464 22.8256C29.4844 22.7888 29.506 22.7379 29.506 22.685C29.506 22.6321 29.4845 22.5813 29.4464 22.5445L28.6311 21.7548V18.9456L34.6091 22.3969V29.2996L28.6311 25.8482ZM33.109 16.1343L39.087 19.5857L40.7825 18.6066L34.8048 15.1553L33.109 16.1343ZM28.8269 18.6066L34.8048 22.0579L37.0734 20.7481L31.0952 17.2968L28.8269 18.6066ZM39.2827 19.9244L40.9782 18.9456V25.8482L35.0002 29.2996V22.3969L37.2692 21.0871V23.9306C37.2692 24.0005 37.3065 24.0649 37.3669 24.0998C37.3969 24.1171 37.4302 24.1263 37.4648 24.1263C37.4994 24.1263 37.5327 24.1171 37.5626 24.0998L39.1848 23.1633C39.2454 23.1283 39.2827 23.0637 39.2827 22.9938L39.2827 19.9244Z" fill="#C49E6C"/>
<path fill-rule="evenodd" clip-rule="evenodd" d="M27.3702 24.2916V23.4246C27.3702 23.3165 27.2825 23.2289 27.1744 23.2289H24.4758V22.1402H27.1744C27.2824 22.1402 27.3701 22.0525 27.3701 21.9445V21.0771L29.0295 22.6844L27.3702 24.2916Z" fill="#00E499"/>
<path fill-rule="evenodd" clip-rule="evenodd" d="M38.8913 22.8802L37.6606 23.5908V20.8604L38.8913 20.1497V22.8802ZM31.4862 17.07L37.4649 20.5213L38.6955 19.8107L32.718 16.3594L31.4862 17.07Z" fill="#FD4755"/>
<path fill-rule="evenodd" clip-rule="evenodd" d="M15.2188 19.1219C15.2188 17.5473 16.4994 16.2666 18.074 16.2666C19.6485 16.2666 20.9292 17.5473 20.9292 19.1219C20.9292 20.6963 19.649 21.9767 18.074 21.9771H18.0734C16.4991 21.9771 15.2188 20.6961 15.2188 19.1219Z" fill="#F1CBBC"/>
<path fill-rule="evenodd" clip-rule="evenodd" d="M24.7286 31.9484C24.7181 31.8401 24.7871 31.7427 24.8928 31.7169C25.1848 31.6456 25.4869 31.6172 25.7871 31.6321C25.8956 31.6374 25.9818 31.7201 25.992 31.8282C26.0265 32.1919 26.2541 32.5129 26.5866 32.6645C26.9191 32.8162 27.3112 32.7783 27.6085 32.5657C27.6972 32.5022 27.8163 32.5134 27.8917 32.5924C27.9952 32.7008 28.0914 32.8169 28.1782 32.9392C28.265 33.0614 28.3433 33.1899 28.412 33.3233C28.4617 33.42 28.4336 33.5359 28.345 33.5989C28.0471 33.8107 27.883 34.1689 27.9179 34.5328C27.9529 34.8967 28.1817 35.2167 28.5145 35.3679C28.6133 35.4129 28.6632 35.5214 28.6328 35.6257C28.5486 35.9147 28.4231 36.19 28.2603 36.4431C28.2014 36.5347 28.0872 36.5682 27.9882 36.5228C27.6557 36.3706 27.2636 36.4073 26.9657 36.6195C26.6677 36.8318 26.5049 37.1904 26.5404 37.5545C26.551 37.6626 26.4823 37.7602 26.3765 37.786C26.0845 37.8573 25.7823 37.8854 25.4821 37.8708C25.3734 37.8655 25.2876 37.7829 25.2774 37.6747C25.2429 37.3109 25.0151 36.9901 24.6825 36.8384C24.549 36.7775 24.4045 36.7463 24.2578 36.7463C24.0438 36.7463 23.8348 36.8127 23.6607 36.9372C23.5725 37.0004 23.4526 36.9893 23.3777 36.9107C23.2743 36.8021 23.1781 36.686 23.0913 36.5637C23.0045 36.4414 22.9256 36.3129 22.8572 36.1794C22.8076 36.0828 22.836 35.9668 22.9245 35.9039C23.2224 35.6924 23.3866 35.3339 23.3515 34.9702C23.3164 34.6065 23.0873 34.2863 22.7548 34.1349C22.6558 34.0898 22.6061 33.9815 22.6367 33.877C22.721 33.5885 22.8458 33.3128 23.0081 33.0598C23.0672 32.9679 23.1819 32.9345 23.2812 32.9799C23.6137 33.1321 24.0056 33.0952 24.3034 32.883C24.6013 32.6708 24.7639 32.3124 24.7286 31.9484ZM21.1184 34.3723C21.2304 34.245 21.2489 34.0591 21.1581 33.9093C20.9024 33.4877 20.8924 32.9555 21.1307 32.5241C21.3694 32.0921 21.825 31.8189 22.3184 31.8106C22.5159 31.8073 22.6781 31.6615 22.7027 31.4656C22.7574 31.0309 22.7488 30.5885 22.6772 30.1562C22.6451 29.962 22.4771 29.8225 22.2804 29.8262C21.789 29.8356 21.322 29.5785 21.0684 29.1574C20.8141 28.735 20.8051 28.2038 21.0439 27.7726C21.1392 27.6007 21.0933 27.386 20.9369 27.2672C20.7628 27.135 20.5784 27.0155 20.387 26.9097C20.1955 26.804 19.9964 26.7114 19.7917 26.6341C19.6079 26.5645 19.4012 26.6403 19.3064 26.8126C19.069 27.2445 18.6143 27.5202 18.1213 27.5286C17.6288 27.537 17.1638 27.2801 16.91 26.8578C16.8086 26.6889 16.6009 26.621 16.4192 26.6971C16.0146 26.8669 15.6369 27.0944 15.2972 27.3721C15.1443 27.4971 15.1074 27.7123 15.2095 27.8813C15.4646 28.3034 15.4756 28.8345 15.2369 29.2663C14.9981 29.6983 14.5427 29.9715 14.0492 29.9798C13.8517 29.9832 13.6896 30.1288 13.6648 30.3248C13.6099 30.7596 13.6191 31.2018 13.6906 31.6343C13.7229 31.8296 13.8895 31.9691 14.088 31.9641C14.0968 31.9639 14.1057 31.9639 14.1146 31.9639C14.5982 31.9639 15.0499 32.2188 15.2995 32.633C15.554 33.0553 15.5627 33.5865 15.3237 34.0177C15.2285 34.1894 15.2744 34.4045 15.4308 34.5229C15.6051 34.6548 15.7893 34.7748 15.9806 34.8806C16.172 34.9864 16.3715 35.0786 16.5761 35.1562C16.7597 35.2258 16.9666 35.1498 17.0613 34.9777C17.2991 34.5456 17.7538 34.2715 18.2468 34.2617C18.7385 34.2519 19.2044 34.5114 19.4577 34.9327C19.5591 35.1012 19.7673 35.1693 19.9486 35.0932C20.3529 34.9234 20.7312 34.6963 21.0705 34.4186L21.1184 34.3794V34.3723ZM19.0609 29.3093C19.4847 29.5435 19.7915 29.9284 19.9254 30.3937C20.0588 30.8573 20.0034 31.3497 19.7701 31.7719C19.5359 32.1959 19.1511 32.5027 18.6856 32.6368C18.5215 32.684 18.3517 32.7083 18.1809 32.7083C17.8745 32.7083 17.5755 32.6293 17.3075 32.4812C16.8837 32.247 16.5763 31.8624 16.4423 31.3971C16.3088 30.9332 16.3649 30.4409 16.5982 30.0185C16.8321 29.5948 17.2173 29.2877 17.6823 29.1537C18.1462 29.0201 18.6384 29.0759 19.0609 29.3093ZM24.8657 33.6724C24.2707 34.0963 24.1312 34.9256 24.5552 35.5206C24.8051 35.8713 25.2071 36.0763 25.6366 36.0763C25.9125 36.0763 26.1787 35.9909 26.4035 35.8308C26.6921 35.6253 26.8831 35.3202 26.9417 34.9707C27.0002 34.6216 26.9197 34.2706 26.7143 33.9823C26.5088 33.6937 26.2032 33.503 25.8538 33.4444C25.5045 33.3858 25.154 33.467 24.8657 33.6724Z" fill="#FFD266"/>
<path fill-rule="evenodd" clip-rule="evenodd" d="M26.4271 34.8849C26.3916 35.0965 26.2756 35.2819 26.1009 35.4062C25.9263 35.5308 25.7134 35.5799 25.5015 35.5442C25.2902 35.5088 25.1048 35.393 24.9805 35.218C24.7228 34.8574 24.8077 34.3548 25.1684 34.0977C25.3058 33.9993 25.467 33.9483 25.6325 33.9483C25.6777 33.9483 25.7226 33.952 25.7675 33.9594C25.9791 33.9951 26.1642 34.1108 26.2887 34.2855C26.4133 34.4604 26.4621 34.6733 26.4271 34.8849ZM25.8753 33.3162C25.4917 33.2521 25.1063 33.3409 24.79 33.5666C24.1359 34.0323 23.9832 34.9432 24.4489 35.5967C24.7326 35.9949 25.1812 36.2071 25.6365 36.2071C25.9287 36.2071 26.2234 36.1195 26.479 35.9375C26.796 35.7118 27.0061 35.3762 27.0702 34.9927C27.1347 34.6094 27.0458 34.2237 26.8204 33.9071C26.5947 33.5904 26.2588 33.3806 25.8753 33.3162ZM28.5075 35.5897C28.5197 35.5475 28.5002 35.5054 28.4605 35.4871C28.0849 35.3167 27.8278 34.9557 27.7881 34.5456C27.7491 34.1352 27.9335 33.7321 28.2694 33.493C28.3054 33.4676 28.3164 33.4225 28.2959 33.3834C28.2309 33.2563 28.1551 33.1327 28.0718 33.0151C27.9884 32.8978 27.8955 32.786 27.7972 32.6829C27.7664 32.6508 27.7202 32.6465 27.6842 32.6722C27.3492 32.9119 26.9076 32.9546 26.5323 32.7836C26.1576 32.6126 25.9005 32.2514 25.862 31.841C25.8574 31.7973 25.8242 31.7653 25.7805 31.7628C25.4916 31.7488 25.2033 31.7759 24.9236 31.844C24.8806 31.8547 24.854 31.8926 24.8583 31.9363C24.898 32.347 24.7147 32.7507 24.3789 32.9898C24.0432 33.2292 23.6017 33.2711 23.2267 33.0991C23.186 33.0808 23.1418 33.0939 23.1176 33.1308C22.9625 33.373 22.8425 33.6365 22.7615 33.9141C22.749 33.9562 22.7686 33.9984 22.8086 34.0167C23.1836 34.1874 23.441 34.5483 23.481 34.9582C23.5201 35.3686 23.3356 35.7719 22.9997 36.0108C22.9637 36.0361 22.9527 36.0813 22.9728 36.1204C23.0379 36.2474 23.1139 36.3711 23.1973 36.4887C23.2807 36.6059 23.3735 36.7177 23.4718 36.8212C23.5023 36.853 23.5488 36.8573 23.5845 36.8316C23.7836 36.6893 24.0196 36.6163 24.2575 36.6163C24.4206 36.6163 24.5837 36.6505 24.7364 36.7201C25.1114 36.8911 25.3682 37.2524 25.4069 37.6628C25.4112 37.7067 25.4445 37.7385 25.4881 37.7409C25.777 37.7547 26.0656 37.7278 26.3453 37.6597C26.3883 37.649 26.4149 37.6111 26.4103 37.5675C26.3706 37.1568 26.5538 36.7531 26.8897 36.5136C27.2256 36.2746 27.6672 36.2328 28.0422 36.4046C28.0825 36.4229 28.1267 36.4098 28.1502 36.3728C28.3066 36.1308 28.4266 35.8673 28.5075 35.5897ZM28.7305 34.8935C28.5668 34.8192 28.4547 34.662 28.4376 34.4834C28.4199 34.3047 28.5008 34.1292 28.6471 34.0247C28.9494 33.8097 29.0462 33.4146 28.8758 33.0845C28.7965 32.9302 28.7045 32.7794 28.6025 32.6368C28.5008 32.4942 28.3888 32.358 28.2687 32.2325C28.0125 31.9641 27.6073 31.926 27.3053 32.1416C27.1587 32.2463 26.9663 32.265 26.8032 32.1904C26.6401 32.1159 26.5281 31.9584 26.511 31.7794C26.4765 31.4108 26.1824 31.1302 25.8126 31.1119C25.4611 31.0941 25.1096 31.1277 24.7691 31.2108C24.4085 31.2987 24.173 31.6304 24.2088 31.9998C24.2264 32.1788 24.1467 32.3547 24.0002 32.4588C23.8539 32.5633 23.6615 32.5816 23.4979 32.5065C23.1608 32.3516 22.7702 32.4658 22.5699 32.778C22.3793 33.0729 22.2333 33.3939 22.1356 33.7322C22.0318 34.0876 22.2016 34.4572 22.5388 34.6104C22.7024 34.6846 22.8145 34.8419 22.8316 35.0205C22.849 35.1991 22.7681 35.375 22.6214 35.4792C22.3188 35.6941 22.223 36.0896 22.3931 36.4194C22.4728 36.574 22.5647 36.7245 22.6664 36.8671C22.7681 37.0099 22.8805 37.1459 23.0004 37.2717C23.2566 37.5398 23.6615 37.5782 23.9635 37.3624C24.1104 37.2576 24.3022 37.239 24.4656 37.3135C24.6286 37.388 24.7411 37.5456 24.7582 37.7245C24.7927 38.0931 25.0867 38.3741 25.4565 38.3921C25.517 38.3952 25.5771 38.3967 25.6376 38.3967C25.9286 38.3967 26.2175 38.3622 26.5 38.2932C26.8606 38.2052 27.0961 37.8735 27.0594 37.5041C27.0426 37.3251 27.122 37.1493 27.2689 37.0451C27.4148 36.9407 27.6072 36.9226 27.7709 36.9975C28.1083 37.1523 28.4989 37.0378 28.699 36.7261C28.8889 36.4311 29.0348 36.1101 29.1335 35.7718C29.2371 35.4162 29.0676 35.0467 28.7305 34.8935ZM19.3132 31.52C19.1468 31.8217 18.8723 32.0404 18.5409 32.1357C18.2096 32.2313 17.8615 32.1919 17.5594 32.0252C17.2581 31.8585 17.0388 31.5842 16.9439 31.2529C16.8486 30.9216 16.8876 30.5731 17.0547 30.2714C17.2208 29.9697 17.4954 29.751 17.8267 29.6558C17.9449 29.6216 18.0655 29.6048 18.1855 29.6048C18.4014 29.6048 18.6146 29.6591 18.8085 29.7663C19.1096 29.9331 19.3288 30.2073 19.4241 30.5386C19.5193 30.8696 19.4802 31.2184 19.3132 31.52ZM19.1239 29.1956C18.6695 28.9446 18.1452 28.8853 17.6462 29.0288C17.1478 29.1726 16.7343 29.5018 16.4839 29.9559C16.2329 30.41 16.1734 30.9346 16.3169 31.4336C16.4605 31.932 16.7899 32.3448 17.2444 32.5958C17.536 32.757 17.857 32.8392 18.181 32.8392C18.3617 32.8392 18.5434 32.8138 18.7218 32.7626C19.2208 32.6188 19.6333 32.2895 19.8844 31.8354C20.1351 31.3814 20.1943 30.8567 20.0508 30.3581C19.9071 29.8594 19.5779 29.4466 19.1239 29.1956ZM21.0165 32.4615C20.7557 32.9342 20.7667 33.515 21.0465 33.9774C21.1158 34.0906 21.091 34.2339 20.9878 34.3179V34.3182C20.6587 34.5875 20.2919 34.808 19.898 34.9735C19.7762 35.0245 19.6378 34.9793 19.5694 34.866C19.2915 34.4034 18.7822 34.1206 18.2441 34.1319C17.7048 34.142 17.2074 34.4422 16.9469 34.9155C16.883 35.0315 16.7459 35.0819 16.6223 35.0349C16.4247 34.9601 16.2302 34.87 16.0436 34.7671C15.8579 34.6642 15.6777 34.5473 15.5095 34.4196C15.4038 34.3399 15.3739 34.1976 15.4377 34.0816C15.7 33.6091 15.6897 33.0284 15.4112 32.5663C15.1379 32.1125 14.6435 31.8341 14.1146 31.8341C14.1048 31.8341 14.095 31.8341 14.0847 31.8343C13.9503 31.8377 13.8407 31.7439 13.8193 31.6136C13.7494 31.1919 13.7409 30.7641 13.7943 30.3417C13.8108 30.2101 13.9188 30.113 14.0514 30.1108C14.5919 30.1016 15.0896 29.8024 15.351 29.33C15.6121 28.8573 15.6008 28.2767 15.3211 27.8144C15.2526 27.7008 15.2768 27.5576 15.3797 27.4737C15.7092 27.204 16.0756 26.9836 16.4695 26.818C16.5917 26.767 16.7297 26.8122 16.7981 26.9255C17.076 27.3884 17.5841 27.6679 18.1234 27.6596C18.6626 27.6495 19.1604 27.3494 19.4205 26.876C19.4844 26.76 19.6215 26.7099 19.7454 26.7566C19.943 26.8314 20.1373 26.9215 20.3238 27.0244C20.5098 27.1273 20.6896 27.2439 20.8579 27.3716C20.9636 27.4519 20.9935 27.5942 20.9297 27.7099C20.6676 28.1824 20.678 28.7632 20.9565 29.2252C21.2347 29.6875 21.745 29.967 22.2827 29.9572C22.4146 29.9541 22.5267 30.0476 22.5484 30.1779C22.6181 30.5996 22.6266 31.0278 22.5731 31.4498C22.5569 31.5814 22.4486 31.6785 22.316 31.6807C21.7757 31.6898 21.2779 31.9891 21.0165 32.4615ZM18.0734 22.4982C14.918 22.4985 12.3309 24.98 12.1615 28.0938H14.7318C14.5348 27.7099 14.6273 27.2464 14.9663 26.9688C15.3446 26.6595 15.7655 26.4063 16.218 26.2167C16.6412 26.039 17.1207 26.1959 17.3573 26.5896C17.5158 26.8531 17.802 27.0134 18.1113 27.0073C18.4185 27.0018 18.7016 26.8308 18.8494 26.5615C19.0717 26.158 19.5459 25.9837 19.9765 26.1468C20.2028 26.2326 20.4257 26.3358 20.6389 26.4537C20.8529 26.5715 21.059 26.7056 21.252 26.8519C21.6191 27.1298 21.7235 27.6235 21.5 28.0266C21.4875 28.0483 21.4783 28.0712 21.4685 28.0938H23.9866C23.8169 24.98 21.2307 22.4985 18.0747 22.4982C18.0747 22.4982 18.0747 22.4982 18.0741 22.4982C18.074 22.4982 18.074 22.4982 18.0734 22.4982ZM15.3492 19.1211C15.3492 17.6187 16.5713 16.3963 18.074 16.3963C19.5767 16.3963 20.7988 17.6187 20.7988 19.1211C20.7988 20.6235 19.577 21.8456 18.0746 21.8459C18.0746 21.8459 18.0746 21.8459 18.074 21.8459H18.0734C16.5713 21.8456 15.3492 20.6236 15.3492 19.1211ZM21.5872 32.7772C21.4391 33.0459 21.4455 33.3764 21.6047 33.6396C21.8428 34.0335 21.7573 34.531 21.4013 34.8226C21.023 35.1319 20.6025 35.3851 20.1499 35.5747C19.7267 35.7524 19.2473 35.5955 19.0106 35.2019C18.8521 34.9383 18.5638 34.7783 18.2566 34.7842C17.9494 34.79 17.6663 34.9606 17.5182 35.23C17.3521 35.5317 17.0449 35.7055 16.72 35.7055C16.6113 35.7055 16.4995 35.6859 16.3915 35.6447C16.1646 35.5589 15.9413 35.4557 15.7288 35.3378C15.5148 35.2196 15.3086 35.0859 15.1156 34.9396C14.7486 34.6617 14.6441 34.1677 14.8679 33.7651C15.0173 33.4961 15.0115 33.1657 14.853 32.9028C14.6945 32.6398 14.405 32.4802 14.0978 32.4862C13.6351 32.496 13.2504 32.1729 13.1756 31.7197C13.0959 31.236 13.0861 30.7447 13.1474 30.2601C13.2049 29.8035 13.5805 29.4664 14.041 29.4585C14.3482 29.4533 14.6318 29.2832 14.7806 29.0142C14.8267 28.9296 14.857 28.8386 14.8725 28.7457H11.8262C11.6463 28.7457 11.5 28.5998 11.5 28.4196C11.5 25.3689 13.5896 22.7971 16.4121 22.059C15.3888 21.4782 14.6969 20.3792 14.6969 19.1211C14.6969 17.2589 16.2121 15.744 18.0739 15.744C19.9357 15.744 21.4507 17.2589 21.4507 19.1211C21.4507 20.3792 20.7587 21.4782 19.7363 22.059C22.5588 22.7971 24.6479 25.3689 24.6479 28.4196C24.6479 28.5997 24.5016 28.7457 24.3217 28.7457H21.4483C21.4667 28.7949 21.4874 28.8432 21.5149 28.8887C21.6734 29.1516 21.9635 29.3119 22.2701 29.3052C22.7291 29.296 23.1172 29.6185 23.1923 30.0717C23.2717 30.5554 23.2814 31.0464 23.221 31.5314C23.163 31.9879 22.787 32.325 22.3275 32.333C22.0197 32.3381 21.736 32.5082 21.5872 32.7772ZM35.1307 29.0731V22.4717L37.1387 21.3125V23.9301C37.1387 24.0464 37.2007 24.1542 37.3018 24.2122C37.3522 24.2415 37.4081 24.2562 37.4649 24.2562C37.5211 24.2562 37.5769 24.2415 37.6279 24.2122L39.2501 23.2756C39.3508 23.2173 39.4132 23.1099 39.4132 22.9932V19.9991L40.8478 19.171V25.7724L35.1307 29.0731ZM28.7616 23.6702L29.5372 22.9187C29.6004 22.8573 29.6364 22.7728 29.6364 22.6845C29.6364 22.5963 29.6004 22.512 29.5372 22.4503L28.7616 21.6991V19.171L34.4787 22.4717V29.0731L28.7616 25.7724V23.6702ZM27.1742 23.0986C27.3541 23.0986 27.5004 23.2445 27.5004 23.4247V23.9838L28.8419 22.6845L27.5004 21.3851V21.9446C27.5004 22.1248 27.3541 22.2707 27.1742 22.2707H24.6061V23.0986H27.1742ZM37.791 20.936V23.3652L38.7609 22.8052V20.376L37.791 20.936ZM37.4649 20.371L38.4347 19.811L32.718 16.5102L31.7472 17.0703L37.4649 20.371ZM34.8048 21.9067L36.8126 20.7476L31.0952 17.4468L29.0877 18.606L34.8048 21.9067ZM34.8048 15.3053L33.3699 16.1337L39.087 19.4344L40.5217 18.606L34.8048 15.3053ZM41.337 18.3235C41.438 18.3818 41.5 18.4893 41.5 18.606V25.9605C41.5 26.0772 41.438 26.1846 41.337 26.243L34.9676 29.9202C34.9175 29.9492 34.8607 29.9639 34.8048 29.9639C34.7486 29.9639 34.6925 29.9492 34.6418 29.9202L28.2724 26.243C28.1716 26.1846 28.1096 26.0772 28.1096 25.9605V24.302L27.4011 24.9879C27.3394 25.048 27.257 25.0798 27.1742 25.0798C27.1312 25.0798 27.0882 25.0716 27.0472 25.0542C26.9266 25.0029 26.8481 24.8847 26.8481 24.7537V23.7509H24.2799C24.0997 23.7509 23.9538 23.6046 23.9538 23.4247V21.9446C23.9538 21.7644 24.0997 21.6185 24.2799 21.6185H26.8481V20.6154C26.8481 20.4844 26.9266 20.3662 27.0472 20.3152C27.1678 20.2642 27.3074 20.2901 27.4011 20.3811L28.1096 21.0673V18.606C28.1096 18.4893 28.1716 18.3818 28.2724 18.3235L34.6418 14.6463C34.7429 14.588 34.8668 14.588 34.9676 14.6463L41.337 18.3235Z" fill="black"/>
<defs>
<radialGradient id="paint0_radial_1780_13964" cx="0" cy="0" r="1" gradientUnits="userSpaceOnUse" gradientTransform="translate(26.5 26.5) rotate(90) scale(26.5)">
<stop stop-color="white"/>
<stop offset="1" stop-color="#77C7AD"/>
</radialGradient>
</defs>
</svg>
