<svg width="53" height="53" viewBox="0 0 53 53" fill="none" xmlns="http://www.w3.org/2000/svg">
<rect width="53" height="53" rx="26.5" fill="url(#paint0_radial_1780_13911)" fill-opacity="0.21"/>
<g clip-path="url(#clip0_1780_13911)">
<path fill-rule="evenodd" clip-rule="evenodd" d="M30.6855 26.2588H37.4206C38.7709 26.2588 39.8738 27.3616 39.8738 28.712V36.7509C39.8738 38.1012 38.771 39.2041 37.4206 39.2041H30.5493V40.5478L26.6162 37.9285L30.5493 35.3109V36.6546H37.3242V28.8083H30.6855V26.2588Z" fill="#FBC02D"/>
<path fill-rule="evenodd" clip-rule="evenodd" d="M30.6855 26.2588H37.4206C38.7709 26.2588 39.8738 27.3616 39.8738 28.712V36.7509C39.8738 38.1012 38.771 39.2041 37.4206 39.2041H30.5493V40.5478L26.6162 37.9285H38.5982V28.7519C38.5982 28.0825 38.0501 27.5344 37.3807 27.5344H30.6855V26.2588Z" fill="#FFA000"/>
<path fill-rule="evenodd" clip-rule="evenodd" d="M22.3145 26.2586H15.5794C14.2291 26.2586 13.1262 25.1541 13.1262 23.8054V15.765C13.1262 14.4163 14.2291 13.3135 15.5794 13.3135H22.4507V11.9697L26.3838 14.5873L22.4507 17.2066V15.8629H15.6758V23.7075H22.3145V26.2586Z" fill="#00D696"/>
<path fill-rule="evenodd" clip-rule="evenodd" d="M22.3145 26.2586H15.5794C14.2291 26.2586 13.1262 25.1541 13.1262 23.8054V15.765C13.1262 14.4163 14.2291 13.3135 15.5794 13.3135H22.4507V11.9697L26.3838 14.5873H14.4018V23.7656C14.4018 24.435 14.9499 24.983 15.6193 24.983H22.3145V26.2586Z" fill="#00C78B"/>
<path fill-rule="evenodd" clip-rule="evenodd" d="M13.1262 35.1924H19.0209V41.0305H13.1262V35.1924Z" fill="#FBC02D"/>
<path fill-rule="evenodd" clip-rule="evenodd" d="M15.136 35.1924H17.0095V38.1123H15.136V35.1924Z" fill="#FF5BA8"/>
<path fill-rule="evenodd" clip-rule="evenodd" d="M13.1262 35.1924H13.7657V41.0305H13.1262V35.1924Z" fill="#FFA000"/>
<path fill-rule="evenodd" clip-rule="evenodd" d="M15.136 35.1924H15.8452V38.1123H15.136V35.1924Z" fill="#ED4593"/>
<path fill-rule="evenodd" clip-rule="evenodd" d="M33.9791 11.9697H39.8738V17.8079H33.9791V11.9697Z" fill="#FBC02D"/>
<path fill-rule="evenodd" clip-rule="evenodd" d="M35.9906 11.9697H37.8641V14.888H35.9906V11.9697Z" fill="#FF5BA8"/>
<path fill-rule="evenodd" clip-rule="evenodd" d="M33.9791 11.9697H34.6186V17.8079H33.9791V11.9697Z" fill="#FFA000"/>
<path fill-rule="evenodd" clip-rule="evenodd" d="M35.9906 11.9697H36.6981V14.888H35.9906V11.9697Z" fill="#ED4593"/>
<path fill-rule="evenodd" clip-rule="evenodd" d="M26.5 34.1201C30.8699 34.1201 34.4325 30.5574 34.4325 26.1875C34.4325 21.8176 30.8698 18.2549 26.5 18.2549C22.1301 18.2549 18.5674 21.8176 18.5674 26.1875C18.5674 30.5574 22.1301 34.1201 26.5 34.1201Z" fill="#1F88F0"/>
<path fill-rule="evenodd" clip-rule="evenodd" d="M26.5001 33.5933C30.5793 33.5933 33.9061 30.2665 33.9061 26.1873C33.9061 22.108 30.5793 18.7812 26.5001 18.7812C22.4208 18.7812 19.094 22.1081 19.094 26.1873C19.094 30.2666 22.4208 33.5933 26.5001 33.5933Z" fill="#3399FD"/>
<path fill-rule="evenodd" clip-rule="evenodd" d="M30.1823 25.8878L31.8715 22.9596C32.3166 22.159 32.9195 21.3269 32.9195 20.3769C32.9195 18.8654 31.6938 17.6396 30.1823 17.6396C28.6693 17.6396 27.4435 18.8654 27.4435 20.3769C27.4435 21.3236 28.0498 22.159 28.4915 22.9596L30.1823 25.8878Z" fill="#FF5BA8"/>
<path fill-rule="evenodd" clip-rule="evenodd" d="M30.1822 21.7927C30.9609 21.7927 31.5976 21.1574 31.5976 20.3773C31.5976 19.5986 30.9609 18.9619 30.1822 18.9619C29.4021 18.9619 28.7668 19.5987 28.7668 20.3773C28.7668 21.1574 29.4021 21.7927 30.1822 21.7927Z" fill="#E4E3FF"/>
<path fill-rule="evenodd" clip-rule="evenodd" d="M30.1823 25.8878L30.4364 25.446L29.0014 22.9596C28.5612 22.159 27.955 21.3236 27.955 20.3769C27.955 18.9518 29.0446 17.7809 30.4364 17.6512C30.3534 17.6446 30.2687 17.6396 30.1823 17.6396C28.6693 17.6396 27.4435 18.8654 27.4435 20.3769C27.4435 21.3236 28.0498 22.159 28.4915 22.9596L30.1823 25.8878Z" fill="#D1307B"/>
<path d="M40.3153 28.7064V36.7313C40.3153 38.3382 39.008 39.6456 37.4011 39.6456H31.0091V40.5192C31.0091 40.6915 30.9142 40.8499 30.7623 40.9312C30.6932 40.9683 30.6173 40.9867 30.5417 40.9867C30.451 40.9867 30.3607 40.9604 30.2826 40.9083L26.3572 38.2958C26.227 38.2091 26.1487 38.0631 26.1487 37.9067C26.1487 37.7504 26.2268 37.6043 26.3571 37.5176L30.2825 34.9035C30.4259 34.8079 30.6104 34.799 30.7623 34.8804C30.9143 34.9618 31.0091 35.1202 31.0091 35.2925V36.166H36.8358V29.2717H35.5097C35.2514 29.2717 35.0421 29.0624 35.0421 28.8042C35.0421 28.546 35.2514 28.3367 35.5097 28.3367H37.3033C37.5615 28.3367 37.7708 28.546 37.7708 28.8042V36.6335C37.7708 36.8917 37.5615 37.101 37.3033 37.101H30.5416C30.2834 37.101 30.0741 36.8917 30.0741 36.6335V36.1654L27.4597 37.9066L30.0741 39.6466V39.1781C30.0741 38.9199 30.2834 38.7106 30.5416 38.7106H37.4011C38.4925 38.7106 39.3804 37.8227 39.3804 36.7313V28.7064C39.3804 27.6141 38.4925 26.7255 37.4011 26.7255H35.8794C35.6212 26.7255 35.4119 26.5162 35.4119 26.258C35.4119 25.9998 35.6212 25.7905 35.8794 25.7905H37.4011C39.008 25.7905 40.3153 27.0986 40.3153 28.7064ZM15.6007 26.7255H17.1207C17.3789 26.7255 17.5882 26.5162 17.5882 26.2579C17.5882 25.9997 17.3789 25.7904 17.1207 25.7904H15.6007C14.5083 25.7904 13.6197 24.9018 13.6197 23.8095V15.7863C13.6197 14.694 14.5084 13.8054 15.6007 13.8054H22.4585C22.7168 13.8054 22.9261 13.5961 22.9261 13.3379V12.8697L25.5405 14.6109L22.9261 16.3509V15.8824C22.9261 15.6242 22.7168 15.4149 22.4585 15.4149H15.6985C15.4404 15.4149 15.231 15.6242 15.231 15.8824V23.7134C15.231 23.9716 15.4403 24.1809 15.6985 24.1809H17.4507C17.7089 24.1809 17.9182 23.9716 17.9182 23.7134C17.9182 23.4552 17.7089 23.2459 17.4507 23.2459H16.166V16.3499H21.991V17.2235C21.991 17.3958 22.0859 17.5542 22.2378 17.6355C22.3898 17.717 22.5741 17.7082 22.7175 17.6126L26.643 15.0001C26.7731 14.9134 26.8514 14.7674 26.8515 14.611C26.8515 14.4546 26.7733 14.3085 26.6431 14.2219L22.7176 11.6077C22.5742 11.5122 22.3898 11.5033 22.2379 11.5847C22.0859 11.6661 21.9911 11.8244 21.9911 11.9968V12.8703H15.6007C13.9928 12.8703 12.6847 14.1784 12.6847 15.7863V23.8095C12.6848 25.4174 13.9928 26.7255 15.6007 26.7255ZM28.6335 20.3897C28.6335 19.5396 29.3251 18.8481 30.1752 18.8481C31.0243 18.8481 31.7152 19.5396 31.7152 20.3897C31.7152 21.2389 31.0243 21.9297 30.1752 21.9297C29.3251 21.9297 28.6335 21.2389 28.6335 20.3897ZM29.5685 20.3897C29.5685 20.7234 29.8406 20.9948 30.1752 20.9948C30.5088 20.9948 30.7802 20.7234 30.7802 20.3897C30.7802 20.0552 30.5088 19.783 30.1752 19.783C29.8406 19.783 29.5685 20.0552 29.5685 20.3897ZM28.1009 17.9556C28.6599 17.478 29.3842 17.1887 30.1752 17.1887C31.9392 17.1887 33.3746 18.6248 33.3746 20.3898C33.3746 20.677 33.3283 20.9521 33.2525 21.2161C34.321 22.6613 34.8848 24.3743 34.8848 26.1868C34.8848 30.81 31.1234 34.5713 26.5001 34.5713C21.8768 34.5713 18.1155 30.81 18.1155 26.1868C18.1155 21.5635 21.8768 17.8021 26.5001 17.8021C27.0383 17.8021 27.5757 17.8538 28.1009 17.9556ZM24.3241 20.7852C24.1569 21.1452 24.0086 21.5358 23.8801 21.9511C24.707 22.2613 25.5912 22.4237 26.5 22.4237C26.8669 22.4237 27.2322 22.3969 27.5921 22.3439C27.2681 21.7581 26.9758 21.1107 26.9758 20.3897C26.9758 19.8082 27.1323 19.2629 27.4044 18.7923C27.105 18.756 26.8027 18.737 26.5 18.737C25.7217 18.737 24.9286 19.4835 24.3241 20.7852ZM29.5367 25.7192L28.0864 23.2073C27.5665 23.3072 27.0347 23.3587 26.5001 23.3587C25.5097 23.3587 24.5453 23.1875 23.6403 22.8597C23.4424 23.7454 23.3256 24.7128 23.2979 25.7192H29.5367ZM23.2979 26.6542C23.3256 27.661 23.4424 28.6287 23.6405 29.5146C24.5452 29.1873 25.5095 29.0164 26.5 29.0164C27.4906 29.0164 28.4549 29.1873 29.3596 29.5146C29.5576 28.6287 29.6745 27.661 29.7022 26.6542H23.2979ZM21.5976 20.5824C22.0375 20.968 22.5156 21.2971 23.0229 21.5655C23.1557 21.15 23.3067 20.7564 23.4762 20.3913C23.7121 19.8834 23.9758 19.4453 24.2614 19.0809C23.2677 19.3947 22.3636 19.9115 21.5976 20.5824ZM19.0655 25.7192H22.3625C22.3924 24.5811 22.5315 23.4855 22.7683 22.4862C22.1102 22.1584 21.4934 21.7417 20.9327 21.2426C19.8594 22.4499 19.1721 24.007 19.0655 25.7192ZM20.9326 31.1308C21.4933 30.6319 22.1101 30.2154 22.7684 29.8878C22.5315 28.8883 22.3923 27.7925 22.3624 26.6542H19.0654C19.1721 28.3664 19.8594 29.9236 20.9326 31.1308ZM24.2613 33.2925C23.9757 32.9281 23.712 32.49 23.4761 31.9821C23.3066 31.6172 23.1558 31.2237 23.023 30.8084C22.5154 31.0767 22.0374 31.4056 21.5975 31.791C22.3636 32.4619 23.2677 32.9787 24.2613 33.2925ZM28.676 31.5882C28.8431 31.2285 28.9913 30.8382 29.1197 30.4232C28.2931 30.1135 27.409 29.9513 26.5001 29.9513C25.5912 29.9513 24.707 30.1135 23.8805 30.4232C24.0089 30.8382 24.1571 31.2285 24.3242 31.5882C24.9287 32.8899 25.7218 33.6363 26.5002 33.6363C27.2785 33.6363 28.0715 32.8899 28.676 31.5882ZM31.4025 31.791C30.9626 31.4055 30.4845 31.0766 29.9771 30.8083C29.8442 31.2237 29.6934 31.6171 29.5239 31.982C29.288 32.49 29.0243 32.9281 28.7387 33.2924C29.7324 32.9787 30.6365 32.4619 31.4025 31.791ZM33.9346 26.6542H30.6376C30.6077 27.7925 30.4685 28.8883 30.2316 29.8878C30.8899 30.2154 31.5068 30.6319 32.0674 31.1308C33.1406 29.9236 33.828 28.3664 33.9346 26.6542ZM32.5089 22.7804C32.4253 22.9235 32.3465 23.0586 32.2718 23.1937C32.2704 23.1962 32.269 23.1988 32.2675 23.2013L30.8135 25.7193H33.934C33.8579 24.4711 33.4774 23.2867 32.8173 22.2375C32.7165 22.4246 32.611 22.6054 32.5089 22.7804ZM27.9107 20.3897C27.9107 21.0417 28.2862 21.6861 28.6493 22.3091C28.7311 22.4494 28.8156 22.5944 28.8947 22.7376L30.1751 24.9551L31.4557 22.7374C31.5351 22.5941 31.6196 22.4492 31.7014 22.309C32.0643 21.6873 32.4395 21.0445 32.4395 20.3897C32.4395 19.1402 31.4237 18.1237 30.1751 18.1237C28.9265 18.1237 27.9107 19.1403 27.9107 20.3897ZM40.3153 11.9968V17.8253C40.3153 18.0835 40.106 18.2928 39.8478 18.2928H33.9663C33.7081 18.2928 33.4988 18.0835 33.4988 17.8253V11.9968C33.4988 11.7387 33.7081 11.5293 33.9663 11.5293H35.9721H37.842H39.8479C40.106 11.5293 40.3153 11.7386 40.3153 11.9968ZM36.4397 14.4435H37.3745V12.4643H36.4397V14.4435ZM39.3804 12.4643H38.3095V14.911C38.3095 15.1692 38.1002 15.3786 37.842 15.3786H35.9721C35.7139 15.3786 35.5046 15.1693 35.5046 14.911V12.4643H34.4337V17.3578H39.3802V12.4643H39.3804ZM19.5029 35.1747V41.0032C19.5029 41.2613 19.2936 41.4707 19.0354 41.4707H13.1522C12.894 41.4707 12.6847 41.2614 12.6847 41.0032V35.1747C12.6847 34.9166 12.894 34.7072 13.1522 34.7072H15.1581H17.0296H19.0354C19.2936 34.7073 19.5029 34.9166 19.5029 35.1747ZM15.6256 37.6215H16.5621V35.6423H15.6256V37.6215ZM18.5679 35.6423H17.4971V38.089C17.4971 38.3471 17.2878 38.5565 17.0296 38.5565H15.1581C14.8999 38.5565 14.6906 38.3472 14.6906 38.089V35.6423H13.6197V40.5357H18.5679V35.6423ZM28.2191 15.0785H29.1672C29.4255 15.0785 29.6348 14.8692 29.6348 14.611C29.6348 14.3528 29.4255 14.1435 29.1672 14.1435H28.2191C27.9609 14.1435 27.7515 14.3528 27.7515 14.611C27.7516 14.8692 27.9609 15.0785 28.2191 15.0785ZM31.0438 15.0785H31.9936C32.2517 15.0785 32.4611 14.8692 32.4611 14.611C32.4611 14.3528 32.2518 14.1435 31.9936 14.1435H31.0438C30.7855 14.1435 30.5762 14.3528 30.5762 14.611C30.5762 14.8692 30.7856 15.0785 31.0438 15.0785ZM21.9812 37.4392H21.0313C20.7731 37.4392 20.5637 37.6485 20.5637 37.9067C20.5637 38.1649 20.773 38.3742 21.0313 38.3742H21.9812C22.2393 38.3742 22.4487 38.1649 22.4487 37.9067C22.4487 37.6485 22.2393 37.4392 21.9812 37.4392ZM24.8058 37.4392H23.856C23.5978 37.4392 23.3885 37.6485 23.3885 37.9067C23.3885 38.1649 23.5978 38.3742 23.856 38.3742H24.8058C25.064 38.3742 25.2733 38.1649 25.2733 37.9067C25.2733 37.6485 25.064 37.4392 24.8058 37.4392Z" fill="black"/>
</g>
<defs>
<radialGradient id="paint0_radial_1780_13911" cx="0" cy="0" r="1" gradientUnits="userSpaceOnUse" gradientTransform="translate(26.5 26.5) rotate(90) scale(26.5)">
<stop stop-color="white"/>
<stop offset="1" stop-color="#68BBE3"/>
</radialGradient>
<clipPath id="clip0_1780_13911">
<rect width="30" height="30" fill="white" transform="translate(11.5 11.5)"/>
</clipPath>
</defs>
</svg>
