<svg width="53" height="53" viewBox="0 0 53 53" fill="none" xmlns="http://www.w3.org/2000/svg">
<rect width="53" height="53" rx="26.5" fill="url(#paint0_radial_1780_14085)" fill-opacity="0.5"/>
<path d="M18.875 21.125H39.5V39.875H18.875V21.125Z" fill="#E678A5"/>
<path d="M18.875 13.625C17.3832 13.625 15.9524 14.2176 14.8975 15.2725C13.8426 16.3274 13.25 17.7582 13.25 19.25V34.25H24.5V19.25C24.5 17.7582 23.9074 16.3274 22.8525 15.2725C21.7976 14.2176 20.3668 13.625 18.875 13.625Z" fill="#EFA9C5"/>
<path d="M18.875 39.875C21.9816 39.875 24.5 37.3566 24.5 34.25C24.5 31.1434 21.9816 28.625 18.875 28.625C15.7684 28.625 13.25 31.1434 13.25 34.25C13.25 37.3566 15.7684 39.875 18.875 39.875Z" fill="#F093BE"/>
<path d="M18.875 38C20.9461 38 22.625 36.3211 22.625 34.25C22.625 32.1789 20.9461 30.5 18.875 30.5C16.8039 30.5 15.125 32.1789 15.125 34.25C15.125 36.3211 16.8039 38 18.875 38Z" fill="#EFA9C5"/>
<path d="M18.875 36.125C19.9105 36.125 20.75 35.2855 20.75 34.25C20.75 33.2145 19.9105 32.375 18.875 32.375C17.8395 32.375 17 33.2145 17 34.25C17 35.2855 17.8395 36.125 18.875 36.125Z" fill="#F093BE"/>
<path d="M39.5 20.6562H24.9688V19.25C24.9688 17.6338 24.3267 16.0839 23.1839 14.9411C22.0411 13.7983 20.4912 13.1563 18.875 13.1562C17.2588 13.1563 15.7089 13.7983 14.5661 14.9411C13.4233 16.0839 12.7813 17.6338 12.7812 19.25V34.25C12.7831 35.8656 13.4257 37.4145 14.5681 38.5569C15.7105 39.6993 17.2594 40.3419 18.875 40.3438H39.5C39.6243 40.3438 39.7435 40.2944 39.8315 40.2065C39.9194 40.1185 39.9688 39.9993 39.9688 39.875V21.125C39.9688 21.0007 39.9194 20.8815 39.8315 20.7935C39.7435 20.7056 39.6243 20.6562 39.5 20.6562ZM13.7188 19.25C13.7188 17.8825 14.262 16.571 15.229 15.604C16.196 14.637 17.5075 14.0938 18.875 14.0938C20.2425 14.0938 21.554 14.637 22.521 15.604C23.488 16.571 24.0312 17.8825 24.0312 19.25V31.0174C23.4853 30.142 22.7255 29.42 21.8234 28.9195C20.9213 28.4189 19.9067 28.1563 18.875 28.1563C17.8433 28.1563 16.8287 28.4189 15.9266 28.9195C15.0245 29.42 14.2647 30.142 13.7188 31.0174V19.25ZM13.7188 34.25C13.7188 33.2302 14.0212 32.2333 14.5877 31.3853C15.1543 30.5374 15.9596 29.8765 16.9018 29.4862C17.844 29.096 18.8807 28.9939 19.8809 29.1928C20.8811 29.3918 21.7999 29.8829 22.521 30.604C23.2421 31.3251 23.7332 32.2439 23.9322 33.2441C24.1311 34.2443 24.029 35.281 23.6388 36.2232C23.2485 37.1654 22.5876 37.9707 21.7397 38.5373C20.8917 39.1038 19.8948 39.4062 18.875 39.4062C17.508 39.4047 16.1973 38.861 15.2307 37.8943C14.264 36.9277 13.7203 35.617 13.7188 34.25ZM39.0312 39.4062H22.1196C22.9916 38.8576 23.7102 38.0969 24.2085 37.1952C24.7067 36.2935 24.9683 35.2802 24.9688 34.25V21.5938H39.0312V39.4062Z" fill="black"/>
<path d="M18.875 30.0312C18.0406 30.0312 17.225 30.2787 16.5312 30.7422C15.8374 31.2058 15.2967 31.8647 14.9774 32.6356C14.6581 33.4064 14.5745 34.2547 14.7373 35.073C14.9001 35.8914 15.3019 36.6431 15.8919 37.2331C16.4819 37.8231 17.2336 38.2249 18.052 38.3877C18.8703 38.5505 19.7186 38.4669 20.4894 38.1476C21.2603 37.8283 21.9192 37.2876 22.3828 36.5938C22.8463 35.9 23.0938 35.0844 23.0938 34.25C23.0925 33.1315 22.6476 32.0592 21.8567 31.2683C21.0658 30.4774 19.9935 30.0325 18.875 30.0312ZM18.875 37.5312C18.226 37.5312 17.5916 37.3388 17.052 36.9783C16.5124 36.6177 16.0919 36.1052 15.8435 35.5057C15.5952 34.9061 15.5302 34.2464 15.6568 33.6099C15.7834 32.9734 16.0959 32.3887 16.5548 31.9298C17.0137 31.4709 17.5984 31.1584 18.2349 31.0318C18.8714 30.9052 19.5311 30.9702 20.1307 31.2185C20.7303 31.4669 21.2427 31.8874 21.6033 32.427C21.9638 32.9666 22.1563 33.601 22.1563 34.25C22.1552 35.1199 21.8092 35.9539 21.1941 36.5691C20.5789 37.1842 19.7449 37.5302 18.875 37.5312Z" fill="black"/>
<path d="M18.875 31.9062C18.4115 31.9063 17.9583 32.0437 17.5729 32.3012C17.1875 32.5588 16.8871 32.9248 16.7097 33.3531C16.5323 33.7813 16.4859 34.2526 16.5763 34.7072C16.6667 35.1619 16.8899 35.5795 17.2177 35.9073C17.5455 36.2351 17.9631 36.4583 18.4178 36.5487C18.8724 36.6391 19.3437 36.5927 19.7719 36.4153C20.2002 36.2379 20.5662 35.9375 20.8238 35.5521C21.0813 35.1667 21.2188 34.7135 21.2188 34.25C21.218 33.6286 20.9709 33.0329 20.5315 32.5935C20.0921 32.1541 19.4964 31.907 18.875 31.9062ZM18.875 35.6562C18.5969 35.6562 18.325 35.5738 18.0937 35.4193C17.8625 35.2647 17.6822 35.0451 17.5758 34.7881C17.4694 34.5312 17.4415 34.2484 17.4958 33.9757C17.55 33.7029 17.684 33.4523 17.8806 33.2556C18.0773 33.059 18.3279 32.925 18.6007 32.8708C18.8734 32.8165 19.1562 32.8444 19.4131 32.9508C19.6701 33.0572 19.8897 33.2375 20.0443 33.4687C20.1988 33.7 20.2813 33.9719 20.2813 34.25C20.2808 34.6228 20.1326 34.9803 19.8689 35.2439C19.6053 35.5076 19.2478 35.6558 18.875 35.6562Z" fill="black"/>
<g clip-path="url(#clip0_1780_14085)">
<path d="M40.4688 19.3746C40.2445 19.3746 40.0625 19.1926 40.0625 18.9684C40.0625 17.4002 38.7869 16.1246 37.2188 16.1246H33.2917V17.885C33.2917 18.2425 32.8621 18.4234 32.6048 18.1786L29.6257 15.3349C29.5455 15.2585 29.5 15.1523 29.5 15.0413C29.5 14.9302 29.5455 14.8241 29.6257 14.7477L32.6048 11.9039C32.8627 11.6575 33.2917 11.8411 33.2917 12.1975V13.9579H36.6771C38.9916 13.9579 40.875 15.8413 40.875 18.1559V18.9684C40.875 19.1926 40.693 19.3746 40.4688 19.3746Z" fill="#2196F3"/>
<path d="M39.4889 15.042H29.5C29.5 15.153 29.5455 15.2592 29.6257 15.3356L32.6048 18.1793C32.6861 18.2568 32.7852 18.292 32.8822 18.292C33.0913 18.292 33.2917 18.13 33.2917 17.8857V16.1253H37.2188C38.7869 16.1253 40.0625 17.401 40.0625 18.9691C40.0625 19.1933 40.2445 19.3753 40.4688 19.3753C40.693 19.3753 40.875 19.1933 40.875 18.9691V18.1566C40.875 16.9221 40.3398 15.8106 39.4889 15.042Z" fill="#1D83D4" fill-opacity="0.2"/>
<path d="M35.4583 23.3021V21.5417H32.0729C29.7584 21.5417 27.875 19.6583 27.875 17.3438V16.5312C27.875 16.307 28.057 16.125 28.2812 16.125C28.5055 16.125 28.6875 16.307 28.6875 16.5312C28.6875 18.0994 29.9631 19.375 31.5313 19.375H35.4583V17.6146C35.4583 17.2582 35.8868 17.0735 36.1452 17.321L39.1243 20.1648C39.2045 20.2411 39.25 20.3473 39.25 20.4583C39.25 20.5694 39.2045 20.6755 39.1243 20.7519L36.1452 23.5957C35.8873 23.8421 35.4583 23.6585 35.4583 23.3021Z" fill="#2196F3"/>
<path d="M39.25 20.458H29.2611C30.0059 21.1313 30.9923 21.5413 32.0729 21.5413H35.4583V23.3018C35.4583 23.5455 35.6587 23.708 35.8678 23.708C35.9648 23.708 36.0634 23.6733 36.1452 23.5953L39.1243 20.7516C39.2045 20.6752 39.25 20.569 39.25 20.458Z" fill="#1D83D4" fill-opacity="0.2"/>
</g>
<path d="M35.75 40.75C32.5106 40.75 29.875 38.1144 29.875 34.875C29.875 31.6356 32.5106 29 35.75 29C38.9894 29 41.625 31.6356 41.625 34.875C41.625 38.1144 38.9894 40.75 35.75 40.75Z" fill="#2196F3"/>
<path d="M38.288 33.2915L36.2544 31.0319C36.1251 30.8891 35.9426 30.8078 35.75 30.8078C35.5575 30.8078 35.375 30.8891 35.2457 31.0319L33.212 33.2915C32.8207 33.7263 33.1307 34.4232 33.7164 34.4232H34.8462V38.0385C34.8462 38.5384 35.2502 38.9424 35.75 38.9424C36.2499 38.9424 36.6539 38.5384 36.6539 38.0385V34.4232H37.7837C38.3694 34.4232 38.6794 33.7263 38.288 33.2915Z" fill="white"/>
<path d="M35.75 40.75C32.5106 40.75 29.875 38.1144 29.875 34.875C29.875 31.6356 32.5106 29 35.75 29V30.8077C35.5575 30.8077 35.3749 30.889 35.2457 31.0318L33.212 33.2915C32.8206 33.7262 33.1307 34.4231 33.7163 34.4231H34.8462V38.0385C34.8462 38.5383 35.2502 38.9423 35.75 38.9423V40.75Z" fill="#1D83D4"/>
<path d="M35.75 38.9424C35.2502 38.9424 34.8462 38.5384 34.8462 38.0385V34.4232H33.7164C33.1307 34.4232 32.8207 33.7263 33.212 33.2915L35.2457 31.0319C35.375 30.8891 35.5575 30.8078 35.75 30.8078V38.9424Z" fill="#DEDEDE"/>
<defs>
<radialGradient id="paint0_radial_1780_14085" cx="0" cy="0" r="1" gradientUnits="userSpaceOnUse" gradientTransform="translate(26.5 26.5) rotate(90) scale(26.5)">
<stop stop-color="white"/>
<stop offset="1" stop-color="#FAD8E6"/>
</radialGradient>
<clipPath id="clip0_1780_14085">
<rect width="13" height="13" fill="white" transform="translate(27.875 11.25)"/>
</clipPath>
</defs>
</svg>
